<svg version="1.1" viewBox="0.0 0.0 303.6692913385827 309.8503937007874" fill="none" stroke="none" stroke-linecap="square" stroke-miterlimit="10" xmlns:xlink="http://www.w3.org/1999/xlink" xmlns="http://www.w3.org/2000/svg"><clipPath id="p.0"><path d="m0 0l303.66928 0l0 309.8504l-303.66928 0l0 -309.8504z" clip-rule="nonzero"/></clipPath><g clip-path="url(#p.0)"><path fill="#000000" fill-opacity="0.0" d="m0 0l303.66928 0l0 309.8504l-303.66928 0z" fill-rule="evenodd"/><path fill="#d9ead3" d="m8.650919 71.50847l0 0c0 -3.7670288 3.0537786 -6.820801 6.8208055 -6.820801l181.94894 0c1.8089905 0 3.5438843 0.7186127 4.8230286 1.9977646c1.2791595 1.2791519 1.9977722 3.0140457 1.9977722 4.823036l0 34.106422c0 3.7670288 -3.053772 6.820801 -6.820801 6.820801l-181.94894 0c-3.767027 0 -6.8208055 -3.053772 -6.8208055 -6.820801z" fill-rule="evenodd"/><path fill="#000000" d="m79.31758 85.09106q-1.46875 0 -2.796875 -0.46875q-1.328125 -0.484375 -2.0625 -1.21875l0.546875 -1.078125q0.6875 0.671875 1.84375 1.140625q1.171875 0.453125 2.46875 0.453125q1.21875 0 1.984375 -0.296875q0.78125 -0.3125 1.140625 -0.828125q0.375 -0.53125 0.375 -1.171875q0 -0.765625 -0.4375 -1.234375q-0.4375 -0.46875 -1.15625 -0.734375q-0.703125 -0.265625 -1.5625 -0.46875q-0.859375 -0.203125 -1.71875 -0.4375q-0.859375 -0.234375 -1.578125 -0.625q-0.703125 -0.390625 -1.15625 -1.03125q-0.4375 -0.65625 -0.4375 -1.703125q0 -0.96875 0.515625 -1.78125q0.515625 -0.8125 1.578125 -1.296875q1.0625 -0.5 2.71875 -0.5q1.109375 0 2.1875 0.3125q1.078125 0.296875 1.875 0.84375l-0.46875 1.109375q-0.84375 -0.5625 -1.796875 -0.828125q-0.9375 -0.265625 -1.8125 -0.265625q-1.171875 0 -1.9375 0.328125q-0.765625 0.3125 -1.125 0.84375q-0.359375 0.53125 -0.359375 1.203125q0 0.765625 0.4375 1.234375q0.4375 0.46875 1.15625 0.734375q0.71875 0.25 1.5625 0.453125q0.859375 0.203125 1.703125 0.453125q0.859375 0.234375 1.578125 0.625q0.71875 0.375 1.15625 1.015625q0.4375 0.625 0.4375 1.65625q0 0.953125 -0.53125 1.765625q-0.515625 0.8125 -1.59375 1.3125q-1.0625 0.484375 -2.734375 0.484375zm10.676727 -0.015625q-1.375 0 -2.125 -0.75q-0.734375 -0.75 -0.734375 -2.109375l0 -9.1875l1.3125 0l0 9.125q0 0.84375 0.4375 1.3125q0.4375 0.46875 1.265625 0.46875q0.875 0 1.453125 -0.5l0.46875 0.953125q-0.390625 0.34375 -0.953125 0.515625q-0.546875 0.171875 -1.125 0.171875zm-4.625 -8.78125l0 -1.109375l6.0625 0l0 1.109375l-6.0625 0zm15.246307 8.6875l0 -2.171875l-0.0625 -0.34375l0 -3.625q0 -1.25 -0.703125 -1.921875q-0.6875 -0.671875 -2.0625 -0.671875q-0.953125 0 -1.8125 0.328125q-0.859375 0.3125 -1.453125 0.828125l-0.609375 -0.984375q0.75 -0.640625 1.796875 -0.984375q1.046875 -0.34375 2.203125 -0.34375q1.90625 0 2.9375 0.953125q1.03125 0.9375 1.03125 2.859375l0 6.078125l-1.265625 0zm-3.375 0.09375q-1.109375 0 -1.921875 -0.359375q-0.796875 -0.375 -1.234375 -1.015625q-0.421875 -0.640625 -0.421875 -1.484375q0 -0.765625 0.359375 -1.390625q0.359375 -0.625 1.1875 -1.0q0.84375 -0.390625 2.234375 -0.390625l3.375 0l0 1.0l-3.34375 0q-1.40625 0 -1.96875 0.5q-0.546875 0.5 -0.546875 1.25q0 0.84375 0.65625 1.34375q0.65625 0.5 1.828125 0.5q1.125 0 1.9375 -0.515625q0.8125 -0.515625 1.171875 -1.484375l0.3125 0.921875q-0.375 0.96875 -1.3125 1.546875q-0.921875 0.578125 -2.3125 0.578125zm12.429062 3.625q-1.34375 0 -2.578125 -0.40625q-1.234375 -0.390625 -2.0 -1.109375l0.671875 -1.015625q0.6875 0.625 1.703125 0.984375q1.015625 0.359375 2.15625 0.359375q1.875 0 2.75 -0.875q0.875 -0.859375 0.875 -2.6875l0 -2.4375l0.1875 -1.6875l-0.140625 -1.671875l0 -2.96875l1.28125 0l0 8.609375q0 2.53125 -1.25 3.71875q-1.234375 1.1875 -3.65625 1.1875zm-0.25 -4.09375q-1.390625 0 -2.515625 -0.59375q-1.125 -0.609375 -1.765625 -1.6875q-0.640625 -1.09375 -0.640625 -2.5q0 -1.390625 0.640625 -2.453125q0.640625 -1.078125 1.765625 -1.671875q1.125 -0.609375 2.515625 -0.609375q1.3125 0 2.34375 0.546875q1.046875 0.53125 1.65625 1.609375q0.625 1.0625 0.625 2.578125q0 1.53125 -0.625 2.59375q-0.609375 1.0625 -1.65625 1.625q-1.03125 0.5625 -2.34375 0.5625zm0.125 -1.171875q1.09375 0 1.921875 -0.453125q0.84375 -0.46875 1.328125 -1.265625q0.484375 -0.8125 0.484375 -1.890625q0 -1.0625 -0.484375 -1.859375q-0.484375 -0.796875 -1.328125 -1.25q-0.828125 -0.46875 -1.921875 -0.46875q-1.0625 0 -1.90625 0.46875q-0.84375 0.453125 -1.328125 1.25q-0.46875 0.796875 -0.46875 1.859375q0 1.078125 0.46875 1.890625q0.484375 0.796875 1.328125 1.265625q0.84375 0.453125 1.90625 0.453125zm12.873291 1.640625q-1.515625 0 -2.671875 -0.640625q-1.15625 -0.640625 -1.8125 -1.765625q-0.65625 -1.140625 -0.65625 -2.59375q0 -1.453125 0.625 -2.5625q0.625 -1.125 1.71875 -1.765625q1.09375 -0.65625 2.453125 -0.65625q1.375 0 2.4375 0.625q1.078125 0.625 1.6875 1.765625q0.625 1.125 0.625 2.59375q0 0.09375 -0.015625 0.203125q0 0.09375 0 0.203125l-8.53125 0l0 -0.984375l7.828125 0l-0.53125 0.390625q0 -1.0625 -0.453125 -1.890625q-0.453125 -0.828125 -1.25 -1.296875q-0.78125 -0.46875 -1.796875 -0.46875q-1.015625 0 -1.8125 0.46875q-0.796875 0.46875 -1.25 1.3125q-0.453125 0.828125 -0.453125 1.90625l0 0.21875q0 1.109375 0.5 1.96875q0.5 0.84375 1.375 1.328125q0.890625 0.46875 2.03125 0.46875q0.890625 0 1.65625 -0.3125q0.78125 -0.328125 1.34375 -0.984375l0.75 0.859375q-0.65625 0.78125 -1.640625 1.203125q-0.96875 0.40625 -2.15625 0.40625zm13.406311 -0.09375l0 -12.5l0.59375 0.640625l-3.671875 0l0 -1.203125l4.421875 0l0 13.0625l-1.34375 0z" fill-rule="nonzero"/><path fill="#000000" d="m52.489937 105.79543q-1.109375 0 -2.109375 -0.3125q-0.984375 -0.3125 -1.515625 -0.796875l0.59375 -0.984375q0.515625 0.46875 1.359375 0.75q0.859375 0.265625 1.796875 0.265625q1.296875 0 2.0 -0.4375q0.703125 -0.4375 0.703125 -1.1875q0 -0.53125 -0.375 -0.796875q-0.375 -0.265625 -0.96875 -0.40625q-0.59375 -0.15625 -1.25 -0.296875q-0.65625 -0.140625 -1.25 -0.34375q-0.578125 -0.21875 -0.953125 -0.671875q-0.375 -0.453125 -0.375 -1.21875q0 -0.859375 0.484375 -1.5q0.5 -0.640625 1.375 -0.984375q0.890625 -0.359375 2.09375 -0.359375q0.859375 0 1.703125 0.234375q0.859375 0.21875 1.375 0.625l-0.515625 0.984375q-0.53125 -0.421875 -1.25 -0.59375q-0.703125 -0.1875 -1.421875 -0.1875q-1.265625 0 -1.953125 0.46875q-0.671875 0.453125 -0.671875 1.1875q0 0.53125 0.359375 0.8125q0.375 0.265625 0.96875 0.421875q0.59375 0.15625 1.25 0.296875q0.671875 0.125 1.25 0.359375q0.59375 0.21875 0.953125 0.640625q0.375 0.421875 0.375 1.1875q0 0.890625 -0.5 1.53125q-0.5 0.625 -1.421875 0.96875q-0.90625 0.34375 -2.109375 0.34375zm9.92482 0q-1.296875 0 -2.25 -0.46875q-0.9375 -0.484375 -1.453125 -1.34375q-0.5 -0.875 -0.5 -2.0625q0 -1.5625 0.671875 -2.78125q0.671875 -1.21875 1.875 -1.921875q1.203125 -0.703125 2.75 -0.703125q1.265625 0 2.171875 0.46875q0.90625 0.453125 1.40625 1.359375l-1.03125 0.59375q-0.375 -0.6875 -1.046875 -1.015625q-0.671875 -0.328125 -1.609375 -0.328125q-1.140625 0 -2.046875 0.5625q-0.890625 0.546875 -1.40625 1.515625q-0.515625 0.953125 -0.515625 2.203125q0 1.328125 0.78125 2.078125q0.796875 0.75 2.25 0.75q0.890625 0 1.640625 -0.34375q0.75 -0.34375 1.234375 -0.984375l0.890625 0.6875q-0.59375 0.8125 -1.625 1.28125q-1.015625 0.453125 -2.1875 0.453125zm5.6306763 -0.09375l1.796875 -9.09375l1.1875 0l-0.515625 2.6875l-0.140625 -0.46875q0.609375 -1.203125 1.59375 -1.75q1.0 -0.5625 2.484375 -0.5625l-0.21875 1.203125q-0.09375 0 -0.171875 0q-0.0625 -0.015625 -0.171875 -0.015625q-1.453125 0 -2.40625 0.84375q-0.9375 0.828125 -1.28125 2.53125l-0.921875 4.625l-1.234375 0zm6.80986 0l1.796875 -9.09375l1.234375 0l-1.796875 9.09375l-1.234375 0zm2.953125 -11.109375q-0.375 0 -0.609375 -0.234375q-0.234375 -0.25 -0.234375 -0.578125q0 -0.375 0.265625 -0.65625q0.28125 -0.28125 0.6875 -0.28125q0.375 0 0.609375 0.234375q0.25 0.21875 0.25 0.5625q0 0.421875 -0.28125 0.6875q-0.28125 0.265625 -0.6875 0.265625zm6.7706146 11.203125q-1.171875 0 -2.015625 -0.421875q-0.84375 -0.4375 -1.296875 -1.234375q-0.4375 -0.8125 -0.453125 -1.953125q0 -1.6875 0.609375 -2.953125q0.609375 -1.28125 1.71875 -2.0q1.109375 -0.71875 2.609375 -0.71875q1.1875 0 2.078125 0.46875q0.890625 0.453125 1.390625 1.328125q0.515625 0.859375 0.515625 2.046875q0 1.1875 -0.375 2.171875q-0.375 0.984375 -1.078125 1.71875q-0.703125 0.71875 -1.640625 1.140625q-0.9375 0.40625 -2.0625 0.40625zm-5.734375 3.265625l2.46875 -12.453125l1.1875 0l-0.515625 2.609375l-0.515625 1.828125l-0.1875 1.90625l-1.203125 6.109375l-1.234375 0zm5.71875 -4.359375q1.140625 0 2.015625 -0.546875q0.890625 -0.546875 1.40625 -1.515625q0.515625 -0.96875 0.515625 -2.203125q0 -1.359375 -0.78125 -2.09375q-0.78125 -0.75 -2.21875 -0.75q-1.125 0 -2.03125 0.5625q-0.890625 0.546875 -1.40625 1.515625q-0.5 0.953125 -0.5 2.203125q0 1.328125 0.78125 2.078125q0.78125 0.75 2.21875 0.75zm9.592148 1.09375q-0.78125 0 -1.34375 -0.34375q-0.546875 -0.34375 -0.765625 -0.96875q-0.203125 -0.625 -0.03125 -1.484375l1.65625 -8.40625l1.234375 0l-1.65625 8.359375q-0.1875 0.84375 0.109375 1.3125q0.3125 0.46875 1.125 0.46875q0.390625 0 0.75 -0.109375q0.359375 -0.125 0.65625 -0.359375l0.296875 0.9375q-0.4375 0.328125 -0.96875 0.46875q-0.53125 0.125 -1.0625 0.125zm-2.703125 -8.171875l0.203125 -1.015625l5.625 0l-0.203125 1.015625l-5.625 0zm5.5637054 8.90625l0.171875 -0.828125l8.671875 0l-0.171875 0.828125l-8.671875 0zm14.131805 -0.734375q-1.265625 0 -2.203125 -0.46875q-0.921875 -0.484375 -1.4375 -1.34375q-0.5 -0.875 -0.5 -2.0625q0 -1.5625 0.671875 -2.78125q0.671875 -1.21875 1.859375 -1.921875q1.203125 -0.703125 2.734375 -0.703125q1.265625 0 2.1875 0.46875q0.921875 0.46875 1.4375 1.34375q0.515625 0.859375 0.515625 2.03125q0 1.5625 -0.6875 2.796875q-0.671875 1.21875 -1.859375 1.9375q-1.1875 0.703125 -2.71875 0.703125zm0.078125 -1.09375q1.140625 0 2.03125 -0.546875q0.90625 -0.546875 1.40625 -1.515625q0.515625 -0.96875 0.515625 -2.203125q0 -1.359375 -0.796875 -2.09375q-0.78125 -0.75 -2.203125 -0.75q-1.125 0 -2.03125 0.5625q-0.890625 0.546875 -1.40625 1.515625q-0.515625 0.953125 -0.515625 2.203125q0 1.328125 0.78125 2.078125q0.796875 0.75 2.21875 0.75zm12.974045 -8.1875q1.234375 0 2.015625 0.484375q0.796875 0.46875 1.09375 1.375q0.3125 0.90625 0.046875 2.140625l-1.03125 5.1875l-1.234375 0l1.046875 -5.203125q0.265625 -1.34375 -0.296875 -2.109375q-0.5625 -0.765625 -1.984375 -0.765625q-1.453125 0 -2.421875 0.796875q-0.953125 0.796875 -1.28125 2.390625l-0.96875 4.890625l-1.234375 0l1.796875 -9.09375l1.1875 0l-0.515625 2.609375l-0.265625 -0.453125q0.65625 -1.171875 1.703125 -1.703125q1.046875 -0.546875 2.34375 -0.546875zm9.6199875 9.28125q-1.296875 0 -2.265625 -0.46875q-0.953125 -0.484375 -1.46875 -1.34375q-0.5 -0.875 -0.5 -2.078125q0 -1.5625 0.65625 -2.765625q0.65625 -1.21875 1.796875 -1.921875q1.140625 -0.703125 2.578125 -0.703125q1.21875 0 2.09375 0.46875q0.890625 0.453125 1.375 1.328125q0.5 0.859375 0.5 2.078125q0 0.265625 -0.03125 0.5625q-0.03125 0.28125 -0.09375 0.546875l-7.984375 0l0.15625 -0.921875l7.265625 0l-0.5 0.34375q0.171875 -1.09375 -0.15625 -1.828125q-0.328125 -0.75 -1.015625 -1.140625q-0.6875 -0.390625 -1.640625 -0.390625q-1.109375 0 -1.984375 0.546875q-0.859375 0.546875 -1.34375 1.515625q-0.484375 0.953125 -0.484375 2.234375q0 1.359375 0.78125 2.109375q0.796875 0.734375 2.375 0.734375q0.921875 0 1.703125 -0.296875q0.78125 -0.3125 1.28125 -0.859375l0.546875 0.890625q-0.640625 0.640625 -1.609375 1.0q-0.953125 0.359375 -2.03125 0.359375zm6.5755157 0q-0.390625 0 -0.65625 -0.265625q-0.25 -0.265625 -0.25 -0.640625q0 -0.4375 0.296875 -0.703125q0.296875 -0.28125 0.671875 -0.28125q0.390625 0 0.640625 0.25q0.25 0.25 0.25 0.640625q0 0.296875 -0.140625 0.515625q-0.125 0.21875 -0.359375 0.359375q-0.21875 0.125 -0.453125 0.125zm8.470398 0q-1.171875 0 -2.015625 -0.421875q-0.84375 -0.4375 -1.296875 -1.234375q-0.4375 -0.8125 -0.453125 -1.953125q0 -1.6875 0.609375 -2.953125q0.609375 -1.28125 1.71875 -2.0q1.109375 -0.71875 2.609375 -0.71875q1.1875 0 2.078125 0.46875q0.890625 0.453125 1.390625 1.328125q0.515625 0.859375 0.515625 2.046875q0 1.1875 -0.375 2.171875q-0.375 0.984375 -1.078125 1.71875q-0.703125 0.71875 -1.640625 1.140625q-0.9375 0.40625 -2.0625 0.40625zm-5.734375 3.265625l2.46875 -12.453125l1.1875 0l-0.515625 2.609375l-0.515625 1.828125l-0.1875 1.90625l-1.203125 6.109375l-1.234375 0zm5.71875 -4.359375q1.140625 0 2.015625 -0.546875q0.890625 -0.546875 1.40625 -1.515625q0.515625 -0.96875 0.515625 -2.203125q0 -1.359375 -0.78125 -2.09375q-0.78125 -0.75 -2.21875 -0.75q-1.125 0 -2.03125 0.5625q-0.890625 0.546875 -1.40625 1.515625q-0.5 0.953125 -0.5 2.203125q0 1.328125 0.78125 2.078125q0.78125 0.75 2.21875 0.75zm5.9727783 4.453125q-0.640625 0 -1.21875 -0.21875q-0.59375 -0.21875 -0.9375 -0.59375l0.65625 -0.90625q0.296875 0.3125 0.703125 0.484375q0.390625 0.171875 0.890625 0.171875q0.578125 0 1.078125 -0.328125q0.5 -0.3125 1.03125 -1.140625l0.921875 -1.40625l0.15625 -0.171875l5.40625 -8.4375l1.265625 0l-6.65625 10.265625q-0.578125 0.875 -1.078125 1.359375q-0.5 0.5 -1.03125 0.703125q-0.53125 0.21875 -1.1875 0.21875zm2.90625 -3.1875l-2.328125 -9.359375l1.25 0l2.03125 8.34375l-0.953125 1.015625z" fill-rule="nonzero"/><path fill="#cccccc" d="m18.729658 7.3254595l76.88189 0l0 32.850395l-76.88189 0z" fill-rule="evenodd"/><path fill="#000000" d="m35.25764 29.890656l0 -10.234375q0 -1.21875 0.703125 -1.953125q0.71875 -0.75 2.046875 -0.75q0.53125 0 1.015625 0.140625q0.484375 0.125 0.8125 0.421875l-0.421875 0.921875q-0.25 -0.21875 -0.609375 -0.328125q-0.34375 -0.125 -0.734375 -0.125q-0.78125 0 -1.203125 0.4375q-0.40625 0.4375 -0.40625 1.28125l0 1.390625l0.03125 0.5625l0 8.234375l-1.234375 0zm-1.625 -8.078125l0 -1.015625l5.625 0l0 1.015625l-5.625 0zm7.296875 8.078125l0 -9.09375l1.234375 0l0 9.09375l-1.234375 0zm0.625 -11.109375q-0.390625 0 -0.65625 -0.25q-0.25 -0.265625 -0.25 -0.625q0 -0.375 0.25 -0.625q0.265625 -0.25 0.65625 -0.25q0.375 0 0.625 0.25q0.265625 0.234375 0.265625 0.59375q0 0.390625 -0.25 0.65625q-0.25 0.25 -0.640625 0.25zm4.052765 11.109375l0 -12.859375l1.234375 0l0 12.859375l-1.234375 0zm8.520615 0.09375q-1.421875 0 -2.5 -0.59375q-1.0625 -0.609375 -1.671875 -1.65625q-0.609375 -1.046875 -0.609375 -2.40625q0 -1.34375 0.578125 -2.375q0.578125 -1.046875 1.59375 -1.640625q1.015625 -0.609375 2.28125 -0.609375q1.28125 0 2.28125 0.59375q1.0 0.578125 1.5625 1.625q0.578125 1.046875 0.578125 2.40625q0 0.09375 -0.015625 0.1875q0 0.09375 0 0.203125l-7.921875 0l0 -0.921875l7.265625 0l-0.484375 0.359375q0 -0.984375 -0.4375 -1.75q-0.421875 -0.78125 -1.15625 -1.203125q-0.71875 -0.4375 -1.671875 -0.4375q-0.9375 0 -1.6875 0.4375q-0.734375 0.421875 -1.15625 1.203125q-0.40625 0.78125 -0.40625 1.78125l0 0.203125q0 1.03125 0.453125 1.828125q0.453125 0.78125 1.28125 1.234375q0.828125 0.4375 1.875 0.4375q0.84375 0 1.5625 -0.296875q0.71875 -0.296875 1.234375 -0.90625l0.6875 0.796875q-0.609375 0.734375 -1.515625 1.125q-0.90625 0.375 -2.0 0.375zm4.7839966 0.734375l0 -0.828125l8.656246 0l0 0.828125l-8.656246 0zm9.7006035 -0.828125l5.546875 -12.125l1.265625 0l5.546875 12.125l-1.359375 0l-5.09375 -11.390625l0.53125 0l-5.09375 11.390625l-1.34375 0zm2.1875 -3.234375l0.375 -1.046875l7.0625 0l0.375 1.046875l-7.8125 0z" fill-rule="nonzero"/><path fill="#000000" fill-opacity="0.0" d="m57.170605 40.175854l0.062992096 24.472439" fill-rule="evenodd"/><path stroke="#000000" stroke-width="1.0" stroke-linejoin="round" stroke-linecap="butt" d="m57.170605 40.175854l0.047546387 18.472462" fill-rule="evenodd"/><path fill="#000000" stroke="#000000" stroke-width="1.0" stroke-linecap="butt" d="m55.566425 58.652565l1.6634064 4.5338326l1.640049 -4.5423355z" fill-rule="evenodd"/><path fill="#cccccc" d="m117.08924 7.3254595l76.88189 0l0 32.850395l-76.88189 0z" fill-rule="evenodd"/><path fill="#000000" d="m133.53932 29.890656l0 -10.234375q0 -1.21875 0.703125 -1.953125q0.71875 -0.75 2.046875 -0.75q0.53125 0 1.015625 0.140625q0.484375 0.125 0.8125 0.421875l-0.421875 0.921875q-0.25 -0.21875 -0.609375 -0.328125q-0.34375 -0.125 -0.734375 -0.125q-0.78125 0 -1.203125 0.4375q-0.40625 0.4375 -0.40625 1.28125l0 1.390625l0.03125 0.5625l0 8.234375l-1.234375 0zm-1.625 -8.078125l0 -1.015625l5.625 0l0 1.015625l-5.625 0zm7.296875 8.078125l0 -9.09375l1.234375 0l0 9.09375l-1.234375 0zm0.625 -11.109375q-0.390625 0 -0.65625 -0.25q-0.25 -0.265625 -0.25 -0.625q0 -0.375 0.25 -0.625q0.265625 -0.25 0.65625 -0.25q0.375 0 0.625 0.25q0.265625 0.234375 0.265625 0.59375q0 0.390625 -0.25 0.65625q-0.25 0.25 -0.640625 0.25zm4.052765 11.109375l0 -12.859375l1.234375 0l0 12.859375l-1.234375 0zm8.520615 0.09375q-1.421875 0 -2.5 -0.59375q-1.0625 -0.609375 -1.671875 -1.65625q-0.609375 -1.046875 -0.609375 -2.40625q0 -1.34375 0.578125 -2.375q0.578125 -1.046875 1.59375 -1.640625q1.015625 -0.609375 2.28125 -0.609375q1.28125 0 2.28125 0.59375q1.0 0.578125 1.5625 1.625q0.578125 1.046875 0.578125 2.40625q0 0.09375 -0.015625 0.1875q0 0.09375 0 0.203125l-7.921875 0l0 -0.921875l7.265625 0l-0.484375 0.359375q0 -0.984375 -0.4375 -1.75q-0.421875 -0.78125 -1.15625 -1.203125q-0.71875 -0.4375 -1.671875 -0.4375q-0.9375 0 -1.6875 0.4375q-0.734375 0.421875 -1.15625 1.203125q-0.40625 0.78125 -0.40625 1.78125l0 0.203125q0 1.03125 0.453125 1.828125q0.453125 0.78125 1.28125 1.234375q0.828125 0.4375 1.875 0.4375q0.84375 0 1.5625 -0.296875q0.71875 -0.296875 1.234375 -0.90625l0.6875 0.796875q-0.609375 0.734375 -1.515625 1.125q-0.90625 0.375 -2.0 0.375zm4.7839966 0.734375l0 -0.828125l8.65625 0l0 0.828125l-8.65625 0zm11.152771 -0.828125l0 -12.125l5.234375 0q2.03125 0 3.140625 0.8125q1.125 0.8125 1.125 2.296875q0 1.0 -0.46875 1.671875q-0.453125 0.671875 -1.25 1.015625q-0.78125 0.34375 -1.703125 0.34375l0.28125 -0.40625q1.171875 0 2.0 0.359375q0.84375 0.34375 1.3125 1.046875q0.46875 0.703125 0.46875 1.75q0 1.53125 -1.140625 2.390625q-1.125 0.84375 -3.40625 0.84375l-5.59375 0zm1.28125 -1.0625l4.28125 0q1.59375 0 2.4375 -0.546875q0.859375 -0.546875 0.859375 -1.734375q0 -1.171875 -0.859375 -1.71875q-0.84375 -0.546875 -2.4375 -0.546875l-4.40625 0l0 -1.0625l4.0 0q1.453125 0 2.25 -0.546875q0.8125 -0.5625 0.8125 -1.65625q0 -1.109375 -0.8125 -1.65625q-0.796875 -0.546875 -2.25 -0.546875l-3.875 0l0 10.015625z" fill-rule="nonzero"/><path fill="#cccccc" d="m215.44882 7.3254595l76.8819 0l0 32.850395l-76.8819 0z" fill-rule="evenodd"/><path fill="#000000" d="m232.72215 29.890656l0 -10.234375q0 -1.21875 0.703125 -1.953125q0.71875 -0.75 2.046875 -0.75q0.53125 0 1.015625 0.140625q0.484375 0.125 0.8125 0.421875l-0.421875 0.921875q-0.25 -0.21875 -0.609375 -0.328125q-0.34375 -0.125 -0.734375 -0.125q-0.78125 0 -1.203125 0.4375q-0.40625 0.4375 -0.40625 1.28125l0 1.390625l0.03125 0.5625l0 8.234375l-1.234375 0zm-1.625 -8.078125l0 -1.015625l5.625 0l0 1.015625l-5.625 0zm7.296875 8.078125l0 -9.09375l1.234375 0l0 9.09375l-1.234375 0zm0.625 -11.109375q-0.390625 0 -0.65625 -0.25q-0.25 -0.265625 -0.25 -0.625q0 -0.375 0.25 -0.625q0.265625 -0.25 0.65625 -0.25q0.375 0 0.625 0.25q0.265625 0.234375 0.265625 0.59375q0 0.390625 -0.25 0.65625q-0.25 0.25 -0.640625 0.25zm4.052765 11.109375l0 -12.859375l1.234375 0l0 12.859375l-1.234375 0zm8.520615 0.09375q-1.421875 0 -2.5 -0.59375q-1.0625 -0.609375 -1.671875 -1.65625q-0.609375 -1.046875 -0.609375 -2.40625q0 -1.34375 0.578125 -2.375q0.578125 -1.046875 1.59375 -1.640625q1.015625 -0.609375 2.28125 -0.609375q1.28125 0 2.28125 0.59375q1.0 0.578125 1.5625 1.625q0.578125 1.046875 0.578125 2.40625q0 0.09375 -0.015625 0.1875q0 0.09375 0 0.203125l-7.921875 0l0 -0.921875l7.265625 0l-0.484375 0.359375q0 -0.984375 -0.4375 -1.75q-0.421875 -0.78125 -1.15625 -1.203125q-0.71875 -0.4375 -1.671875 -0.4375q-0.9375 0 -1.6875 0.4375q-0.734375 0.421875 -1.15625 1.203125q-0.40625 0.78125 -0.40625 1.78125l0 0.203125q0 1.03125 0.453125 1.828125q0.453125 0.78125 1.28125 1.234375q0.828125 0.4375 1.875 0.4375q0.84375 0 1.5625 -0.296875q0.71875 -0.296875 1.234375 -0.90625l0.6875 0.796875q-0.609375 0.734375 -1.515625 1.125q-0.90625 0.375 -2.0 0.375zm4.7839966 0.734375l0 -0.828125l8.65625 0l0 0.828125l-8.65625 0zm15.394012 -0.71875q-1.375 0 -2.546875 -0.453125q-1.15625 -0.46875 -2.0 -1.296875q-0.84375 -0.84375 -1.328125 -1.96875q-0.46875 -1.125 -0.46875 -2.453125q0 -1.34375 0.46875 -2.46875q0.484375 -1.125 1.328125 -1.953125q0.859375 -0.828125 2.015625 -1.28125q1.171875 -0.46875 2.546875 -0.46875q1.3125 0 2.46875 0.453125q1.171875 0.4375 1.96875 1.3125l-0.828125 0.8125q-0.734375 -0.765625 -1.640625 -1.09375q-0.90625 -0.34375 -1.9375 -0.34375q-1.09375 0 -2.03125 0.375q-0.9375 0.375 -1.625 1.0625q-0.6875 0.6875 -1.078125 1.59375q-0.390625 0.90625 -0.390625 2.0q0 1.09375 0.390625 2.0q0.390625 0.90625 1.078125 1.59375q0.6875 0.6875 1.625 1.0625q0.9375 0.359375 2.03125 0.359375q1.03125 0 1.9375 -0.34375q0.90625 -0.34375 1.640625 -1.109375l0.828125 0.8125q-0.796875 0.890625 -1.96875 1.34375q-1.15625 0.453125 -2.484375 0.453125z" fill-rule="nonzero"/><path fill="#cccccc" d="m68.00525 136.94751l76.8819 0l0 32.850388l-76.8819 0z" fill-rule="evenodd"/><path fill="#000000" d="m83.83153 159.51271l0 -10.234375q0 -1.21875 0.703125 -1.953125q0.71875 -0.75 2.046875 -0.75q0.53125 0 1.015625 0.140625q0.484375 0.125 0.8125 0.421875l-0.421875 0.921875q-0.25 -0.21875 -0.609375 -0.328125q-0.34375 -0.125 -0.734375 -0.125q-0.78125 0 -1.203125 0.4375q-0.40625 0.4375 -0.40625 1.28125l0 1.390625l0.03125 0.5625l0 8.234375l-1.234375 0zm-1.625 -8.078125l0 -1.015625l5.625 0l0 1.015625l-5.625 0zm7.296875 8.078125l0 -9.09375l1.234375 0l0 9.09375l-1.234375 0zm0.625 -11.109375q-0.390625 0 -0.65625 -0.25q-0.25 -0.265625 -0.25 -0.625q0 -0.375 0.25 -0.625q0.265625 -0.25 0.65625 -0.25q0.375 0 0.625 0.25q0.265625 0.234375 0.265625 0.59375q0 0.390625 -0.25 0.65625q-0.25 0.25 -0.640625 0.25zm4.052765 11.109375l0 -12.859375l1.234375 0l0 12.859375l-1.234375 0zm8.520615 0.09375q-1.421875 0 -2.5 -0.59375q-1.0625 -0.609375 -1.671875 -1.65625q-0.609375 -1.046875 -0.609375 -2.40625q0 -1.34375 0.578125 -2.375q0.578125 -1.046875 1.59375 -1.640625q1.015625 -0.609375 2.28125 -0.609375q1.28125 0 2.28125 0.59375q1.0 0.578125 1.5625 1.625q0.578125 1.046875 0.578125 2.40625q0 0.09375 -0.015625 0.1875q0 0.09375 0 0.203125l-7.921875 0l0 -0.921875l7.265625 0l-0.484375 0.359375q0 -0.984375 -0.4375 -1.75q-0.421875 -0.78125 -1.15625 -1.203125q-0.71875 -0.4375 -1.671875 -0.4375q-0.9375 0 -1.6875 0.4375q-0.734375 0.421875 -1.15625 1.203125q-0.40625 0.78125 -0.40625 1.78125l0 0.203125q0 1.03125 0.453125 1.828125q0.453125 0.78125 1.28125 1.234375q0.828125 0.4375 1.875 0.4375q0.84375 0 1.5625 -0.296875q0.71875 -0.296875 1.234375 -0.90625l0.6875 0.796875q-0.609375 0.734375 -1.515625 1.125q-0.90625 0.375 -2.0 0.375zm4.7839966 0.734375l0 -0.828125l8.65625 0l0 0.828125l-8.65625 0zm11.152771 -0.828125l0 -12.125l4.9375 0q1.953125 0 3.40625 0.765625q1.46875 0.765625 2.28125 2.140625q0.8125 1.375 0.8125 3.15625q0 1.78125 -0.8125 3.15625q-0.8125 1.359375 -2.28125 2.140625q-1.453125 0.765625 -3.40625 0.765625l-4.9375 0zm1.28125 -1.109375l3.59375 0q1.609375 0 2.796875 -0.625q1.1875 -0.640625 1.84375 -1.75q0.65625 -1.125 0.65625 -2.578125q0 -1.46875 -0.65625 -2.578125q-0.65625 -1.109375 -1.84375 -1.734375q-1.1875 -0.640625 -2.796875 -0.640625l-3.59375 0l0 9.90625z" fill-rule="nonzero"/><path fill="#d9ead3" d="m68.00525 201.12921l0 0c0 -3.7670288 3.0537796 -6.820816 6.8208084 -6.820816l210.67334 0c1.8089905 0 3.5439148 0.7186279 4.823059 1.9977722c1.2791443 1.2791443 1.9977722 3.0140533 1.9977722 4.823044l0 34.106415c0 3.7670288 -3.0538025 6.820801 -6.8208313 6.820801l-210.67334 0c-3.7670288 0 -6.8208084 -3.053772 -6.8208084 -6.820801z" fill-rule="evenodd"/><path fill="#000000" d="m151.1032 214.71179q-1.46875 0 -2.796875 -0.46875q-1.328125 -0.484375 -2.0625 -1.21875l0.546875 -1.078125q0.6875 0.671875 1.84375 1.140625q1.171875 0.453125 2.46875 0.453125q1.21875 0 1.984375 -0.296875q0.78125 -0.3125 1.140625 -0.828125q0.375 -0.53125 0.375 -1.171875q0 -0.765625 -0.4375 -1.234375q-0.4375 -0.46875 -1.15625 -0.734375q-0.703125 -0.265625 -1.5625 -0.46875q-0.859375 -0.203125 -1.71875 -0.4375q-0.859375 -0.234375 -1.578125 -0.625q-0.703125 -0.390625 -1.15625 -1.03125q-0.4375 -0.65625 -0.4375 -1.703125q0 -0.96875 0.515625 -1.78125q0.515625 -0.8125 1.578125 -1.296875q1.0625 -0.5 2.71875 -0.5q1.109375 0 2.1875 0.3125q1.078125 0.296875 1.875 0.84375l-0.46875 1.109375q-0.84375 -0.5625 -1.796875 -0.828125q-0.9375 -0.265625 -1.8125 -0.265625q-1.171875 0 -1.9375 0.328125q-0.765625 0.3125 -1.125 0.84375q-0.359375 0.53125 -0.359375 1.203125q0 0.765625 0.4375 1.234375q0.4375 0.46875 1.15625 0.734375q0.71875 0.25 1.5625 0.453125q0.859375 0.203125 1.703125 0.453125q0.859375 0.234375 1.578125 0.625q0.71875 0.375 1.15625 1.015625q0.4375 0.625 0.4375 1.65625q0 0.953125 -0.53125 1.765625q-0.515625 0.8125 -1.59375 1.3125q-1.0625 0.484375 -2.734375 0.484375zm10.676727 -0.015625q-1.375 0 -2.125 -0.75q-0.734375 -0.75 -0.734375 -2.109375l0 -9.1875l1.3125 0l0 9.125q0 0.84375 0.4375 1.3125q0.4375 0.46875 1.265625 0.46875q0.875 0 1.453125 -0.5l0.46875 0.953125q-0.390625 0.34375 -0.953125 0.515625q-0.546875 0.171875 -1.125 0.171875zm-4.625 -8.78125l0 -1.109375l6.0625 0l0 1.109375l-6.0625 0zm15.246307 8.6875l0 -2.171875l-0.0625 -0.34375l0 -3.625q0 -1.25 -0.703125 -1.921875q-0.6875 -0.671875 -2.0625 -0.671875q-0.953125 0 -1.8125 0.328125q-0.859375 0.3125 -1.453125 0.828125l-0.609375 -0.984375q0.75 -0.640625 1.796875 -0.984375q1.046875 -0.34375 2.203125 -0.34375q1.90625 0 2.9375 0.953125q1.03125 0.9375 1.03125 2.859375l0 6.078125l-1.265625 0zm-3.375 0.09375q-1.109375 0 -1.921875 -0.359375q-0.796875 -0.375 -1.234375 -1.015625q-0.421875 -0.640625 -0.421875 -1.484375q0 -0.765625 0.359375 -1.390625q0.359375 -0.625 1.1875 -1.0q0.84375 -0.390625 2.234375 -0.390625l3.375 0l0 1.0l-3.34375 0q-1.40625 0 -1.96875 0.5q-0.546875 0.5 -0.546875 1.25q0 0.84375 0.65625 1.34375q0.65625 0.5 1.828125 0.5q1.125 0 1.9375 -0.515625q0.8125 -0.515625 1.171875 -1.484375l0.3125 0.921875q-0.375 0.96875 -1.3125 1.546875q-0.921875 0.578125 -2.3125 0.578125zm12.429062 3.625q-1.34375 0 -2.578125 -0.40625q-1.234375 -0.390625 -2.0 -1.109375l0.671875 -1.015625q0.6875 0.625 1.703125 0.984375q1.015625 0.359375 2.15625 0.359375q1.875 0 2.75 -0.875q0.875 -0.859375 0.875 -2.6875l0 -2.4375l0.1875 -1.6875l-0.140625 -1.671875l0 -2.96875l1.28125 0l0 8.609375q0 2.53125 -1.25 3.71875q-1.234375 1.1875 -3.65625 1.1875zm-0.25 -4.09375q-1.390625 0 -2.515625 -0.59375q-1.125 -0.609375 -1.765625 -1.6875q-0.640625 -1.09375 -0.640625 -2.5q0 -1.390625 0.640625 -2.453125q0.640625 -1.078125 1.765625 -1.671875q1.125 -0.609375 2.515625 -0.609375q1.3125 0 2.34375 0.546875q1.046875 0.53125 1.65625 1.609375q0.625 1.0625 0.625 2.578125q0 1.53125 -0.625 2.59375q-0.609375 1.0625 -1.65625 1.625q-1.03125 0.5625 -2.34375 0.5625zm0.125 -1.171875q1.09375 0 1.921875 -0.453125q0.84375 -0.46875 1.328125 -1.265625q0.484375 -0.8125 0.484375 -1.890625q0 -1.0625 -0.484375 -1.859375q-0.484375 -0.796875 -1.328125 -1.25q-0.828125 -0.46875 -1.921875 -0.46875q-1.0625 0 -1.90625 0.46875q-0.84375 0.453125 -1.328125 1.25q-0.46875 0.796875 -0.46875 1.859375q0 1.078125 0.46875 1.890625q0.484375 0.796875 1.328125 1.265625q0.84375 0.453125 1.90625 0.453125zm12.873291 1.640625q-1.515625 0 -2.671875 -0.640625q-1.15625 -0.640625 -1.8125 -1.765625q-0.65625 -1.140625 -0.65625 -2.59375q0 -1.453125 0.625 -2.5625q0.625 -1.125 1.71875 -1.765625q1.09375 -0.65625 2.453125 -0.65625q1.375 0 2.4375 0.625q1.078125 0.625 1.6875 1.765625q0.625 1.125 0.625 2.59375q0 0.09375 -0.015625 0.203125q0 0.09375 0 0.203125l-8.53125 0l0 -0.984375l7.828125 0l-0.53125 0.390625q0 -1.0625 -0.453125 -1.890625q-0.453125 -0.828125 -1.25 -1.296875q-0.78125 -0.46875 -1.796875 -0.46875q-1.015625 0 -1.8125 0.46875q-0.796875 0.46875 -1.25 1.3125q-0.453125 0.828125 -0.453125 1.90625l0 0.21875q0 1.109375 0.5 1.96875q0.5 0.84375 1.375 1.328125q0.890625 0.46875 2.03125 0.46875q0.890625 0 1.65625 -0.3125q0.78125 -0.328125 1.34375 -0.984375l0.75 0.859375q-0.65625 0.78125 -1.640625 1.203125q-0.96875 0.40625 -2.15625 0.40625zm10.890686 -0.09375l0 -0.953125l5.421875 -5.3125q0.75 -0.734375 1.125 -1.28125q0.375 -0.546875 0.5 -1.03125q0.125 -0.484375 0.125 -0.921875q0 -1.140625 -0.78125 -1.78125q-0.765625 -0.65625 -2.28125 -0.65625q-1.15625 0 -2.046875 0.359375q-0.875 0.34375 -1.515625 1.09375l-0.953125 -0.828125q0.765625 -0.890625 1.953125 -1.375q1.203125 -0.484375 2.6875 -0.484375q1.3125 0 2.28125 0.421875q0.984375 0.421875 1.515625 1.21875q0.53125 0.796875 0.53125 1.890625q0 0.625 -0.1875 1.25q-0.171875 0.609375 -0.640625 1.296875q-0.453125 0.671875 -1.328125 1.53125l-4.96875 4.890625l-0.375 -0.515625l8.09375 0l0 1.1875l-9.15625 0z" fill-rule="nonzero"/><path fill="#000000" d="m126.44048 235.41617q-1.109375 0 -2.109375 -0.3125q-0.984375 -0.3125 -1.515625 -0.796875l0.59375 -0.984375q0.515625 0.46875 1.359375 0.75q0.859375 0.265625 1.796875 0.265625q1.296875 0 1.9999924 -0.4375q0.703125 -0.4375 0.703125 -1.1875q0 -0.53125 -0.375 -0.796875q-0.375 -0.265625 -0.9687424 -0.40625q-0.59375 -0.15625 -1.25 -0.296875q-0.65625 -0.140625 -1.25 -0.34375q-0.578125 -0.21875 -0.953125 -0.671875q-0.375 -0.453125 -0.375 -1.21875q0 -0.859375 0.484375 -1.5q0.5 -0.640625 1.375 -0.984375q0.890625 -0.359375 2.0937424 -0.359375q0.859375 0 1.703125 0.234375q0.859375 0.21875 1.375 0.625l-0.515625 0.984375q-0.53125 -0.421875 -1.25 -0.59375q-0.703125 -0.1875 -1.4218674 -0.1875q-1.265625 0 -1.953125 0.46875q-0.671875 0.453125 -0.671875 1.1875q0 0.53125 0.359375 0.8125q0.375 0.265625 0.96875 0.421875q0.59375 0.15625 1.25 0.296875q0.6718674 0.125 1.2499924 0.359375q0.59375 0.21875 0.953125 0.640625q0.375 0.421875 0.375 1.1875q0 0.890625 -0.5 1.53125q-0.5 0.625 -1.421875 0.96875q-0.9062424 0.34375 -2.1093674 0.34375zm9.924812 0q-1.296875 0 -2.25 -0.46875q-0.9375 -0.484375 -1.453125 -1.34375q-0.5 -0.875 -0.5 -2.0625q0 -1.5625 0.671875 -2.78125q0.671875 -1.21875 1.875 -1.921875q1.203125 -0.703125 2.75 -0.703125q1.265625 0 2.171875 0.46875q0.90625 0.453125 1.40625 1.359375l-1.03125 0.59375q-0.375 -0.6875 -1.046875 -1.015625q-0.671875 -0.328125 -1.609375 -0.328125q-1.140625 0 -2.046875 0.5625q-0.890625 0.546875 -1.40625 1.515625q-0.515625 0.953125 -0.515625 2.203125q0 1.328125 0.78125 2.078125q0.796875 0.75 2.25 0.75q0.890625 0 1.640625 -0.34375q0.75 -0.34375 1.234375 -0.984375l0.890625 0.6875q-0.59375 0.8125 -1.625 1.28125q-1.015625 0.453125 -2.1875 0.453125zm5.6306763 -0.09375l1.796875 -9.09375l1.1875 0l-0.515625 2.6875l-0.140625 -0.46875q0.609375 -1.203125 1.59375 -1.75q1.0 -0.5625 2.484375 -0.5625l-0.21875 1.203125q-0.09375 0 -0.171875 0q-0.0625 -0.015625 -0.171875 -0.015625q-1.453125 0 -2.40625 0.84375q-0.9375 0.828125 -1.28125 2.53125l-0.921875 4.625l-1.234375 0zm6.80986 0l1.796875 -9.09375l1.234375 0l-1.796875 9.09375l-1.234375 0zm2.953125 -11.109375q-0.375 0 -0.609375 -0.234375q-0.234375 -0.25 -0.234375 -0.578125q0 -0.375 0.265625 -0.65625q0.28125 -0.28125 0.6875 -0.28125q0.375 0 0.609375 0.234375q0.25 0.21875 0.25 0.5625q0 0.421875 -0.28125 0.6875q-0.28125 0.265625 -0.6875 0.265625zm6.7706146 11.203125q-1.171875 0 -2.015625 -0.421875q-0.84375 -0.4375 -1.296875 -1.234375q-0.4375 -0.8125 -0.453125 -1.953125q0 -1.6875 0.609375 -2.953125q0.609375 -1.28125 1.71875 -2.0q1.109375 -0.71875 2.609375 -0.71875q1.1875 0 2.078125 0.46875q0.890625 0.453125 1.390625 1.328125q0.515625 0.859375 0.515625 2.046875q0 1.1875 -0.375 2.171875q-0.375 0.984375 -1.078125 1.71875q-0.703125 0.71875 -1.640625 1.140625q-0.9375 0.40625 -2.0625 0.40625zm-5.734375 3.265625l2.46875 -12.453125l1.1875 0l-0.515625 2.609375l-0.515625 1.828125l-0.1875 1.90625l-1.203125 6.109375l-1.234375 0zm5.71875 -4.359375q1.140625 0 2.015625 -0.546875q0.890625 -0.546875 1.40625 -1.515625q0.515625 -0.96875 0.515625 -2.203125q0 -1.359375 -0.78125 -2.09375q-0.78125 -0.75 -2.21875 -0.75q-1.125 0 -2.03125 0.5625q-0.890625 0.546875 -1.40625 1.515625q-0.5 0.953125 -0.5 2.203125q0 1.328125 0.78125 2.078125q0.78125 0.75 2.21875 0.75zm9.592148 1.09375q-0.78125 0 -1.34375 -0.34375q-0.546875 -0.34375 -0.765625 -0.96875q-0.203125 -0.625 -0.03125 -1.484375l1.65625 -8.40625l1.234375 0l-1.65625 8.359375q-0.1875 0.84375 0.109375 1.3125q0.3125 0.46875 1.125 0.46875q0.390625 0 0.75 -0.109375q0.359375 -0.125 0.65625 -0.359375l0.296875 0.9375q-0.4375 0.328125 -0.96875 0.46875q-0.53125 0.125 -1.0625 0.125zm-2.703125 -8.171875l0.203125 -1.015625l5.625 0l-0.203125 1.015625l-5.625 0zm5.5637054 8.90625l0.171875 -0.828125l8.671875 0l-0.171875 0.828125l-8.671875 0zm13.098602 -0.734375q-0.78125 0 -1.34375 -0.34375q-0.546875 -0.34375 -0.765625 -0.96875q-0.203125 -0.625 -0.03125 -1.484375l1.65625 -8.40625l1.234375 0l-1.65625 8.359375q-0.1875 0.84375 0.109375 1.3125q0.3125 0.46875 1.125 0.46875q0.390625 0 0.75 -0.109375q0.359375 -0.125 0.65625 -0.359375l0.296875 0.9375q-0.4375 0.328125 -0.96875 0.46875q-0.53125 0.125 -1.0625 0.125zm-2.703125 -8.171875l0.203125 -1.015625l5.625 0l-0.203125 1.015625l-5.625 0zm8.627457 8.078125l-1.78125 -9.09375l1.125 0l1.609375 8.4375l-0.546875 0l4.8125 -8.4375l1.046875 0l1.65625 8.4375l-0.546875 0l4.75 -8.4375l1.1875 0l-5.140625 9.09375l-1.203125 0l-1.625 -7.9375l0.375 0l-4.53125 7.9375l-1.1875 0zm17.080719 0.09375q-1.265625 0 -2.203125 -0.46875q-0.921875 -0.484375 -1.4375 -1.34375q-0.5 -0.875 -0.5 -2.0625q0 -1.5625 0.671875 -2.78125q0.671875 -1.21875 1.859375 -1.921875q1.203125 -0.703125 2.734375 -0.703125q1.265625 0 2.1875 0.46875q0.921875 0.46875 1.4375 1.34375q0.515625 0.859375 0.515625 2.03125q0 1.5625 -0.6875 2.796875q-0.671875 1.21875 -1.859375 1.9375q-1.1875 0.703125 -2.71875 0.703125zm0.078125 -1.09375q1.140625 0 2.03125 -0.546875q0.90625 -0.546875 1.40625 -1.515625q0.515625 -0.96875 0.515625 -2.203125q0 -1.359375 -0.796875 -2.09375q-0.78125 -0.75 -2.203125 -0.75q-1.125 0 -2.03125 0.5625q-0.890625 0.546875 -1.40625 1.515625q-0.515625 0.953125 -0.515625 2.203125q0 1.328125 0.78125 2.078125q0.796875 0.75 2.21875 0.75zm6.7296753 1.09375q-0.390625 0 -0.65625 -0.265625q-0.25 -0.265625 -0.25 -0.640625q0 -0.4375 0.296875 -0.703125q0.296875 -0.28125 0.671875 -0.28125q0.390625 0 0.640625 0.25q0.25 0.25 0.25 0.640625q0 0.296875 -0.140625 0.515625q-0.125 0.21875 -0.359375 0.359375q-0.21875 0.125 -0.453125 0.125zm8.470413 0q-1.171875 0 -2.015625 -0.421875q-0.84375 -0.4375 -1.296875 -1.234375q-0.4375 -0.8125 -0.453125 -1.953125q0 -1.6875 0.609375 -2.953125q0.609375 -1.28125 1.71875 -2.0q1.109375 -0.71875 2.609375 -0.71875q1.1875 0 2.078125 0.46875q0.890625 0.453125 1.390625 1.328125q0.515625 0.859375 0.515625 2.046875q0 1.1875 -0.375 2.171875q-0.375 0.984375 -1.078125 1.71875q-0.703125 0.71875 -1.640625 1.140625q-0.9375 0.40625 -2.0625 0.40625zm-5.734375 3.265625l2.46875 -12.453125l1.1875 0l-0.515625 2.609375l-0.515625 1.828125l-0.1875 1.90625l-1.203125 6.109375l-1.234375 0zm5.71875 -4.359375q1.140625 0 2.015625 -0.546875q0.890625 -0.546875 1.40625 -1.515625q0.515625 -0.96875 0.515625 -2.203125q0 -1.359375 -0.78125 -2.09375q-0.78125 -0.75 -2.21875 -0.75q-1.125 0 -2.03125 0.5625q-0.890625 0.546875 -1.40625 1.515625q-0.5 0.953125 -0.5 2.203125q0 1.328125 0.78125 2.078125q0.78125 0.75 2.21875 0.75zm5.9727783 4.453125q-0.640625 0 -1.21875 -0.21875q-0.59375 -0.21875 -0.9375 -0.59375l0.65625 -0.90625q0.296875 0.3125 0.703125 0.484375q0.390625 0.171875 0.890625 0.171875q0.578125 0 1.078125 -0.328125q0.5 -0.3125 1.03125 -1.140625l0.921875 -1.40625l0.15625 -0.171875l5.40625 -8.4375l1.265625 0l-6.65625 10.265625q-0.578125 0.875 -1.078125 1.359375q-0.5 0.5 -1.03125 0.703125q-0.53125 0.21875 -1.1875 0.21875zm2.90625 -3.1875l-2.328125 -9.359375l1.25 0l2.03125 8.34375l-0.953125 1.015625z" fill-rule="nonzero"/><path fill="#000000" fill-opacity="0.0" d="m155.49869 40.175854l0.06298828 24.472439" fill-rule="evenodd"/><path stroke="#000000" stroke-width="1.0" stroke-linejoin="round" stroke-linecap="butt" d="m155.49869 40.175854l0.047546387 18.472462" fill-rule="evenodd"/><path fill="#000000" stroke="#000000" stroke-width="1.0" stroke-linecap="butt" d="m153.89452 58.652565l1.6634064 4.5338326l1.6400452 -4.5423355z" fill-rule="evenodd"/><path fill="#000000" fill-opacity="0.0" d="m106.414696 112.43569l0.06299591 24.47245" fill-rule="evenodd"/><path stroke="#000000" stroke-width="1.0" stroke-linejoin="round" stroke-linecap="butt" d="m106.414696 112.43569l0.047554016 18.472466" fill-rule="evenodd"/><path fill="#000000" stroke="#000000" stroke-width="1.0" stroke-linecap="butt" d="m104.81052 130.91241l1.663414 4.5338287l1.6400452 -4.542343z" fill-rule="evenodd"/><path fill="#cccccc" d="m141.72179 266.56955l76.88188 0l0 32.850403l-76.88188 0z" fill-rule="evenodd"/><path fill="#000000" d="m158.90831 289.13477l0 -10.234375q0 -1.21875 0.703125 -1.953125q0.71875 -0.75 2.046875 -0.75q0.53125 0 1.015625 0.140625q0.484375 0.125 0.8125 0.421875l-0.421875 0.921875q-0.25 -0.21875 -0.609375 -0.328125q-0.34375 -0.125 -0.734375 -0.125q-0.78125 0 -1.203125 0.4375q-0.40625 0.4375 -0.40625 1.28125l0 1.390625l0.03125 0.5625l0 8.234375l-1.234375 0zm-1.625 -8.078125l0 -1.015625l5.625 0l0 1.015625l-5.625 0zm7.296875 8.078125l0 -9.09375l1.234375 0l0 9.09375l-1.234375 0zm0.625 -11.109375q-0.390625 0 -0.65625 -0.25q-0.25 -0.265625 -0.25 -0.625q0 -0.375 0.25 -0.625q0.265625 -0.25 0.65625 -0.25q0.375 0 0.625 0.25q0.265625 0.234375 0.265625 0.59375q0 0.390625 -0.25 0.65625q-0.25 0.25 -0.640625 0.25zm4.052765 11.109375l0 -12.859375l1.234375 0l0 12.859375l-1.234375 0zm8.520615 0.09375q-1.421875 0 -2.5 -0.59375q-1.0625 -0.609375 -1.671875 -1.65625q-0.609375 -1.046875 -0.609375 -2.40625q0 -1.34375 0.578125 -2.375q0.578125 -1.046875 1.59375 -1.640625q1.015625 -0.609375 2.28125 -0.609375q1.28125 0 2.28125 0.59375q1.0 0.578125 1.5625 1.625q0.578125 1.046875 0.578125 2.40625q0 0.09375 -0.015625 0.1875q0 0.09375 0 0.203125l-7.921875 0l0 -0.921875l7.265625 0l-0.484375 0.359375q0 -0.984375 -0.4375 -1.75q-0.421875 -0.78125 -1.15625 -1.203125q-0.71875 -0.4375 -1.671875 -0.4375q-0.9375 0 -1.6875 0.4375q-0.734375 0.421875 -1.15625 1.203125q-0.40625 0.78125 -0.40625 1.78125l0 0.203125q0 1.03125 0.453125 1.828125q0.453125 0.78125 1.28125 1.234375q0.828125 0.4375 1.875 0.4375q0.84375 0 1.5625 -0.296875q0.71875 -0.296875 1.234375 -0.90625l0.6875 0.796875q-0.609375 0.734375 -1.515625 1.125q-0.90625 0.375 -2.0 0.375zm4.7839966 0.734375l0 -0.828125l8.65625 0l0 0.828125l-8.65625 0zm12.309021 -7.53125l6.40625 0l0 1.09375l-6.40625 0l0 -1.09375zm0.125 5.59375l7.296875 0l0 1.109375l-8.578125 0l0 -12.125l8.328125 0l0 1.109375l-7.046875 0l0 9.90625z" fill-rule="nonzero"/><path fill="#000000" fill-opacity="0.0" d="m106.414696 169.7979l0.06299591 24.472443" fill-rule="evenodd"/><path stroke="#000000" stroke-width="1.0" stroke-linejoin="round" stroke-linecap="butt" d="m106.414696 169.7979l0.047554016 18.472458" fill-rule="evenodd"/><path fill="#000000" stroke="#000000" stroke-width="1.0" stroke-linecap="butt" d="m104.81052 188.27461l1.663414 4.5338287l1.6400452 -4.542328z" fill-rule="evenodd"/><path fill="#000000" fill-opacity="0.0" d="m180.13124 242.05774l0.06298828 24.472443" fill-rule="evenodd"/><path stroke="#000000" stroke-width="1.0" stroke-linejoin="round" stroke-linecap="butt" d="m180.13124 242.05774l0.047546387 18.472473" fill-rule="evenodd"/><path fill="#000000" stroke="#000000" stroke-width="1.0" stroke-linecap="butt" d="m178.52705 260.53445l1.6634064 4.533844l1.6400452 -4.5423584z" fill-rule="evenodd"/><path fill="#000000" fill-opacity="0.0" d="m253.82677 40.175854l-0.18896484 153.32283" fill-rule="evenodd"/><path stroke="#000000" stroke-width="1.0" stroke-linejoin="round" stroke-linecap="butt" d="m253.82677 40.175854l-0.18156433 147.32283" fill-rule="evenodd"/><path fill="#000000" stroke="#000000" stroke-width="1.0" stroke-linecap="butt" d="m251.99345 187.49666l1.6461487 4.5401306l1.6573181 -4.5360565z" fill-rule="evenodd"/></g></svg>