<svg version="1.1" viewBox="0.0 0.0 766.1128608923884 204.9711286089239" fill="none" stroke="none" stroke-linecap="square" stroke-miterlimit="10" xmlns:xlink="http://www.w3.org/1999/xlink" xmlns="http://www.w3.org/2000/svg"><clipPath id="p.0"><path d="m0 0l766.11285 0l0 204.97113l-766.11285 0l0 -204.97113z" clip-rule="nonzero"/></clipPath><g clip-path="url(#p.0)"><path fill="#000000" fill-opacity="0.0" d="m0 0l766.11285 0l0 204.97113l-766.11285 0z" fill-rule="evenodd"/><path fill="#cfe2f3" d="m597.16797 111.062996l0 0c0 -8.349503 6.7686157 -15.118111 15.118103 -15.118111l0 0c4.0095825 0 7.8549194 1.5927963 10.6901245 4.427986c2.835205 2.8351974 4.4279785 6.6805496 4.4279785 10.6901245l0 0c0 8.349495 -6.7685547 15.118103 -15.118103 15.118103l0 0c-8.349487 0 -15.118103 -6.768608 -15.118103 -15.118103z" fill-rule="evenodd"/><path fill="#ff9900" d="m597.16797 151.17586l0 0c0 -8.349503 6.7686157 -15.118118 15.118103 -15.118118l0 0c4.0095825 0 7.8549194 1.592804 10.6901245 4.427994c2.835205 2.8351898 4.4279785 6.680542 4.4279785 10.6901245l0 0c0 8.349503 -6.7685547 15.118103 -15.118103 15.118103l0 0c-8.349487 0 -15.118103 -6.7686005 -15.118103 -15.118103z" fill-rule="evenodd"/><path fill="#000000" fill-opacity="0.0" d="m634.2152 91.67716l139.81104 0l0 38.77166l-139.81104 0z" fill-rule="evenodd"/><path fill="#000000" d="m648.29333 116.11529q-1.25 0 -2.234375 -0.546875q-0.984375 -0.5625 -1.546875 -1.515625q-0.5625 -0.96875 -0.5625 -2.21875q0 -1.265625 0.5625 -2.21875q0.5625 -0.96875 1.546875 -1.515625q0.984375 -0.546875 2.234375 -0.546875q1.0625 0 1.921875 0.421875q0.875 0.421875 1.375 1.25l-0.859375 0.578125q-0.421875 -0.640625 -1.0625 -0.9375q-0.640625 -0.3125 -1.390625 -0.3125q-0.90625 0 -1.625 0.40625q-0.71875 0.40625 -1.140625 1.140625q-0.40625 0.734375 -0.40625 1.734375q0 0.984375 0.40625 1.71875q0.421875 0.734375 1.140625 1.15625q0.71875 0.40625 1.625 0.40625q0.75 0 1.390625 -0.296875q0.640625 -0.3125 1.0625 -0.9375l0.859375 0.578125q-0.5 0.8125 -1.375 1.234375q-0.859375 0.421875 -1.921875 0.421875zm8.801514 0q-1.21875 0 -2.1875 -0.546875q-0.96875 -0.5625 -1.53125 -1.515625q-0.5625 -0.96875 -0.5625 -2.21875q0 -1.265625 0.5625 -2.21875q0.5625 -0.96875 1.515625 -1.515625q0.96875 -0.546875 2.203125 -0.546875q1.234375 0 2.203125 0.546875q0.96875 0.546875 1.515625 1.515625q0.5625 0.953125 0.5625 2.21875q0 1.25 -0.5625 2.21875q-0.546875 0.953125 -1.53125 1.515625q-0.96875 0.546875 -2.1875 0.546875zm0 -1.0q0.90625 0 1.609375 -0.40625q0.703125 -0.421875 1.109375 -1.15625q0.40625 -0.75 0.40625 -1.71875q0 -1.0 -0.40625 -1.734375q-0.40625 -0.734375 -1.109375 -1.140625q-0.703125 -0.40625 -1.59375 -0.40625q-0.90625 0 -1.609375 0.40625q-0.703125 0.40625 -1.125 1.140625q-0.40625 0.734375 -0.40625 1.734375q0 0.96875 0.40625 1.71875q0.421875 0.734375 1.125 1.15625q0.703125 0.40625 1.59375 0.40625zm9.938293 1.0q-1.1875 0 -2.140625 -0.546875q-0.953125 -0.546875 -1.5 -1.5q-0.546875 -0.96875 -0.546875 -2.234375q0 -1.28125 0.546875 -2.234375q0.546875 -0.96875 1.5 -1.5q0.953125 -0.546875 2.140625 -0.546875q1.109375 0 1.984375 0.5q0.875 0.5 1.390625 1.453125q0.515625 0.953125 0.515625 2.328125q0 1.359375 -0.515625 2.328125q-0.5 0.953125 -1.375 1.453125q-0.875 0.5 -2.0 0.5zm0.09375 -1.0q0.890625 0 1.59375 -0.40625q0.71875 -0.421875 1.125 -1.15625q0.40625 -0.75 0.40625 -1.71875q0 -1.0 -0.40625 -1.734375q-0.40625 -0.734375 -1.125 -1.140625q-0.703125 -0.40625 -1.59375 -0.40625q-0.890625 0 -1.59375 0.40625q-0.703125 0.40625 -1.125 1.140625q-0.40625 0.734375 -0.40625 1.734375q0 0.96875 0.40625 1.71875q0.421875 0.734375 1.125 1.15625q0.703125 0.40625 1.59375 0.40625zm3.15625 0.921875l0 -2.53125l0.109375 -1.6875l-0.15625 -1.703125l0 -5.953125l1.140625 0l0 11.875l-1.09375 0zm7.8323975 0.078125q-1.3125 0 -2.3125 -0.546875q-0.984375 -0.5625 -1.546875 -1.515625q-0.5625 -0.96875 -0.5625 -2.21875q0 -1.25 0.53125 -2.203125q0.546875 -0.96875 1.484375 -1.515625q0.9375 -0.5625 2.09375 -0.5625q1.1875 0 2.109375 0.546875q0.921875 0.53125 1.4375 1.5q0.53125 0.96875 0.53125 2.234375q0 0.078125 -0.015625 0.171875q0 0.078125 0 0.171875l-7.3125 0l0 -0.84375l6.703125 0l-0.4375 0.328125q0 -0.90625 -0.390625 -1.609375q-0.390625 -0.71875 -1.0625 -1.109375q-0.671875 -0.40625 -1.5625 -0.40625q-0.859375 0 -1.546875 0.40625q-0.6875 0.390625 -1.078125 1.109375q-0.375 0.71875 -0.375 1.640625l0 0.1875q0 0.953125 0.421875 1.6875q0.421875 0.71875 1.171875 1.140625q0.765625 0.40625 1.75 0.40625q0.765625 0 1.421875 -0.265625q0.671875 -0.28125 1.15625 -0.84375l0.640625 0.734375q-0.5625 0.671875 -1.40625 1.03125q-0.84375 0.34375 -1.84375 0.34375z" fill-rule="nonzero"/><path fill="#000000" fill-opacity="0.0" d="m634.2152 131.79002l139.81104 0l0 38.771652l-139.81104 0z" fill-rule="evenodd"/><path fill="#000000" d="m648.37146 156.22815q-1.3125 0 -2.3125 -0.546875q-0.984375 -0.5625 -1.546875 -1.515625q-0.5625 -0.96875 -0.5625 -2.21875q0 -1.25 0.53125 -2.203125q0.546875 -0.96875 1.484375 -1.515625q0.9375 -0.5625 2.09375 -0.5625q1.1875 0 2.109375 0.546875q0.921875 0.53125 1.4375 1.5q0.53125 0.96875 0.53125 2.234375q0 0.078125 -0.015625 0.171875q0 0.078125 0 0.171875l-7.3125 0l0 -0.84375l6.703125 0l-0.4375 0.328125q0 -0.90625 -0.390625 -1.609375q-0.390625 -0.71875 -1.0625 -1.109375q-0.671875 -0.40625 -1.5625 -0.40625q-0.859375 0 -1.546875 0.40625q-0.6875 0.390625 -1.078125 1.109375q-0.375 0.71875 -0.375 1.640625l0 0.1875q0 0.953125 0.421875 1.6875q0.421875 0.71875 1.171875 1.140625q0.765625 0.40625 1.75 0.40625q0.765625 0 1.421875 -0.265625q0.671875 -0.28125 1.15625 -0.84375l0.640625 0.734375q-0.5625 0.671875 -1.40625 1.03125q-0.84375 0.34375 -1.84375 0.34375zm4.564636 -0.078125l3.5625 -4.609375l-0.015625 0.5625l-3.375 -4.359375l1.28125 0l2.765625 3.609375l-0.484375 -0.015625l2.765625 -3.59375l1.25 0l-3.40625 4.40625l0.015625 -0.609375l3.578125 4.609375l-1.296875 0l-2.921875 -3.84375l0.453125 0.0625l-2.890625 3.78125l-1.28125 0zm14.169006 0.078125q-1.09375 0 -1.96875 -0.5q-0.875 -0.5 -1.40625 -1.453125q-0.515625 -0.953125 -0.515625 -2.328125q0 -1.375 0.515625 -2.328125q0.515625 -0.953125 1.390625 -1.453125q0.875 -0.5 1.984375 -0.5q1.203125 0 2.15625 0.546875q0.953125 0.53125 1.484375 1.5q0.546875 0.96875 0.546875 2.234375q0 1.28125 -0.546875 2.234375q-0.53125 0.953125 -1.484375 1.5q-0.953125 0.546875 -2.15625 0.546875zm-4.34375 3.03125l0 -11.515625l1.09375 0l0 2.53125l-0.109375 1.6875l0.15625 1.6875l0 5.609375l-1.140625 0zm4.265625 -4.03125q0.890625 0 1.59375 -0.40625q0.703125 -0.421875 1.109375 -1.15625q0.421875 -0.75 0.421875 -1.71875q0 -0.984375 -0.421875 -1.71875q-0.40625 -0.734375 -1.109375 -1.140625q-0.703125 -0.421875 -1.59375 -0.421875q-0.90625 0 -1.625 0.421875q-0.703125 0.40625 -1.109375 1.140625q-0.40625 0.734375 -0.40625 1.71875q0 0.96875 0.40625 1.71875q0.40625 0.734375 1.109375 1.15625q0.71875 0.40625 1.625 0.40625zm10.160522 1.0q-1.3125 0 -2.3125 -0.546875q-0.984375 -0.5625 -1.546875 -1.515625q-0.5625 -0.96875 -0.5625 -2.21875q0 -1.25 0.53125 -2.203125q0.546875 -0.96875 1.484375 -1.515625q0.9375 -0.5625 2.09375 -0.5625q1.1875 0 2.109375 0.546875q0.921875 0.53125 1.4375 1.5q0.53125 0.96875 0.53125 2.234375q0 0.078125 -0.015625 0.171875q0 0.078125 0 0.171875l-7.3125 0l0 -0.84375l6.703125 0l-0.4375 0.328125q0 -0.90625 -0.390625 -1.609375q-0.390625 -0.71875 -1.0625 -1.109375q-0.671875 -0.40625 -1.5625 -0.40625q-0.859375 0 -1.546875 0.40625q-0.6875 0.390625 -1.078125 1.109375q-0.375 0.71875 -0.375 1.640625l0 0.1875q0 0.953125 0.421875 1.6875q0.421875 0.71875 1.171875 1.140625q0.765625 0.40625 1.75 0.40625q0.765625 0 1.421875 -0.265625q0.671875 -0.28125 1.15625 -0.84375l0.640625 0.734375q-0.5625 0.671875 -1.40625 1.03125q-0.84375 0.34375 -1.84375 0.34375zm6.0859375 -0.078125l0 -8.40625l1.09375 0l0 2.296875l-0.109375 -0.40625q0.34375 -0.953125 1.171875 -1.453125q0.84375 -0.515625 2.078125 -0.515625l0 1.109375q-0.0625 0 -0.140625 0q-0.0625 -0.015625 -0.125 -0.015625q-1.328125 0 -2.078125 0.8125q-0.75 0.796875 -0.75 2.296875l0 4.28125l-1.140625 0zm6.287964 0l0 -8.40625l1.140625 0l0 8.40625l-1.140625 0zm0.578125 -10.25q-0.34375 0 -0.59375 -0.234375q-0.234375 -0.25 -0.234375 -0.59375q0 -0.328125 0.234375 -0.5625q0.25 -0.234375 0.59375 -0.234375q0.359375 0 0.59375 0.234375q0.234375 0.21875 0.234375 0.546875q0 0.359375 -0.234375 0.609375q-0.21875 0.234375 -0.59375 0.234375zm14.225891 1.765625q1.03125 0 1.78125 0.390625q0.765625 0.390625 1.1875 1.203125q0.421875 0.796875 0.421875 2.015625l0 4.875l-1.125 0l0 -4.765625q0 -1.328125 -0.640625 -2.0q-0.625 -0.6875 -1.78125 -0.6875q-0.859375 0 -1.5 0.359375q-0.625 0.359375 -0.96875 1.046875q-0.34375 0.671875 -0.34375 1.625l0 4.421875l-1.140625 0l0 -4.765625q0 -1.328125 -0.640625 -2.0q-0.640625 -0.6875 -1.796875 -0.6875q-0.84375 0 -1.484375 0.359375q-0.640625 0.359375 -0.984375 1.046875q-0.34375 0.671875 -0.34375 1.625l0 4.421875l-1.140625 0l0 -8.40625l1.09375 0l0 2.28125l-0.171875 -0.40625q0.375 -0.90625 1.234375 -1.421875q0.859375 -0.53125 2.03125 -0.53125q1.21875 0 2.078125 0.625q0.875 0.609375 1.125 1.84375l-0.4375 -0.171875q0.359375 -1.03125 1.296875 -1.65625q0.9375 -0.640625 2.25 -0.640625zm10.054199 8.5625q-1.3125 0 -2.3125 -0.546875q-0.984375 -0.5625 -1.546875 -1.515625q-0.5625 -0.96875 -0.5625 -2.21875q0 -1.25 0.53125 -2.203125q0.546875 -0.96875 1.484375 -1.515625q0.9375 -0.5625 2.09375 -0.5625q1.1875 0 2.109375 0.546875q0.921875 0.53125 1.4375 1.5q0.53125 0.96875 0.53125 2.234375q0 0.078125 -0.015625 0.171875q0 0.078125 0 0.171875l-7.3125 0l0 -0.84375l6.703125 0l-0.4375 0.328125q0 -0.90625 -0.390625 -1.609375q-0.390625 -0.71875 -1.0625 -1.109375q-0.671875 -0.40625 -1.5625 -0.40625q-0.859375 0 -1.546875 0.40625q-0.6875 0.390625 -1.078125 1.109375q-0.375 0.71875 -0.375 1.640625l0 0.1875q0 0.953125 0.421875 1.6875q0.421875 0.71875 1.171875 1.140625q0.765625 0.40625 1.75 0.40625q0.765625 0 1.421875 -0.265625q0.671875 -0.28125 1.15625 -0.84375l0.640625 0.734375q-0.5625 0.671875 -1.40625 1.03125q-0.84375 0.34375 -1.84375 0.34375zm10.382751 -8.5625q1.015625 0 1.796875 0.390625q0.78125 0.390625 1.21875 1.203125q0.4375 0.796875 0.4375 2.015625l0 4.875l-1.140625 0l0 -4.765625q0 -1.328125 -0.671875 -2.0q-0.65625 -0.6875 -1.859375 -0.6875q-0.890625 0 -1.5625 0.359375q-0.65625 0.359375 -1.015625 1.046875q-0.359375 0.671875 -0.359375 1.625l0 4.421875l-1.140625 0l0 -8.40625l1.09375 0l0 2.3125l-0.171875 -0.4375q0.390625 -0.90625 1.265625 -1.421875q0.890625 -0.53125 2.109375 -0.53125zm9.175415 8.5625q-1.171875 0 -1.8125 -0.640625q-0.640625 -0.640625 -0.640625 -1.8125l0 -7.875l1.125 0l0 7.8125q0 0.734375 0.375 1.140625q0.375 0.40625 1.09375 0.40625q0.75 0 1.234375 -0.4375l0.40625 0.8125q-0.328125 0.3125 -0.8125 0.453125q-0.46875 0.140625 -0.96875 0.140625zm-3.96875 -7.53125l0 -0.953125l5.203125 0l0 0.953125l-5.203125 0z" fill-rule="nonzero"/><path fill="#cfe2f3" d="m11.56168 179.44357l0 0c0 -8.349503 6.768608 -15.118118 15.118111 -15.118118l0 0c4.009571 0 7.8549232 1.592804 10.690117 4.427994c2.8351974 2.835205 4.427994 6.680542 4.427994 10.6901245l0 0c0 8.349503 -6.768608 15.118103 -15.118111 15.118103l0 0c-8.349503 0 -15.118111 -6.7686005 -15.118111 -15.118103z" fill-rule="evenodd"/><path fill="#cfe2f3" d="m49.95538 135.06299l0 0c0 -8.349495 6.768608 -15.118103 15.118114 -15.118103l0 0c4.0095673 0 7.8549194 1.5927963 10.690117 4.427986c2.8351974 2.8351974 4.427994 6.6805496 4.427994 10.690117l0 0c0 8.349503 -6.7686157 15.118118 -15.118111 15.118118l0 0c-8.349506 0 -15.118114 -6.7686157 -15.118114 -15.118118z" fill-rule="evenodd"/><path fill="#cfe2f3" d="m106.18635 135.06299l0 0c0 -8.349495 6.7686157 -15.118103 15.118111 -15.118103l0 0c4.009575 0 7.8549194 1.5927963 10.6901245 4.427986c2.8351898 2.8351974 4.427994 6.6805496 4.427994 10.690117l0 0c0 8.349503 -6.7686157 15.118118 -15.118118 15.118118l0 0c-8.349495 0 -15.118111 -6.7686157 -15.118111 -15.118118z" fill-rule="evenodd"/><path fill="#ff9900" d="m159.08398 100.55905l0 0c0 -8.349495 6.7686157 -15.118103 15.118118 -15.118103l0 0c4.0095673 0 7.8549194 1.5927963 10.690109 4.427986c2.835205 2.8351974 4.427994 6.6805496 4.427994 10.690117l0 0c0 8.349503 -6.7686005 15.118111 -15.118103 15.118111l0 0c-8.349503 0 -15.118118 -6.768608 -15.118118 -15.118111z" fill-rule="evenodd"/><path fill="#ff9900" d="m159.08398 60.577427l0 0c0 -8.349503 6.7686157 -15.118111 15.118118 -15.118111l0 0c4.0095673 0 7.8549194 1.5927963 10.690109 4.427994c2.835205 2.8351936 4.427994 6.680546 4.427994 10.690117l0 0c0 8.349506 -6.7686005 15.118114 -15.118103 15.118114l0 0c-8.349503 0 -15.118118 -6.768608 -15.118118 -15.118114z" fill-rule="evenodd"/><path fill="#ff9900" d="m159.08398 20.5958l0 0c0 -8.349502 6.7686157 -15.118111 15.118118 -15.118111l0 0c4.0095673 0 7.8549194 1.5927963 10.690109 4.4279923c2.835205 2.8351955 4.427994 6.6805468 4.427994 10.690118l0 0c0 8.349503 -6.7686005 15.118109 -15.118103 15.118109l0 0c-8.349503 0 -15.118118 -6.768606 -15.118118 -15.118109z" fill-rule="evenodd"/><path fill="#cfe2f3" d="m212.50131 135.06299l0 0c0 -8.349495 6.7686157 -15.118103 15.118103 -15.118103l0 0c4.0095825 0 7.8549347 1.5927963 10.6901245 4.427986c2.8351898 2.8351974 4.427994 6.6805496 4.427994 10.690117l0 0c0 8.349503 -6.7686157 15.118118 -15.118118 15.118118l0 0c-8.349487 0 -15.118103 -6.7686157 -15.118103 -15.118118z" fill-rule="evenodd"/><path fill="#cfe2f3" d="m268.98163 135.06299l0 0c0 -8.349495 6.7686157 -15.118103 15.118103 -15.118103l0 0c4.0095825 0 7.8549194 1.5927963 10.6901245 4.427986c2.835205 2.8351974 4.4279785 6.6805496 4.4279785 10.690117l0 0c0 8.349503 -6.768585 15.118118 -15.118103 15.118118l0 0c-8.349487 0 -15.118103 -6.7686157 -15.118103 -15.118118z" fill-rule="evenodd"/><path fill="#ff9900" d="m312.27036 100.55905l0 0c0 -8.349495 6.768585 -15.118103 15.118103 -15.118103l0 0c4.009552 0 7.8549194 1.5927963 10.6901245 4.427986c2.8351746 2.8351974 4.4279785 6.6805496 4.4279785 10.690117l0 0c0 8.349503 -6.7686157 15.118111 -15.118103 15.118111l0 0c-8.349518 0 -15.118103 -6.768608 -15.118103 -15.118111z" fill-rule="evenodd"/><path fill="#ff9900" d="m312.27036 60.577427l0 0c0 -8.349503 6.768585 -15.118111 15.118103 -15.118111l0 0c4.009552 0 7.8549194 1.5927963 10.6901245 4.427994c2.8351746 2.8351936 4.4279785 6.680546 4.4279785 10.690117l0 0c0 8.349506 -6.7686157 15.118114 -15.118103 15.118114l0 0c-8.349518 0 -15.118103 -6.768608 -15.118103 -15.118114z" fill-rule="evenodd"/><path fill="#ff9900" d="m312.27036 20.5958l0 0c0 -8.349502 6.768585 -15.118111 15.118103 -15.118111l0 0c4.009552 0 7.8549194 1.5927963 10.6901245 4.4279923c2.8351746 2.8351955 4.4279785 6.6805468 4.4279785 10.690118l0 0c0 8.349503 -6.7686157 15.118109 -15.118103 15.118109l0 0c-8.349518 0 -15.118103 -6.768606 -15.118103 -15.118109z" fill-rule="evenodd"/><path fill="#cfe2f3" d="m409.0 135.06299l0 0c0 -8.349495 6.7686157 -15.118103 15.118103 -15.118103l0 0c4.0095825 0 7.8549194 1.5927963 10.6901245 4.427986c2.835205 2.8351974 4.4279785 6.6805496 4.4279785 10.690117l0 0c0 8.349503 -6.768585 15.118118 -15.118103 15.118118l0 0c-8.349487 0 -15.118103 -6.7686157 -15.118103 -15.118118z" fill-rule="evenodd"/><path fill="#cfe2f3" d="m468.063 179.44357l0 0c0 -8.349503 6.7686157 -15.118118 15.118103 -15.118118l0 0c4.0095825 0 7.8549194 1.592804 10.6901245 4.427994c2.835205 2.835205 4.428009 6.680542 4.428009 10.6901245l0 0c0 8.349503 -6.7686157 15.118103 -15.118134 15.118103l0 0c-8.349487 0 -15.118103 -6.7686005 -15.118103 -15.118103z" fill-rule="evenodd"/><path fill="#000000" fill-opacity="0.0" d="m41.7979 179.44357l426.2677 0" fill-rule="evenodd"/><path stroke="#000000" stroke-width="1.0" stroke-linejoin="round" stroke-linecap="butt" d="m41.7979 179.44357l420.2677 0" fill-rule="evenodd"/><path fill="#000000" stroke="#000000" stroke-width="1.0" stroke-linecap="butt" d="m462.0656 181.0953l4.5381165 -1.6517334l-4.5381165 -1.6517334z" fill-rule="evenodd"/><path fill="#000000" fill-opacity="0.0" d="m434.80823 145.75311l37.66928 22.992126" fill-rule="evenodd"/><path stroke="#000000" stroke-width="1.0" stroke-linejoin="round" stroke-linecap="butt" d="m434.80823 145.75311l32.547913 19.86618" fill-rule="evenodd"/><path fill="#000000" stroke="#000000" stroke-width="1.0" stroke-linecap="butt" d="m466.4956 167.02916l4.7341003 0.95443726l-3.013031 -3.7741547z" fill-rule="evenodd"/><path fill="#000000" fill-opacity="0.0" d="m37.369907 168.75345l17.007874 -22.992126" fill-rule="evenodd"/><path stroke="#000000" stroke-width="1.0" stroke-linejoin="round" stroke-linecap="butt" d="m37.36991 168.75345l13.439667 -18.168427" fill-rule="evenodd"/><path fill="#000000" stroke="#000000" stroke-width="1.0" stroke-linecap="butt" d="m52.137486 151.56729l1.370903 -4.6306763l-4.0267143 2.6661072z" fill-rule="evenodd"/><path fill="#000000" fill-opacity="0.0" d="m80.191605 135.06299l25.984245 0" fill-rule="evenodd"/><path stroke="#000000" stroke-width="1.0" stroke-linejoin="round" stroke-linecap="butt" d="m80.191605 135.06299l19.984245 0" fill-rule="evenodd"/><path fill="#000000" stroke="#000000" stroke-width="1.0" stroke-linecap="butt" d="m100.17585 136.71472l4.538101 -1.6517334l-4.538101 -1.6517334z" fill-rule="evenodd"/><path fill="#000000" fill-opacity="0.0" d="m136.40683 135.06299l76.09448 0" fill-rule="evenodd"/><path stroke="#000000" stroke-width="1.0" stroke-linejoin="round" stroke-linecap="butt" d="m136.40683 135.06299l70.09448 0" fill-rule="evenodd"/><path fill="#000000" stroke="#000000" stroke-width="1.0" stroke-linecap="butt" d="m206.50131 136.71472l4.538101 -1.6517334l-4.538101 -1.6517334z" fill-rule="evenodd"/><path fill="#000000" fill-opacity="0.0" d="m242.73753 135.06299l26.236221 0" fill-rule="evenodd"/><path stroke="#000000" stroke-width="1.0" stroke-linejoin="round" stroke-linecap="butt" d="m242.73753 135.06299l20.236221 0" fill-rule="evenodd"/><path fill="#000000" stroke="#000000" stroke-width="1.0" stroke-linecap="butt" d="m262.97375 136.71472l4.538086 -1.6517334l-4.538086 -1.6517334z" fill-rule="evenodd"/><path fill="#000000" fill-opacity="0.0" d="m299.21783 135.06299l109.79529 0" fill-rule="evenodd"/><path stroke="#000000" stroke-width="1.0" stroke-linejoin="round" stroke-linecap="butt" d="m299.21783 135.06299l103.79529 0" fill-rule="evenodd"/><path fill="#000000" stroke="#000000" stroke-width="1.0" stroke-linecap="butt" d="m403.01312 136.71472l4.538086 -1.6517334l-4.538086 -1.6517334z" fill-rule="evenodd"/><path fill="#000000" fill-opacity="0.0" d="m121.30446 119.944885l37.795273 -19.370079" fill-rule="evenodd"/><path stroke="#000000" stroke-width="1.0" stroke-linejoin="round" stroke-linecap="butt" d="m121.30446 119.944885l32.45569 -16.633537" fill-rule="evenodd"/><path fill="#000000" stroke="#000000" stroke-width="1.0" stroke-linecap="butt" d="m154.51347 104.78128l3.285263 -3.5397186l-4.791931 0.5998535z" fill-rule="evenodd"/><path fill="#000000" fill-opacity="0.0" d="m121.30446 119.944885l42.204727 -48.692917" fill-rule="evenodd"/><path stroke="#000000" stroke-width="1.0" stroke-linejoin="round" stroke-linecap="butt" d="m121.30446 119.944885l38.274918 -44.158974" fill-rule="evenodd"/><path fill="#000000" stroke="#000000" stroke-width="1.0" stroke-linecap="butt" d="m160.82753 76.867744l1.7241516 -4.511078l-4.2204437 2.347412z" fill-rule="evenodd"/><path fill="#000000" fill-opacity="0.0" d="m121.30446 119.944885l42.204727 -88.66142" fill-rule="evenodd"/><path stroke="#000000" stroke-width="1.0" stroke-linejoin="round" stroke-linecap="butt" d="m121.30446 119.944885l39.62587 -83.243904" fill-rule="evenodd"/><path fill="#000000" stroke="#000000" stroke-width="1.0" stroke-linecap="butt" d="m162.4217 37.41091l0.45913696 -4.8074646l-3.4418945 3.3876076z" fill-rule="evenodd"/><path fill="#000000" fill-opacity="0.0" d="m284.09973 119.944885l28.157501 -19.370079" fill-rule="evenodd"/><path stroke="#000000" stroke-width="1.0" stroke-linejoin="round" stroke-linecap="butt" d="m284.09973 119.944885l23.214203 -15.969505" fill-rule="evenodd"/><path fill="#000000" stroke="#000000" stroke-width="1.0" stroke-linecap="butt" d="m308.2501 105.33621l2.8027039 -3.9328537l-4.674988 1.2111969z" fill-rule="evenodd"/><path fill="#000000" fill-opacity="0.0" d="m284.09973 119.944885l28.157501 -59.370083" fill-rule="evenodd"/><path stroke="#000000" stroke-width="1.0" stroke-linejoin="round" stroke-linecap="butt" d="m284.09973 119.944885l25.586365 -53.948883" fill-rule="evenodd"/><path fill="#000000" stroke="#000000" stroke-width="1.0" stroke-linecap="butt" d="m311.1785 66.7038l0.4522705 -4.808117l-3.4370728 3.392521z" fill-rule="evenodd"/><path fill="#000000" fill-opacity="0.0" d="m284.09973 119.944885l28.157501 -99.338585" fill-rule="evenodd"/><path stroke="#000000" stroke-width="1.0" stroke-linejoin="round" stroke-linecap="butt" d="m284.09973 119.944885l26.52124 -93.566" fill-rule="evenodd"/><path fill="#000000" stroke="#000000" stroke-width="1.0" stroke-linecap="butt" d="m312.2101 26.82932l-0.3515625 -4.81653l-2.8266907 3.9156551z" fill-rule="evenodd"/><path fill="#cfe2f3" d="m532.5748 179.44357l0 0c0 -8.349503 6.7685547 -15.118118 15.118103 -15.118118l0 0c4.0095825 0 7.8549194 1.592804 10.6901245 4.427994c2.835144 2.835205 4.4279785 6.680542 4.4279785 10.6901245l0 0c0 8.349503 -6.7686157 15.118103 -15.118103 15.118103l0 0c-8.349548 0 -15.118103 -6.7686005 -15.118103 -15.118103z" fill-rule="evenodd"/><path fill="#000000" fill-opacity="0.0" d="m498.3071 179.44357l34.26773 0" fill-rule="evenodd"/><path stroke="#000000" stroke-width="1.0" stroke-linejoin="round" stroke-linecap="butt" d="m498.3071 179.44357l28.26773 0" fill-rule="evenodd"/><path fill="#000000" stroke="#000000" stroke-width="1.0" stroke-linecap="butt" d="m526.5748 181.0953l4.538086 -1.6517334l-4.538086 -1.6517334z" fill-rule="evenodd"/><path fill="#434343" d="m508.29135 94.732285l35.385834 0l0 0l15.165344 0l10.1102295 0l0 22.616798l0 0l0 9.692909l0 6.4619446l-10.1102295 0l-11.947449 30.921173l-3.2178955 -30.921173l-35.385834 0l0 -6.4619446l0 -9.692909l0 0z" fill-rule="evenodd"/><path fill="#ffffff" d="m521.1696 110.918106l0 -9.546875l1.265625 0l0 3.921875l4.953125 0l0 -3.921875l1.265625 0l0 9.546875l-1.265625 0l0 -4.5l-4.953125 0l0 4.5l-1.265625 0zm9.609558 0l0 -9.546875l6.90625 0l0 1.125l-5.640625 0l0 2.921875l5.28125 0l0 1.125l-5.28125 0l0 3.25l5.859375 0l0 1.125l-7.125 0zm7.8272705 0l3.65625 -9.546875l1.359375 0l3.90625 9.546875l-1.4375 0l-1.109375 -2.890625l-3.984375 0l-1.046875 2.890625l-1.34375 0zm2.75 -3.921875l3.234375 0l-1.0 -2.640625q-0.453125 -1.203125 -0.671875 -1.96875q-0.1875 0.90625 -0.515625 1.8125l-1.046875 2.796875zm7.1865845 3.921875l0 -9.546875l3.28125 0q1.109375 0 1.703125 0.140625q0.8125 0.1875 1.390625 0.6875q0.765625 0.640625 1.140625 1.640625q0.375 0.984375 0.375 2.25q0 1.09375 -0.265625 1.9375q-0.25 0.828125 -0.65625 1.390625q-0.390625 0.546875 -0.859375 0.859375q-0.46875 0.3125 -1.140625 0.484375q-0.65625 0.15625 -1.53125 0.15625l-3.4375 0zm1.265625 -1.125l2.03125 0q0.9375 0 1.46875 -0.171875q0.546875 -0.1875 0.875 -0.5q0.4375 -0.453125 0.6875 -1.203125q0.25 -0.765625 0.25 -1.84375q0 -1.5 -0.5 -2.296875q-0.484375 -0.8125 -1.1875 -1.078125q-0.5 -0.203125 -1.625 -0.203125l-2.0 0l0 7.296875z" fill-rule="nonzero"/><path fill="#ffffff" d="m519.1307 126.918106l0 -6.90625l1.046875 0l0 0.96875q0.328125 -0.515625 0.859375 -0.8125q0.546875 -0.3125 1.234375 -0.3125q0.78125 0 1.265625 0.3125q0.484375 0.3125 0.6875 0.890625q0.828125 -1.203125 2.140625 -1.203125q1.03125 0 1.578125 0.578125q0.5625 0.5625 0.5625 1.734375l0 4.75l-1.171875 0l0 -4.359375q0 -0.703125 -0.125 -1.0q-0.109375 -0.3125 -0.40625 -0.5q-0.296875 -0.1875 -0.703125 -0.1875q-0.71875 0 -1.203125 0.484375q-0.484375 0.484375 -0.484375 1.546875l0 4.015625l-1.171875 0l0 -4.484375q0 -0.78125 -0.296875 -1.171875q-0.28125 -0.390625 -0.921875 -0.390625q-0.5 0 -0.921875 0.265625q-0.421875 0.25 -0.609375 0.75q-0.1875 0.5 -0.1875 1.453125l0 3.578125l-1.171875 0zm15.618042 -0.859375q-0.65625 0.5625 -1.265625 0.796875q-0.59375 0.21875 -1.28125 0.21875q-1.140625 0 -1.75 -0.546875q-0.609375 -0.5625 -0.609375 -1.4375q0 -0.5 0.21875 -0.921875q0.234375 -0.421875 0.609375 -0.671875q0.375 -0.25 0.84375 -0.390625q0.34375 -0.078125 1.046875 -0.171875q1.421875 -0.171875 2.09375 -0.40625q0 -0.234375 0 -0.296875q0 -0.71875 -0.328125 -1.015625q-0.453125 -0.390625 -1.34375 -0.390625q-0.8125 0 -1.21875 0.296875q-0.390625 0.28125 -0.578125 1.015625l-1.140625 -0.15625q0.15625 -0.734375 0.515625 -1.1875q0.359375 -0.453125 1.03125 -0.6875q0.671875 -0.25 1.5625 -0.25q0.890625 0 1.4375 0.203125q0.5625 0.203125 0.8125 0.53125q0.265625 0.3125 0.375 0.796875q0.046875 0.296875 0.046875 1.078125l0 1.5625q0 1.625 0.078125 2.0625q0.078125 0.4375 0.296875 0.828125l-1.21875 0q-0.1875 -0.359375 -0.234375 -0.859375zm-0.09375 -2.609375q-0.640625 0.265625 -1.921875 0.4375q-0.71875 0.109375 -1.015625 0.25q-0.296875 0.125 -0.46875 0.375q-0.15625 0.25 -0.15625 0.546875q0 0.46875 0.34375 0.78125q0.359375 0.3125 1.046875 0.3125q0.671875 0 1.203125 -0.296875q0.53125 -0.296875 0.78125 -0.8125q0.1875 -0.390625 0.1875 -1.171875l0 -0.421875zm2.5218506 1.40625l1.15625 -0.1875q0.109375 0.703125 0.546875 1.078125q0.453125 0.359375 1.25 0.359375q0.8125 0 1.203125 -0.328125q0.390625 -0.328125 0.390625 -0.765625q0 -0.390625 -0.359375 -0.625q-0.234375 -0.15625 -1.1875 -0.390625q-1.296875 -0.328125 -1.796875 -0.5625q-0.484375 -0.25 -0.75 -0.65625q-0.25 -0.421875 -0.25 -0.9375q0 -0.453125 0.203125 -0.84375q0.21875 -0.40625 0.578125 -0.671875q0.28125 -0.1875 0.75 -0.328125q0.46875 -0.140625 1.015625 -0.140625q0.8125 0 1.421875 0.234375q0.609375 0.234375 0.90625 0.640625q0.296875 0.390625 0.40625 1.0625l-1.140625 0.15625q-0.078125 -0.53125 -0.453125 -0.828125q-0.375 -0.3125 -1.0625 -0.3125q-0.8125 0 -1.15625 0.265625q-0.34375 0.265625 -0.34375 0.625q0 0.234375 0.140625 0.421875q0.15625 0.1875 0.453125 0.3125q0.171875 0.0625 1.03125 0.296875q1.25 0.328125 1.734375 0.546875q0.5 0.203125 0.78125 0.609375q0.28125 0.40625 0.28125 1.0q0 0.59375 -0.34375 1.109375q-0.34375 0.515625 -1.0 0.796875q-0.640625 0.28125 -1.453125 0.28125q-1.34375 0 -2.046875 -0.5625q-0.703125 -0.5625 -0.90625 -1.65625zm9.6953125 1.015625l0.171875 1.03125q-0.5 0.109375 -0.890625 0.109375q-0.640625 0 -1.0 -0.203125q-0.34375 -0.203125 -0.484375 -0.53125q-0.140625 -0.328125 -0.140625 -1.390625l0 -3.96875l-0.859375 0l0 -0.90625l0.859375 0l0 -1.71875l1.171875 -0.703125l0 2.421875l1.171875 0l0 0.90625l-1.171875 0l0 4.046875q0 0.5 0.046875 0.640625q0.0625 0.140625 0.203125 0.234375q0.140625 0.078125 0.40625 0.078125q0.203125 0 0.515625 -0.046875zm5.874878 -1.171875l1.203125 0.140625q-0.28125 1.0625 -1.0625 1.65625q-0.765625 0.578125 -1.96875 0.578125q-1.515625 0 -2.40625 -0.9375q-0.890625 -0.9375 -0.890625 -2.609375q0 -1.75 0.890625 -2.703125q0.90625 -0.96875 2.34375 -0.96875q1.390625 0 2.265625 0.9375q0.875 0.9375 0.875 2.65625q0 0.109375 0 0.3125l-5.15625 0q0.0625 1.140625 0.640625 1.75q0.578125 0.59375 1.4375 0.59375q0.65625 0 1.109375 -0.328125q0.453125 -0.34375 0.71875 -1.078125zm-3.84375 -1.90625l3.859375 0q-0.078125 -0.859375 -0.4375 -1.296875q-0.5625 -0.6875 -1.453125 -0.6875q-0.8125 0 -1.359375 0.546875q-0.546875 0.53125 -0.609375 1.4375zm6.5062256 4.125l0 -6.90625l1.0625 0l0 1.046875q0.40625 -0.734375 0.734375 -0.96875q0.34375 -0.234375 0.765625 -0.234375q0.59375 0 1.203125 0.375l-0.40625 1.078125q-0.4375 -0.25 -0.859375 -0.25q-0.390625 0 -0.703125 0.234375q-0.296875 0.234375 -0.421875 0.640625q-0.203125 0.625 -0.203125 1.359375l0 3.625l-1.171875 0z" fill-rule="nonzero"/><path fill="#434343" d="m447.25067 69.04199l14.220459 0l0 0l21.330719 0l49.771637 0l0 11.133858l0 0l0 4.77166l0 3.181099l-49.771637 0l-48.50235 35.396317l27.17163 -35.396317l-14.220459 0l0 -3.181099l0 -4.77166l0 0z" fill-rule="evenodd"/><path fill="#ffffff" d="m458.93753 83.3853l0 -6.90625l1.046875 0l0 0.96875q0.328125 -0.515625 0.859375 -0.8125q0.546875 -0.3125 1.234375 -0.3125q0.78125 0 1.265625 0.3125q0.484375 0.3125 0.6875 0.890625q0.828125 -1.203125 2.140625 -1.203125q1.03125 0 1.578125 0.578125q0.5625 0.5625 0.5625 1.734375l0 4.75l-1.171875 0l0 -4.359375q0 -0.703125 -0.125 -1.0q-0.109375 -0.3125 -0.40625 -0.5q-0.296875 -0.1875 -0.703125 -0.1875q-0.71875 0 -1.203125 0.484375q-0.484375 0.484375 -0.484375 1.546875l0 4.015625l-1.171875 0l0 -4.484375q0 -0.78125 -0.296875 -1.171875q-0.28125 -0.390625 -0.921875 -0.390625q-0.5 0 -0.921875 0.265625q-0.421875 0.25 -0.609375 0.75q-0.1875 0.5 -0.1875 1.453125l0 3.578125l-1.171875 0zm11.055542 2.65625l-0.125 -1.09375q0.375 0.109375 0.65625 0.109375q0.390625 0 0.625 -0.140625q0.234375 -0.125 0.390625 -0.359375q0.109375 -0.171875 0.359375 -0.875q0.03125 -0.09375 0.109375 -0.28125l-2.625 -6.921875l1.265625 0l1.4375 4.0q0.28125 0.765625 0.5 1.59375q0.203125 -0.796875 0.46875 -1.578125l1.484375 -4.015625l1.171875 0l-2.625 7.015625q-0.421875 1.140625 -0.65625 1.578125q-0.3125 0.578125 -0.71875 0.84375q-0.40625 0.28125 -0.96875 0.28125q-0.328125 0 -0.75 -0.15625zm6.2578125 -5.515625l0 -1.1875l3.59375 0l0 1.1875l-3.59375 0zm5.17276 2.859375l0 -6.0l-1.03125 0l0 -0.90625l1.03125 0l0 -0.734375q0 -0.703125 0.125 -1.046875q0.171875 -0.453125 0.59375 -0.734375q0.421875 -0.28125 1.203125 -0.28125q0.484375 0 1.09375 0.109375l-0.1875 1.03125q-0.359375 -0.0625 -0.6875 -0.0625q-0.53125 0 -0.75 0.234375q-0.21875 0.21875 -0.21875 0.84375l0 0.640625l1.34375 0l0 0.90625l-1.34375 0l0 6.0l-1.171875 0zm8.156097 -2.21875l1.203125 0.140625q-0.28125 1.0625 -1.0625 1.65625q-0.765625 0.578125 -1.96875 0.578125q-1.515625 0 -2.40625 -0.9375q-0.890625 -0.9375 -0.890625 -2.609375q0 -1.75 0.890625 -2.703125q0.90625 -0.96875 2.34375 -0.96875q1.390625 0 2.265625 0.9375q0.875 0.9375 0.875 2.65625q0 0.109375 0 0.3125l-5.15625 0q0.0625 1.140625 0.640625 1.75q0.578125 0.59375 1.4375 0.59375q0.65625 0 1.109375 -0.328125q0.453125 -0.34375 0.71875 -1.078125zm-3.84375 -1.90625l3.859375 0q-0.078125 -0.859375 -0.4375 -1.296875q-0.5625 -0.6875 -1.453125 -0.6875q-0.8125 0 -1.359375 0.546875q-0.546875 0.53125 -0.609375 1.4375zm11.037476 3.265625q-0.65625 0.5625 -1.265625 0.796875q-0.59375 0.21875 -1.28125 0.21875q-1.140625 0 -1.75 -0.546875q-0.609375 -0.5625 -0.609375 -1.4375q0 -0.5 0.21875 -0.921875q0.234375 -0.421875 0.609375 -0.671875q0.375 -0.25 0.84375 -0.390625q0.34375 -0.078125 1.046875 -0.171875q1.421875 -0.171875 2.09375 -0.40625q0 -0.234375 0 -0.296875q0 -0.71875 -0.328125 -1.015625q-0.453125 -0.390625 -1.34375 -0.390625q-0.8125 0 -1.21875 0.296875q-0.390625 0.28125 -0.578125 1.015625l-1.140625 -0.15625q0.15625 -0.734375 0.515625 -1.1875q0.359375 -0.453125 1.03125 -0.6875q0.671875 -0.25 1.5625 -0.25q0.890625 0 1.4375 0.203125q0.5625 0.203125 0.8125 0.53125q0.265625 0.3125 0.375 0.796875q0.046875 0.296875 0.046875 1.078125l0 1.5625q0 1.625 0.078125 2.0625q0.078125 0.4375 0.296875 0.828125l-1.21875 0q-0.1875 -0.359375 -0.234375 -0.859375zm-0.09375 -2.609375q-0.640625 0.265625 -1.921875 0.4375q-0.71875 0.109375 -1.015625 0.25q-0.296875 0.125 -0.46875 0.375q-0.15625 0.25 -0.15625 0.546875q0 0.46875 0.34375 0.78125q0.359375 0.3125 1.046875 0.3125q0.671875 0 1.203125 -0.296875q0.53125 -0.296875 0.78125 -0.8125q0.1875 -0.390625 0.1875 -1.171875l0 -0.421875zm5.5531006 2.421875l0.171875 1.03125q-0.5 0.109375 -0.890625 0.109375q-0.640625 0 -1.0 -0.203125q-0.34375 -0.203125 -0.484375 -0.53125q-0.140625 -0.328125 -0.140625 -1.390625l0 -3.96875l-0.859375 0l0 -0.90625l0.859375 0l0 -1.71875l1.171875 -0.703125l0 2.421875l1.171875 0l0 0.90625l-1.171875 0l0 4.046875q0 0.5 0.046875 0.640625q0.0625 0.140625 0.203125 0.234375q0.140625 0.078125 0.40625 0.078125q0.203125 0 0.515625 -0.046875zm5.671753 1.046875l0 -1.015625q-0.8125 1.171875 -2.1875 1.171875q-0.609375 0 -1.140625 -0.234375q-0.53125 -0.234375 -0.796875 -0.578125q-0.25 -0.359375 -0.359375 -0.875q-0.0625 -0.34375 -0.0625 -1.09375l0 -4.28125l1.171875 0l0 3.828125q0 0.921875 0.0625 1.234375q0.109375 0.46875 0.46875 0.734375q0.359375 0.25 0.890625 0.25q0.515625 0 0.984375 -0.265625q0.46875 -0.265625 0.65625 -0.734375q0.1875 -0.46875 0.1875 -1.34375l0 -3.703125l1.171875 0l0 6.90625l-1.046875 0zm2.8656006 0l0 -6.90625l1.0625 0l0 1.046875q0.40621948 -0.734375 0.7343445 -0.96875q0.34375 -0.234375 0.765625 -0.234375q0.59375 0 1.203125 0.375l-0.40625 1.078125q-0.4375 -0.25 -0.859375 -0.25q-0.390625 0 -0.703125 0.234375q-0.296875 0.234375 -0.421875 0.640625q-0.20309448 0.625 -0.20309448 1.359375l0 3.625l-1.171875 0zm9.188385 -2.21875l1.203125 0.140625q-0.28125 1.0625 -1.0625 1.65625q-0.765625 0.578125 -1.96875 0.578125q-1.515625 0 -2.40625 -0.9375q-0.890625 -0.9375 -0.890625 -2.609375q0 -1.75 0.890625 -2.703125q0.90625 -0.96875 2.34375 -0.96875q1.390625 0 2.265625 0.9375q0.875 0.9375 0.875 2.65625q0 0.109375 0 0.3125l-5.15625 0q0.0625 1.140625 0.640625 1.75q0.578125 0.59375 1.4375 0.59375q0.65625 0 1.109375 -0.328125q0.453125 -0.34375 0.71875 -1.078125zm-3.84375 -1.90625l3.859375 0q-0.078125 -0.859375 -0.4375 -1.296875q-0.5625 -0.6875 -1.453125 -0.6875q-0.8125 0 -1.359375 0.546875q-0.546875 0.53125 -0.609375 1.4375z" fill-rule="nonzero"/><path fill="#434343" d="m591.1837 68.24147l42.204712 0l0 17.826775l-42.204712 0z" fill-rule="evenodd"/><path fill="#000000" fill-opacity="0.0" d="m635.4042 57.769028l128.28351 0l0 38.771652l-128.28351 0z" fill-rule="evenodd"/><path fill="#000000" d="m650.32605 82.20715q-1.109375 0 -1.984375 -0.5q-0.875 -0.5 -1.390625 -1.453125q-0.515625 -0.96875 -0.515625 -2.328125q0 -1.375 0.515625 -2.328125q0.53125 -0.953125 1.40625 -1.453125q0.875 -0.5 1.96875 -0.5q1.203125 0 2.15625 0.546875q0.953125 0.53125 1.484375 1.5q0.546875 0.953125 0.546875 2.234375q0 1.265625 -0.546875 2.234375q-0.53125 0.953125 -1.484375 1.5q-0.953125 0.546875 -2.15625 0.546875zm-4.34375 -0.078125l0 -11.875l1.140625 0l0 5.953125l-0.15625 1.703125l0.109375 1.6875l0 2.53125l-1.09375 0zm4.265625 -0.921875q0.890625 0 1.59375 -0.40625q0.703125 -0.421875 1.109375 -1.15625q0.421875 -0.75 0.421875 -1.71875q0 -1.0 -0.421875 -1.734375q-0.40625 -0.734375 -1.109375 -1.140625q-0.703125 -0.40625 -1.59375 -0.40625q-0.90625 0 -1.625 0.40625q-0.703125 0.40625 -1.109375 1.140625q-0.40625 0.734375 -0.40625 1.734375q0 0.96875 0.40625 1.71875q0.40625 0.734375 1.109375 1.15625q0.71875 0.40625 1.625 0.40625zm6.5823975 0.921875l0 -8.40625l1.09375 0l0 2.296875l-0.109375 -0.40625q0.34375 -0.953125 1.171875 -1.453125q0.84375 -0.515625 2.078125 -0.515625l0 1.109375q-0.0625 0 -0.140625 0q-0.0625 -0.015625 -0.125 -0.015625q-1.328125 0 -2.078125 0.8125q-0.75 0.796875 -0.75 2.296875l0 4.28125l-1.140625 0zm10.9296875 0l0 -1.859375l-0.046875 -0.296875l0 -3.109375q0 -1.078125 -0.609375 -1.640625q-0.59375 -0.578125 -1.765625 -0.578125q-0.828125 0 -1.5625 0.28125q-0.734375 0.265625 -1.25 0.703125l-0.5 -0.84375q0.640625 -0.546875 1.53125 -0.84375q0.890625 -0.296875 1.890625 -0.296875q1.625 0 2.515625 0.8125q0.890625 0.8125 0.890625 2.453125l0 5.21875l-1.09375 0zm-2.890625 0.078125q-0.9375 0 -1.640625 -0.3125q-0.703125 -0.3125 -1.078125 -0.859375q-0.359375 -0.546875 -0.359375 -1.28125q0 -0.65625 0.3125 -1.1875q0.3125 -0.53125 1.015625 -0.859375q0.71875 -0.328125 1.921875 -0.328125l2.90625 0l0 0.84375l-2.875 0q-1.21875 0 -1.6875 0.4375q-0.46875 0.421875 -0.46875 1.0625q0 0.71875 0.5625 1.15625q0.5625 0.4375 1.5625 0.4375q0.96875 0 1.65625 -0.4375q0.703125 -0.453125 1.015625 -1.28125l0.265625 0.78125q-0.328125 0.84375 -1.125 1.34375q-0.78125 0.484375 -1.984375 0.484375zm11.361877 -8.5625q1.015625 0 1.796875 0.390625q0.78125 0.390625 1.21875 1.203125q0.4375 0.796875 0.4375 2.015625l0 4.875l-1.140625 0l0 -4.765625q0 -1.328125 -0.671875 -2.0q-0.65625 -0.6875 -1.859375 -0.6875q-0.890625 0 -1.5625 0.359375q-0.65625 0.359375 -1.015625 1.046875q-0.359375 0.671875 -0.359375 1.625l0 4.421875l-1.140625 0l0 -8.40625l1.09375 0l0 2.3125l-0.171875 -0.4375q0.390625 -0.90625 1.265625 -1.421875q0.890625 -0.53125 2.109375 -0.53125zm10.019165 8.5625q-1.25 0 -2.234375 -0.546875q-0.984375 -0.5625 -1.546875 -1.515625q-0.5625 -0.96875 -0.5625 -2.21875q0 -1.265625 0.5625 -2.21875q0.5625 -0.96875 1.546875 -1.515625q0.984375 -0.546875 2.234375 -0.546875q1.0625 0 1.921875 0.421875q0.875 0.421875 1.375 1.25l-0.859375 0.578125q-0.421875 -0.640625 -1.0625 -0.9375q-0.640625 -0.3125 -1.390625 -0.3125q-0.90625 0 -1.625 0.40625q-0.71875 0.40625 -1.140625 1.140625q-0.40625 0.734375 -0.40625 1.734375q0 0.984375 0.40625 1.71875q0.421875 0.734375 1.140625 1.15625q0.71875 0.40625 1.625 0.40625q0.75 0 1.390625 -0.296875q0.640625 -0.3125 1.0625 -0.9375l0.859375 0.578125q-0.5 0.8125 -1.375 1.234375q-0.859375 0.421875 -1.921875 0.421875zm9.67688 -8.5625q1.015625 0 1.796875 0.390625q0.78125 0.390625 1.21875 1.203125q0.4375 0.796875 0.4375 2.015625l0 4.875l-1.140625 0l0 -4.765625q0 -1.328125 -0.671875 -2.0q-0.65625 -0.6875 -1.859375 -0.6875q-0.890625 0 -1.5625 0.359375q-0.65625 0.359375 -1.015625 1.046875q-0.359375 0.671875 -0.359375 1.625l0 4.421875l-1.140625 0l0 -11.875l1.140625 0l0 5.78125l-0.21875 -0.4375q0.390625 -0.90625 1.265625 -1.421875q0.890625 -0.53125 2.109375 -0.53125zm10.711121 8.484375l0 -8.40625l1.09375 0l0 2.296875l-0.109375 -0.40625q0.34375 -0.953125 1.171875 -1.453125q0.84375 -0.515625 2.078125 -0.515625l0 1.109375q-0.0625 0 -0.140625 0q-0.0625 -0.015625 -0.125 -0.015625q-1.328125 0 -2.078125 0.8125q-0.75 0.796875 -0.75 2.296875l0 4.28125l-1.140625 0zm9.786133 0.078125q-1.3125 0 -2.3125 -0.546875q-0.984375 -0.5625 -1.546875 -1.515625q-0.5625 -0.96875 -0.5625 -2.21875q0 -1.25 0.53125 -2.203125q0.546875 -0.96875 1.484375 -1.515625q0.9375 -0.5625 2.09375 -0.5625q1.1875 0 2.109375 0.546875q0.921875 0.53125 1.4375 1.5q0.53125 0.96875 0.53125 2.234375q0 0.078125 -0.015625 0.171875q0 0.078125 0 0.171875l-7.3125 0l0 -0.84375l6.703125 0l-0.4375 0.328125q0 -0.90625 -0.390625 -1.609375q-0.390625 -0.71875 -1.0625 -1.109375q-0.671875 -0.40625 -1.5625 -0.40625q-0.859375 0 -1.546875 0.40625q-0.6875 0.390625 -1.078125 1.109375q-0.375 0.71875 -0.375 1.640625l0 0.1875q0 0.953125 0.421875 1.6875q0.421875 0.71875 1.171875 1.140625q0.765625 0.40625 1.75 0.40625q0.765625 0 1.421875 -0.265625q0.671875 -0.28125 1.15625 -0.84375l0.640625 0.734375q-0.5625 0.671875 -1.40625 1.03125q-0.84375 0.34375 -1.84375 0.34375zm6.2890625 -0.078125l0 -9.453125q0 -1.125 0.65625 -1.8125q0.65625 -0.6875 1.875 -0.6875q0.484375 0 0.9375 0.125q0.453125 0.125 0.75 0.40625l-0.390625 0.84375q-0.234375 -0.203125 -0.5625 -0.296875q-0.3125 -0.109375 -0.671875 -0.109375q-0.734375 0 -1.125 0.40625q-0.375 0.390625 -0.375 1.171875l0 1.28125l0.03125 0.53125l0 7.59375l-1.125 0zm-1.515625 -7.453125l0 -0.953125l5.203125 0l0 0.953125l-5.203125 0z" fill-rule="nonzero"/><path fill="#38761d" d="m366.85565 11.052493l10.1102295 0l0 0l15.165344 0l35.385834 0l0 11.133859l0 0l0 4.771654l0 3.1811008l-35.385834 0l-15.165344 0l0 0l-10.1102295 0l0 -3.1811008l-22.632782 -3.6221313l22.632782 -1.1495228z" fill-rule="evenodd"/><path fill="#ffffff" d="m382.41956 23.17705l1.203125 0.140625q-0.28125 1.0625 -1.0625 1.65625q-0.765625 0.578125 -1.96875 0.578125q-1.515625 0 -2.40625 -0.9375q-0.890625 -0.9375 -0.890625 -2.609375q0 -1.75 0.890625 -2.703125q0.90625 -0.96875 2.34375 -0.96875q1.390625 0 2.265625 0.9375q0.875 0.9375 0.875 2.65625q0 0.109375 0 0.3125l-5.15625 0q0.0625 1.140625 0.640625 1.75q0.578125 0.59375 1.4375 0.59375q0.65625 0 1.109375 -0.328125q0.453125 -0.34375 0.71875 -1.078125zm-3.84375 -1.90625l3.859375 0q-0.078125 -0.859375 -0.4375 -1.296875q-0.5625 -0.6875 -1.453125 -0.6875q-0.8125 0 -1.359375 0.546875q-0.546875 0.53125 -0.609375 1.4375zm5.7406006 4.125l2.53125 -3.59375l-2.34375 -3.3125l1.46875 0l1.0625 1.609375q0.296875 0.46875 0.484375 0.78125q0.28125 -0.4375 0.515625 -0.765625l1.171875 -1.625l1.40625 0l-2.390625 3.25l2.5625 3.65625l-1.4375 0l-1.421875 -2.140625l-0.375 -0.59375l-1.8125 2.734375l-1.421875 0zm7.4453125 2.656252l0 -9.562502l1.078125 0l0 0.890625q0.375 -0.53125 0.84375 -0.78125q0.484375 -0.265625 1.15625 -0.265625q0.875 0 1.546875 0.453125q0.6875 0.453125 1.03125 1.28125q0.34375 0.828125 0.34375 1.828125q0 1.046875 -0.375 1.90625q-0.375 0.84375 -1.109375 1.296875q-0.71875 0.453125 -1.53125 0.453125q-0.578125 0 -1.046875 -0.25q-0.46875 -0.25 -0.765625 -0.625l0 3.375002l-1.171875 0zm1.0625 -6.078127q0 1.34375 0.53125 1.984375q0.546875 0.625 1.3125 0.625q0.78125 0 1.34375 -0.65625q0.5625 -0.65625 0.5625 -2.046875q0 -1.3125 -0.546875 -1.96875q-0.546875 -0.671875 -1.296875 -0.671875q-0.75 0 -1.328125 0.703125q-0.578125 0.703125 -0.578125 2.03125zm5.8968506 0.5625l0 -1.1875l3.59375 0l0 1.1875l-3.59375 0zm8.32901 2.859375l0 -2.28125l-4.140625 0l0 -1.078125l4.34375 -6.1875l0.96875 0l0 6.1875l1.28125 0l0 1.078125l-1.28125 0l0 2.28125l-1.171875 0zm0 -3.359375l0 -4.296875l-2.984375 4.296875l2.984375 0zm9.803101 2.234375l0 1.125l-6.296875 0q-0.015625 -0.421875 0.140625 -0.8125q0.234375 -0.640625 0.765625 -1.265625q0.53125 -0.625 1.53125 -1.453125q1.5625 -1.265625 2.109375 -2.015625q0.546875 -0.75 0.546875 -1.40625q0 -0.703125 -0.5 -1.171875q-0.5 -0.484375 -1.296875 -0.484375q-0.859375 0 -1.375 0.515625q-0.5 0.5 -0.5 1.390625l-1.203125 -0.109375q0.125 -1.359375 0.921875 -2.0625q0.8125 -0.703125 2.171875 -0.703125q1.375 0 2.171875 0.765625q0.8125 0.75 0.8125 1.875q0 0.578125 -0.234375 1.140625q-0.234375 0.546875 -0.78125 1.15625q-0.546875 0.609375 -1.8125 1.671875q-1.046875 0.890625 -1.359375 1.21875q-0.296875 0.3125 -0.484375 0.625l4.671875 0z" fill-rule="nonzero"/><path fill="#38761d" d="m591.1837 36.259842l42.204712 0l0 17.82677l-42.204712 0z" fill-rule="evenodd"/><path fill="#000000" fill-opacity="0.0" d="m635.4042 25.787401l128.28351 0l0 38.771652l-128.28351 0z" fill-rule="evenodd"/><path fill="#000000" d="m649.5604 50.22553q-1.3125 0 -2.3125 -0.546875q-0.984375 -0.5625 -1.546875 -1.515625q-0.5625 -0.96875 -0.5625 -2.21875q0 -1.25 0.53125 -2.203125q0.546875 -0.96875 1.484375 -1.515625q0.9375 -0.5625 2.09375 -0.5625q1.1875 0 2.109375 0.546875q0.921875 0.53125 1.4375 1.5q0.53125 0.96875 0.53125 2.234375q0 0.078125 -0.015625 0.171875q0 0.078125 0 0.171875l-7.3125 0l0 -0.84375l6.703125 0l-0.4375 0.328125q0 -0.90625 -0.390625 -1.609375q-0.390625 -0.71875 -1.0625 -1.109375q-0.671875 -0.40625 -1.5625 -0.40625q-0.859375 0 -1.546875 0.40625q-0.6875 0.390625 -1.078125 1.109375q-0.375 0.71875 -0.375 1.640625l0 0.1875q0 0.953125 0.421875 1.6875q0.421875 0.71875 1.171875 1.140625q0.765625 0.40625 1.75 0.40625q0.765625 0 1.421875 -0.265625q0.671875 -0.28125 1.15625 -0.84375l0.640625 0.734375q-0.5625 0.671875 -1.40625 1.03125q-0.84375 0.34375 -1.84375 0.34375zm4.564636 -0.078125l3.5625 -4.609375l-0.015625 0.5625l-3.375 -4.359375l1.28125 0l2.765625 3.609375l-0.484375 -0.015625l2.765625 -3.59375l1.25 0l-3.40625 4.40625l0.015625 -0.609375l3.578125 4.609375l-1.296875 0l-2.921875 -3.84375l0.453125 0.0625l-2.890625 3.78125l-1.28125 0zm14.169067 0.078125q-1.09375 0 -1.96875 -0.5q-0.875 -0.5 -1.40625 -1.453125q-0.515625 -0.953125 -0.515625 -2.328125q0 -1.375 0.515625 -2.328125q0.515625 -0.953125 1.390625 -1.453125q0.875 -0.5 1.984375 -0.5q1.203125 0 2.15625 0.546875q0.953125 0.53125 1.484375 1.5q0.546875 0.96875 0.546875 2.234375q0 1.28125 -0.546875 2.234375q-0.53125 0.953125 -1.484375 1.5q-0.953125 0.546875 -2.15625 0.546875zm-4.34375 3.03125l0 -11.515625l1.09375 0l0 2.53125l-0.109375 1.6875l0.15625 1.6875l0 5.609375l-1.140625 0zm4.265625 -4.03125q0.890625 0 1.59375 -0.40625q0.703125 -0.421875 1.109375 -1.15625q0.421875 -0.75 0.421875 -1.71875q0 -0.984375 -0.421875 -1.71875q-0.40625 -0.734375 -1.109375 -1.140625q-0.703125 -0.421875 -1.59375 -0.421875q-0.90625 0 -1.625 0.421875q-0.703125 0.40625 -1.109375 1.140625q-0.40625 0.734375 -0.40625 1.71875q0 0.96875 0.40625 1.71875q0.40625 0.734375 1.109375 1.15625q0.71875 0.40625 1.625 0.40625zm10.774353 0.921875l0 -8.40625l1.09375 0l0 2.296875l-0.109375 -0.40625q0.34375 -0.953125 1.171875 -1.453125q0.84375 -0.515625 2.078125 -0.515625l0 1.109375q-0.0625 0 -0.140625 0q-0.0625 -0.015625 -0.125 -0.015625q-1.328125 0 -2.078125 0.8125q-0.75 0.796875 -0.75 2.296875l0 4.28125l-1.140625 0zm9.786194 0.078125q-1.3125 0 -2.3125 -0.546875q-0.984375 -0.5625 -1.546875 -1.515625q-0.5625 -0.96875 -0.5625 -2.21875q0 -1.25 0.53125 -2.203125q0.546875 -0.96875 1.484375 -1.515625q0.9375 -0.5625 2.09375 -0.5625q1.1875 0 2.109375 0.546875q0.921875 0.53125 1.4375 1.5q0.53125 0.96875 0.53125 2.234375q0 0.078125 -0.015625 0.171875q0 0.078125 0 0.171875l-7.3125 0l0 -0.84375l6.703125 0l-0.4375 0.328125q0 -0.90625 -0.390625 -1.609375q-0.390625 -0.71875 -1.0625 -1.109375q-0.671875 -0.40625 -1.5625 -0.40625q-0.859375 0 -1.546875 0.40625q-0.6875 0.390625 -1.078125 1.109375q-0.375 0.71875 -0.375 1.640625l0 0.1875q0 0.953125 0.421875 1.6875q0.421875 0.71875 1.171875 1.140625q0.765625 0.40625 1.75 0.40625q0.765625 0 1.421875 -0.265625q0.671875 -0.28125 1.15625 -0.84375l0.640625 0.734375q-0.5625 0.671875 -1.40625 1.03125q-0.84375 0.34375 -1.84375 0.34375zm6.2890015 -0.078125l0 -9.453125q0 -1.125 0.65625 -1.8125q0.65625 -0.6875 1.875 -0.6875q0.484375 0 0.9375 0.125q0.453125 0.125 0.75 0.40625l-0.390625 0.84375q-0.234375 -0.203125 -0.5625 -0.296875q-0.3125 -0.109375 -0.671875 -0.109375q-0.734375 0 -1.125 0.40625q-0.375 0.390625 -0.375 1.171875l0 1.28125l0.03125 0.53125l0 7.59375l-1.125 0zm-1.515625 -7.453125l0 -0.953125l5.203125 0l0 0.953125l-5.203125 0z" fill-rule="nonzero"/><path fill="#38761d" d="m366.85565 46.06824l10.1102295 0l0 0l15.165344 0l35.385834 0l0 11.133858l0 0l0 4.771656l0 3.181099l-35.385834 0l-15.165344 0l0 0l-10.1102295 0l0 -3.181099l-22.632782 -3.6221313l22.632782 -1.1495247z" fill-rule="evenodd"/><path fill="#ffffff" d="m382.41956 58.1928l1.203125 0.140625q-0.28125 1.0625 -1.0625 1.65625q-0.765625 0.578125 -1.96875 0.578125q-1.515625 0 -2.40625 -0.9375q-0.890625 -0.9375 -0.890625 -2.609375q0 -1.75 0.890625 -2.703125q0.90625 -0.96875 2.34375 -0.96875q1.390625 0 2.265625 0.9375q0.875 0.9375 0.875 2.65625q0 0.109375 0 0.3125l-5.15625 0q0.0625 1.140625 0.640625 1.75q0.578125 0.59375 1.4375 0.59375q0.65625 0 1.109375 -0.328125q0.453125 -0.34375 0.71875 -1.078125zm-3.84375 -1.90625l3.859375 0q-0.078125 -0.859375 -0.4375 -1.296875q-0.5625 -0.6875 -1.453125 -0.6875q-0.8125 0 -1.359375 0.546875q-0.546875 0.53125 -0.609375 1.4375zm5.7406006 4.125l2.53125 -3.59375l-2.34375 -3.3125l1.46875 0l1.0625 1.609375q0.296875 0.46875 0.484375 0.78125q0.28125 -0.4375 0.515625 -0.765625l1.171875 -1.625l1.40625 0l-2.390625 3.25l2.5625 3.65625l-1.4375 0l-1.421875 -2.140625l-0.375 -0.59375l-1.8125 2.734375l-1.421875 0zm7.4453125 2.65625l0 -9.5625l1.078125 0l0 0.890625q0.375 -0.53125 0.84375 -0.78125q0.484375 -0.265625 1.15625 -0.265625q0.875 0 1.546875 0.453125q0.6875 0.453125 1.03125 1.28125q0.34375 0.828125 0.34375 1.828125q0 1.046875 -0.375 1.90625q-0.375 0.84375 -1.109375 1.296875q-0.71875 0.453125 -1.53125 0.453125q-0.578125 0 -1.046875 -0.25q-0.46875 -0.25 -0.765625 -0.625l0 3.375l-1.171875 0zm1.0625 -6.078125q0 1.34375 0.53125 1.984375q0.546875 0.625 1.3125 0.625q0.78125 0 1.34375 -0.65625q0.5625 -0.65625 0.5625 -2.046875q0 -1.3125 -0.546875 -1.96875q-0.546875 -0.671875 -1.296875 -0.671875q-0.75 0 -1.328125 0.703125q-0.578125 0.703125 -0.578125 2.03125zm5.8968506 0.5625l0 -1.1875l3.59375 0l0 1.1875l-3.59375 0zm8.32901 2.859375l0 -2.28125l-4.140625 0l0 -1.078125l4.34375 -6.1875l0.96875 0l0 6.1875l1.28125 0l0 1.078125l-1.28125 0l0 2.28125l-1.171875 0zm0 -3.359375l0 -4.296875l-2.984375 4.296875l2.984375 0zm3.6624756 0.84375l1.171875 -0.15625q0.203125 1.0 0.6875 1.4375q0.484375 0.4375 1.171875 0.4375q0.828125 0 1.390625 -0.578125q0.578125 -0.578125 0.578125 -1.421875q0 -0.796875 -0.53125 -1.3125q-0.515625 -0.53125 -1.328125 -0.53125q-0.34375 0 -0.828125 0.125l0.125 -1.03125q0.125 0.015625 0.1875 0.015625q0.75 0 1.34375 -0.390625q0.609375 -0.390625 0.609375 -1.203125q0 -0.640625 -0.4375 -1.0625q-0.4375 -0.421875 -1.125 -0.421875q-0.6875 0 -1.140625 0.4375q-0.453125 0.421875 -0.59375 1.28125l-1.171875 -0.21875q0.21875 -1.171875 0.984375 -1.8125q0.765625 -0.65625 1.890625 -0.65625q0.78125 0 1.4375 0.34375q0.65625 0.328125 1.0 0.90625q0.359375 0.578125 0.359375 1.234375q0 0.609375 -0.34375 1.125q-0.328125 0.5 -0.96875 0.796875q0.84375 0.203125 1.3125 0.828125q0.46875 0.609375 0.46875 1.53125q0 1.25 -0.921875 2.125q-0.90625 0.859375 -2.296875 0.859375q-1.25 0 -2.09375 -0.75q-0.828125 -0.75 -0.9375 -1.9375z" fill-rule="nonzero"/><path fill="#38761d" d="m366.85565 87.16929l10.1102295 0l0 0l15.165344 0l35.385834 0l0 11.133858l0 0l0 4.77166l0 3.181099l-35.385834 0l-15.165344 0l0 0l-10.1102295 0l0 -3.181099l-22.632782 -3.6221313l22.632782 -1.1495285z" fill-rule="evenodd"/><path fill="#ffffff" d="m382.41956 99.293846l1.203125 0.140625q-0.28125 1.0625 -1.0625 1.65625q-0.765625 0.578125 -1.96875 0.578125q-1.515625 0 -2.40625 -0.9375q-0.890625 -0.9375 -0.890625 -2.609375q0 -1.75 0.890625 -2.703125q0.90625 -0.96875 2.34375 -0.96875q1.390625 0 2.265625 0.9375q0.875 0.9375 0.875 2.65625q0 0.109375 0 0.3125l-5.15625 0q0.0625 1.140625 0.640625 1.75q0.578125 0.59375 1.4375 0.59375q0.65625 0 1.109375 -0.328125q0.453125 -0.34375 0.71875 -1.078125zm-3.84375 -1.90625l3.859375 0q-0.078125 -0.859375 -0.4375 -1.296875q-0.5625 -0.6875 -1.453125 -0.6875q-0.8125 0 -1.359375 0.546875q-0.546875 0.53125 -0.609375 1.4375zm5.7406006 4.125l2.53125 -3.59375l-2.34375 -3.3125l1.46875 0l1.0625 1.609375q0.296875 0.46875 0.484375 0.78125q0.28125 -0.4375 0.515625 -0.765625l1.171875 -1.625l1.40625 0l-2.390625 3.25l2.5625 3.65625l-1.4375 0l-1.421875 -2.140625l-0.375 -0.59375l-1.8125 2.734375l-1.421875 0zm7.4453125 2.65625l0 -9.5625l1.078125 0l0 0.890625q0.375 -0.53125 0.84375 -0.78125q0.484375 -0.265625 1.15625 -0.265625q0.875 0 1.546875 0.453125q0.6875 0.453125 1.03125 1.28125q0.34375 0.828125 0.34375 1.828125q0 1.046875 -0.375 1.90625q-0.375 0.84375 -1.109375 1.296875q-0.71875 0.453125 -1.53125 0.453125q-0.578125 0 -1.046875 -0.25q-0.46875 -0.25 -0.765625 -0.625l0 3.375l-1.171875 0zm1.0625 -6.078125q0 1.34375 0.53125 1.984375q0.546875 0.625 1.3125 0.625q0.78125 0 1.34375 -0.65625q0.5625 -0.65625 0.5625 -2.046875q0 -1.3125 -0.546875 -1.96875q-0.546875 -0.671875 -1.296875 -0.671875q-0.75 0 -1.328125 0.703125q-0.578125 0.703125 -0.578125 2.03125zm5.8968506 0.5625l0 -1.1875l3.59375 0l0 1.1875l-3.59375 0zm8.32901 2.859375l0 -2.28125l-4.140625 0l0 -1.078125l4.34375 -6.1875l0.96875 0l0 6.1875l1.28125 0l0 1.078125l-1.28125 0l0 2.28125l-1.171875 0zm0 -3.359375l0 -4.296875l-2.984375 4.296875l2.984375 0zm7.4124756 3.359375l0 -2.28125l-4.140625 0l0 -1.078125l4.34375 -6.1875l0.96875 0l0 6.1875l1.28125 0l0 1.078125l-1.28125 0l0 2.28125l-1.171875 0zm0 -3.359375l0 -4.296875l-2.984375 4.296875l2.984375 0z" fill-rule="nonzero"/><path fill="#38761d" d="m212.50131 12.975065l10.110245 0l0 0l15.165344 0l35.38582 0l0 11.133858l0 0l0 4.771654l0 3.1811028l-35.38582 0l-15.165344 0l0 0l-10.110245 0l0 -3.1811028l-22.632767 -3.6221294l22.632767 -1.1495247z" fill-rule="evenodd"/><path fill="#ffffff" d="m228.06523 25.099623l1.203125 0.140625q-0.28125 1.0625 -1.0625 1.65625q-0.765625 0.578125 -1.96875 0.578125q-1.515625 0 -2.40625 -0.9375q-0.890625 -0.9375 -0.890625 -2.609375q0 -1.75 0.890625 -2.703125q0.90625 -0.96875 2.34375 -0.96875q1.390625 0 2.265625 0.9375q0.875 0.9375 0.875 2.65625q0 0.109375 0 0.3125l-5.15625 0q0.0625 1.140625 0.640625 1.75q0.578125 0.59375 1.4375 0.59375q0.65625 0 1.109375 -0.328125q0.453125 -0.34375 0.71875 -1.078125zm-3.84375 -1.90625l3.859375 0q-0.078125 -0.859375 -0.4375 -1.296875q-0.5625 -0.6875 -1.453125 -0.6875q-0.8125 0 -1.359375 0.546875q-0.546875 0.53125 -0.609375 1.4375zm5.7406006 4.125l2.53125 -3.59375l-2.34375 -3.3125l1.46875 0l1.0625 1.609375q0.296875 0.46875 0.484375 0.78125q0.28125 -0.4375 0.515625 -0.765625l1.171875 -1.625l1.40625 0l-2.390625 3.25l2.5625 3.65625l-1.4375 0l-1.421875 -2.140625l-0.375 -0.59375l-1.8125 2.734375l-1.421875 0zm7.4453125 2.65625l0 -9.5625l1.078125 0l0 0.890625q0.375 -0.53125 0.84375 -0.78125q0.484375 -0.265625 1.15625 -0.265625q0.875 0 1.546875 0.453125q0.6875 0.453125 1.03125 1.28125q0.34375 0.828125 0.34375 1.828125q0 1.046875 -0.375 1.90625q-0.375 0.84375 -1.109375 1.296875q-0.71875 0.453125 -1.53125 0.453125q-0.578125 0 -1.046875 -0.25q-0.46875 -0.25 -0.765625 -0.625l0 3.375l-1.171875 0zm1.0625 -6.078125q0 1.34375 0.53125 1.984375q0.546875 0.625 1.3125 0.625q0.78125 0 1.34375 -0.65625q0.5625 -0.65625 0.5625 -2.046875q0 -1.3125 -0.546875 -1.96875q-0.546875 -0.671875 -1.296875 -0.671875q-0.75 0 -1.328125 0.703125q-0.578125 0.703125 -0.578125 2.03125zm5.8968506 0.5625l0 -1.1875l3.59375 0l0 1.1875l-3.59375 0zm4.5789948 0.34375l1.171875 -0.15625q0.203125 1.0 0.6875 1.4375q0.484375 0.4375 1.171875 0.4375q0.828125 0 1.390625 -0.578125q0.578125 -0.578125 0.578125 -1.421875q0 -0.796875 -0.53125 -1.3125q-0.515625 -0.53125 -1.328125 -0.53125q-0.34375 0 -0.828125 0.125l0.125 -1.03125q0.125 0.015625 0.1875 0.015625q0.75 0 1.34375 -0.390625q0.609375 -0.390625 0.609375 -1.203125q0 -0.640625 -0.4375 -1.0625q-0.4375 -0.421875 -1.125 -0.421875q-0.6875 0 -1.140625 0.4375q-0.453125 0.421875 -0.59375 1.28125l-1.171875 -0.21875q0.21875 -1.171875 0.984375 -1.8125q0.765625 -0.65625 1.890625 -0.65625q0.78125 0 1.4375 0.34375q0.65625 0.328125 1.0 0.90625q0.359375 0.578125 0.359375 1.234375q0 0.609375 -0.34375 1.125q-0.328125 0.5 -0.96875 0.796875q0.84375 0.203125 1.3125 0.828125q0.46875 0.609375 0.46875 1.53125q0 1.25 -0.921875 2.125q-0.90625 0.859375 -2.296875 0.859375q-1.25 0 -2.09375 -0.75q-0.828125 -0.75 -0.9375 -1.9375zm7.5843506 0.3125l1.125 -0.109375q0.140625 0.796875 0.546875 1.15625q0.40625 0.359375 1.03125 0.359375q0.53125 0 0.9375 -0.25q0.421875 -0.25 0.671875 -0.65625q0.265625 -0.421875 0.4375 -1.125q0.171875 -0.703125 0.171875 -1.421875q0 -0.078125 0 -0.234375q-0.359375 0.546875 -0.96875 0.90625q-0.59375 0.34375 -1.3125 0.34375q-1.1875 0 -2.015625 -0.859375q-0.8125 -0.859375 -0.8125 -2.265625q0 -1.453125 0.859375 -2.328125q0.859375 -0.890625 2.140625 -0.890625q0.9375 0 1.703125 0.5q0.78125 0.5 1.171875 1.4375q0.40625 0.921875 0.40625 2.671875q0 1.828125 -0.40625 2.921875q-0.390625 1.078125 -1.171875 1.640625q-0.78125 0.5625 -1.84375 0.5625q-1.109375 0 -1.828125 -0.609375q-0.703125 -0.625 -0.84375 -1.75zm4.796875 -4.21875q0 -1.0 -0.546875 -1.59375q-0.53125 -0.59375 -1.28125 -0.59375q-0.78125 0 -1.375 0.640625q-0.578125 0.640625 -0.578125 1.65625q0 0.90625 0.546875 1.484375q0.5625 0.5625 1.359375 0.5625q0.828125 0 1.34375 -0.5625q0.53125 -0.578125 0.53125 -1.59375z" fill-rule="nonzero"/><path fill="#38761d" d="m212.50131 47.990814l10.110245 0l0 0l15.165344 0l35.38582 0l0 11.133858l0 0l0 4.771652l0 3.1811066l-35.38582 0l-15.165344 0l0 0l-10.110245 0l0 -3.1811066l-22.632767 -3.6221275l22.632767 -1.1495247z" fill-rule="evenodd"/><path fill="#ffffff" d="m228.06523 60.11537l1.203125 0.140625q-0.28125 1.0625 -1.0625 1.65625q-0.765625 0.578125 -1.96875 0.578125q-1.515625 0 -2.40625 -0.9375q-0.890625 -0.9375 -0.890625 -2.609375q0 -1.75 0.890625 -2.703125q0.90625 -0.96875 2.34375 -0.96875q1.390625 0 2.265625 0.9375q0.875 0.9375 0.875 2.65625q0 0.109375 0 0.3125l-5.15625 0q0.0625 1.140625 0.640625 1.75q0.578125 0.59375 1.4375 0.59375q0.65625 0 1.109375 -0.328125q0.453125 -0.34375 0.71875 -1.078125zm-3.84375 -1.90625l3.859375 0q-0.078125 -0.859375 -0.4375 -1.296875q-0.5625 -0.6875 -1.453125 -0.6875q-0.8125 0 -1.359375 0.546875q-0.546875 0.53125 -0.609375 1.4375zm5.7406006 4.125l2.53125 -3.59375l-2.34375 -3.3125l1.46875 0l1.0625 1.609375q0.296875 0.46875 0.484375 0.78125q0.28125 -0.4375 0.515625 -0.765625l1.171875 -1.625l1.40625 0l-2.390625 3.25l2.5625 3.65625l-1.4375 0l-1.421875 -2.140625l-0.375 -0.59375l-1.8125 2.734375l-1.421875 0zm7.4453125 2.65625l0 -9.5625l1.078125 0l0 0.890625q0.375 -0.53125 0.84375 -0.78125q0.484375 -0.265625 1.15625 -0.265625q0.875 0 1.546875 0.453125q0.6875 0.453125 1.03125 1.28125q0.34375 0.828125 0.34375 1.828125q0 1.046875 -0.375 1.90625q-0.375 0.84375 -1.109375 1.296875q-0.71875 0.453125 -1.53125 0.453125q-0.578125 0 -1.046875 -0.25q-0.46875 -0.25 -0.765625 -0.625l0 3.375l-1.171875 0zm1.0625 -6.078125q0 1.34375 0.53125 1.984375q0.546875 0.625 1.3125 0.625q0.78125 0 1.34375 -0.65625q0.5625 -0.65625 0.5625 -2.046875q0 -1.3125 -0.546875 -1.96875q-0.546875 -0.671875 -1.296875 -0.671875q-0.75 0 -1.328125 0.703125q-0.578125 0.703125 -0.578125 2.03125zm5.8968506 0.5625l0 -1.1875l3.59375 0l0 1.1875l-3.59375 0zm8.328995 2.859375l0 -2.28125l-4.140625 0l0 -1.078125l4.34375 -6.1875l0.96875 0l0 6.1875l1.28125 0l0 1.078125l-1.28125 0l0 2.28125l-1.171875 0zm0 -3.359375l0 -4.296875l-2.984375 4.296875l2.984375 0zm3.6468506 -1.34375q0 -1.6875 0.34375 -2.71875q0.359375 -1.03125 1.046875 -1.59375q0.6875 -0.5625 1.71875 -0.5625q0.78125 0 1.359375 0.3125q0.578125 0.296875 0.953125 0.890625q0.375 0.578125 0.59375 1.421875q0.21875 0.828125 0.21875 2.25q0 1.671875 -0.359375 2.703125q-0.34375 1.03125 -1.03125 1.59375q-0.671875 0.5625 -1.734375 0.5625q-1.375 0 -2.15625 -0.984375q-0.953125 -1.1875 -0.953125 -3.875zm1.203125 0q0 2.34375 0.546875 3.125q0.5625 0.78125 1.359375 0.78125q0.8125 0 1.359375 -0.78125q0.5625 -0.78125 0.5625 -3.125q0 -2.359375 -0.5625 -3.125q-0.546875 -0.78125 -1.359375 -0.78125q-0.8125 0 -1.296875 0.6875q-0.609375 0.875 -0.609375 3.21875z" fill-rule="nonzero"/><path fill="#38761d" d="m212.50131 89.091866l10.110245 0l0 0l15.165344 0l35.38582 0l0 11.133858l0 0l0 4.771652l0 3.181099l-35.38582 0l-15.165344 0l0 0l-10.110245 0l0 -3.181099l-22.632767 -3.6221313l22.632767 -1.1495209z" fill-rule="evenodd"/><path fill="#ffffff" d="m228.06523 101.21642l1.203125 0.140625q-0.28125 1.0625 -1.0625 1.65625q-0.765625 0.578125 -1.96875 0.578125q-1.515625 0 -2.40625 -0.9375q-0.890625 -0.9375 -0.890625 -2.609375q0 -1.75 0.890625 -2.703125q0.90625 -0.96875 2.34375 -0.96875q1.390625 0 2.265625 0.9375q0.875 0.9375 0.875 2.65625q0 0.109375 0 0.3125l-5.15625 0q0.0625 1.140625 0.640625 1.75q0.578125 0.59375 1.4375 0.59375q0.65625 0 1.109375 -0.328125q0.453125 -0.34375 0.71875 -1.078125zm-3.84375 -1.90625l3.859375 0q-0.078125 -0.859375 -0.4375 -1.296875q-0.5625 -0.6875 -1.453125 -0.6875q-0.8125 0 -1.359375 0.546875q-0.546875 0.53125 -0.609375 1.4375zm5.7406006 4.125l2.53125 -3.59375l-2.34375 -3.3125l1.46875 0l1.0625 1.609375q0.296875 0.46875 0.484375 0.78125q0.28125 -0.4375 0.515625 -0.765625l1.171875 -1.625l1.40625 0l-2.390625 3.25l2.5625 3.65625l-1.4375 0l-1.421875 -2.140625l-0.375 -0.59375l-1.8125 2.734375l-1.421875 0zm7.4453125 2.65625l0 -9.5625l1.078125 0l0 0.890625q0.375 -0.53125 0.84375 -0.78125q0.484375 -0.265625 1.15625 -0.265625q0.875 0 1.546875 0.453125q0.6875 0.453125 1.03125 1.28125q0.34375 0.828125 0.34375 1.828125q0 1.046875 -0.375 1.90625q-0.375 0.84375 -1.109375 1.296875q-0.71875 0.453125 -1.53125 0.453125q-0.578125 0 -1.046875 -0.25q-0.46875 -0.25 -0.765625 -0.625l0 3.375l-1.171875 0zm1.0625 -6.078125q0 1.34375 0.53125 1.984375q0.546875 0.625 1.3125 0.625q0.78125 0 1.34375 -0.65625q0.5625 -0.65625 0.5625 -2.046875q0 -1.3125 -0.546875 -1.96875q-0.546875 -0.671875 -1.296875 -0.671875q-0.75 0 -1.328125 0.703125q-0.578125 0.703125 -0.578125 2.03125zm5.8968506 0.5625l0 -1.1875l3.59375 0l0 1.1875l-3.59375 0zm8.328995 2.859375l0 -2.28125l-4.140625 0l0 -1.078125l4.34375 -6.1875l0.96875 0l0 6.1875l1.28125 0l0 1.078125l-1.28125 0l0 2.28125l-1.171875 0zm0 -3.359375l0 -4.296875l-2.984375 4.296875l2.984375 0zm8.068726 3.359375l-1.171875 0l0 -7.46875q-0.421875 0.40625 -1.109375 0.8125q-0.6875 0.40625 -1.234375 0.609375l0 -1.140625q0.984375 -0.453125 1.71875 -1.109375q0.734375 -0.671875 1.03125 -1.28125l0.765625 0l0 9.578125z" fill-rule="nonzero"/></g></svg>