<svg version="1.1" viewBox="0.0 0.0 775.7637795275591 241.4251968503937" fill="none" stroke="none" stroke-linecap="square" stroke-miterlimit="10" xmlns:xlink="http://www.w3.org/1999/xlink" xmlns="http://www.w3.org/2000/svg"><clipPath id="p.0"><path d="m0 0l775.7638 0l0 241.4252l-775.7638 0l0 -241.4252z" clip-rule="nonzero"/></clipPath><g clip-path="url(#p.0)"><path fill="#000000" fill-opacity="0.0" d="m0 0l775.7638 0l0 241.4252l-775.7638 0z" fill-rule="evenodd"/><path fill="#cfe2f3" d="m581.16797 95.062996l0 0c0 -8.349503 6.7686157 -15.118111 15.118103 -15.118111l0 0c4.0095825 0 7.8549194 1.5927963 10.6901245 4.427986c2.835205 2.8351974 4.4279785 6.6805496 4.4279785 10.6901245l0 0c0 8.349495 -6.7685547 15.118103 -15.118103 15.118103l0 0c-8.349487 0 -15.118103 -6.768608 -15.118103 -15.118103z" fill-rule="evenodd"/><path fill="#ff9900" d="m581.16797 135.17586l0 0c0 -8.349503 6.7686157 -15.118118 15.118103 -15.118118l0 0c4.0095825 0 7.8549194 1.5927963 10.6901245 4.427994c2.835205 2.8351974 4.4279785 6.680542 4.4279785 10.6901245l0 0c0 8.349503 -6.7685547 15.118103 -15.118103 15.118103l0 0c-8.349487 0 -15.118103 -6.7686005 -15.118103 -15.118103z" fill-rule="evenodd"/><path fill="#000000" fill-opacity="0.0" d="m610.2152 75.67716l176.56696 0l0 38.77166l-176.56696 0z" fill-rule="evenodd"/><path fill="#000000" d="m624.29333 100.11529q-1.25 0 -2.234375 -0.546875q-0.984375 -0.5625 -1.546875 -1.515625q-0.5625 -0.96875 -0.5625 -2.21875q0 -1.265625 0.5625 -2.21875q0.5625 -0.96875 1.546875 -1.515625q0.984375 -0.546875 2.234375 -0.546875q1.0625 0 1.921875 0.421875q0.875 0.421875 1.375 1.25l-0.859375 0.578125q-0.421875 -0.640625 -1.0625 -0.9375q-0.640625 -0.3125 -1.390625 -0.3125q-0.90625 0 -1.625 0.40625q-0.71875 0.40625 -1.140625 1.140625q-0.40625 0.734375 -0.40625 1.734375q0 0.984375 0.40625 1.71875q0.421875 0.734375 1.140625 1.15625q0.71875 0.40625 1.625 0.40625q0.75 0 1.390625 -0.296875q0.640625 -0.3125 1.0625 -0.9375l0.859375 0.578125q-0.5 0.8125 -1.375 1.234375q-0.859375 0.421875 -1.921875 0.421875zm8.801514 0q-1.21875 0 -2.1875 -0.546875q-0.96875 -0.5625 -1.53125 -1.515625q-0.5625 -0.96875 -0.5625 -2.21875q0 -1.265625 0.5625 -2.21875q0.5625 -0.96875 1.515625 -1.515625q0.96875 -0.546875 2.203125 -0.546875q1.234375 0 2.203125 0.546875q0.96875 0.546875 1.515625 1.515625q0.5625 0.953125 0.5625 2.21875q0 1.25 -0.5625 2.21875q-0.546875 0.953125 -1.53125 1.515625q-0.96875 0.546875 -2.1875 0.546875zm0 -1.0q0.90625 0 1.609375 -0.40625q0.703125 -0.421875 1.109375 -1.15625q0.40625 -0.75 0.40625 -1.71875q0 -1.0 -0.40625 -1.734375q-0.40625 -0.734375 -1.109375 -1.140625q-0.703125 -0.40625 -1.59375 -0.40625q-0.90625 0 -1.609375 0.40625q-0.703125 0.40625 -1.125 1.140625q-0.40625 0.734375 -0.40625 1.734375q0 0.96875 0.40625 1.71875q0.421875 0.734375 1.125 1.15625q0.703125 0.40625 1.59375 0.40625zm9.938293 1.0q-1.1875 0 -2.140625 -0.546875q-0.953125 -0.546875 -1.5 -1.5q-0.546875 -0.96875 -0.546875 -2.234375q0 -1.28125 0.546875 -2.234375q0.546875 -0.96875 1.5 -1.5q0.953125 -0.546875 2.140625 -0.546875q1.109375 0 1.984375 0.5q0.875 0.5 1.390625 1.453125q0.515625 0.953125 0.515625 2.328125q0 1.359375 -0.515625 2.328125q-0.5 0.953125 -1.375 1.453125q-0.875 0.5 -2.0 0.5zm0.09375 -1.0q0.890625 0 1.59375 -0.40625q0.71875 -0.421875 1.125 -1.15625q0.40625 -0.75 0.40625 -1.71875q0 -1.0 -0.40625 -1.734375q-0.40625 -0.734375 -1.125 -1.140625q-0.703125 -0.40625 -1.59375 -0.40625q-0.890625 0 -1.59375 0.40625q-0.703125 0.40625 -1.125 1.140625q-0.40625 0.734375 -0.40625 1.734375q0 0.96875 0.40625 1.71875q0.421875 0.734375 1.125 1.15625q0.703125 0.40625 1.59375 0.40625zm3.15625 0.921875l0 -2.53125l0.109375 -1.6875l-0.15625 -1.703125l0 -5.953125l1.140625 0l0 11.875l-1.09375 0zm7.8323975 0.078125q-1.3125 0 -2.3125 -0.546875q-0.984375 -0.5625 -1.546875 -1.515625q-0.5625 -0.96875 -0.5625 -2.21875q0 -1.25 0.53125 -2.203125q0.546875 -0.96875 1.484375 -1.515625q0.9375 -0.5625 2.09375 -0.5625q1.1875 0 2.109375 0.546875q0.921875 0.53125 1.4375 1.5q0.53125 0.96875 0.53125 2.234375q0 0.078125 -0.015625 0.171875q0 0.078125 0 0.171875l-7.3125 0l0 -0.84375l6.703125 0l-0.4375 0.328125q0 -0.90625 -0.390625 -1.609375q-0.390625 -0.71875 -1.0625 -1.109375q-0.671875 -0.40625 -1.5625 -0.40625q-0.859375 0 -1.546875 0.40625q-0.6875 0.390625 -1.078125 1.109375q-0.375 0.71875 -0.375 1.640625l0 0.1875q0 0.953125 0.421875 1.6875q0.421875 0.71875 1.171875 1.140625q0.765625 0.40625 1.75 0.40625q0.765625 0 1.421875 -0.265625q0.671875 -0.28125 1.15625 -0.84375l0.640625 0.734375q-0.5625 0.671875 -1.40625 1.03125q-0.84375 0.34375 -1.84375 0.34375zm12.215393 3.03125q-0.875 -1.46875 -1.375 -3.375q-0.484375 -1.90625 -0.484375 -4.125q0 -2.203125 0.484375 -4.125q0.5 -1.9375 1.375 -3.359375l1.09375 0q-0.953125 1.65625 -1.390625 3.5q-0.4375 1.84375 -0.4375 3.984375q0 2.15625 0.4375 4.0q0.4375 1.84375 1.390625 3.5l-1.09375 0zm6.920227 0.078125q-1.15625 0 -2.21875 -0.34375q-1.046875 -0.328125 -1.703125 -0.953125l0.578125 -0.859375q0.59375 0.515625 1.453125 0.828125q0.875 0.3125 1.859375 0.3125q1.59375 0 2.34375 -0.75q0.75 -0.734375 0.75 -2.296875l0 -2.09375l0.171875 -1.453125l-0.125 -1.4375l0 -2.546875l1.09375 0l0 7.375q0 2.1875 -1.0625 3.203125q-1.0625 1.015625 -3.140625 1.015625zm-0.21875 -3.5q-1.1875 0 -2.15625 -0.515625q-0.953125 -0.53125 -1.515625 -1.453125q-0.546875 -0.9375 -0.546875 -2.140625q0 -1.1875 0.546875 -2.109375q0.5625 -0.921875 1.515625 -1.4375q0.96875 -0.515625 2.15625 -0.515625q1.125 0 2.015625 0.46875q0.90625 0.46875 1.421875 1.375q0.53125 0.90625 0.53125 2.21875q0 1.3125 -0.53125 2.234375q-0.515625 0.90625 -1.421875 1.390625q-0.890625 0.484375 -2.015625 0.484375zm0.125 -1.015625q0.921875 0 1.640625 -0.390625q0.71875 -0.390625 1.125 -1.078125q0.421875 -0.703125 0.421875 -1.625q0 -0.90625 -0.421875 -1.59375q-0.40625 -0.6875 -1.125 -1.078125q-0.71875 -0.390625 -1.640625 -0.390625q-0.921875 0 -1.65625 0.390625q-0.71875 0.390625 -1.125 1.078125q-0.40625 0.6875 -0.40625 1.59375q0 0.921875 0.40625 1.625q0.40625 0.6875 1.125 1.078125q0.734375 0.390625 1.65625 0.390625zm7.460022 1.328125l0 -8.40625l1.140625 0l0 8.40625l-1.140625 0zm0.578125 -10.25q-0.34375 0 -0.59375 -0.234375q-0.234375 -0.25 -0.234375 -0.59375q0 -0.328125 0.234375 -0.5625q0.25 -0.234375 0.59375 -0.234375q0.359375 0 0.59375 0.234375q0.234375 0.21875 0.234375 0.546875q0 0.359375 -0.234375 0.609375q-0.21875 0.234375 -0.59375 0.234375zm6.382141 10.328125q-1.171875 0 -1.8125 -0.640625q-0.640625 -0.640625 -0.640625 -1.8125l0 -7.875l1.125 0l0 7.8125q0 0.734375 0.375 1.140625q0.375 0.40625 1.09375 0.40625q0.75 0 1.234375 -0.4375l0.40625 0.8125q-0.328125 0.3125 -0.8125 0.453125q-0.46875 0.140625 -0.96875 0.140625zm-3.96875 -7.53125l0 -0.953125l5.203125 0l0 0.953125l-5.203125 0zm15.500549 7.53125q-1.25 0 -2.234375 -0.546875q-0.984375 -0.5625 -1.546875 -1.515625q-0.5625 -0.96875 -0.5625 -2.21875q0 -1.265625 0.5625 -2.21875q0.5625 -0.96875 1.546875 -1.515625q0.984375 -0.546875 2.234375 -0.546875q1.0625 0 1.921875 0.421875q0.875 0.421875 1.375 1.25l-0.859375 0.578125q-0.421875 -0.640625 -1.0625 -0.9375q-0.640625 -0.3125 -1.390625 -0.3125q-0.90625 0 -1.625 0.40625q-0.71875 0.40625 -1.140625 1.140625q-0.40625 0.734375 -0.40625 1.734375q0 0.984375 0.40625 1.71875q0.421875 0.734375 1.140625 1.15625q0.71875 0.40625 1.625 0.40625q0.75 0 1.390625 -0.296875q0.640625 -0.3125 1.0625 -0.9375l0.859375 0.578125q-0.5 0.8125 -1.375 1.234375q-0.859375 0.421875 -1.921875 0.421875zm8.801514 0q-1.21875 0 -2.1875 -0.546875q-0.96875 -0.5625 -1.53125 -1.515625q-0.5625 -0.96875 -0.5625 -2.21875q0 -1.265625 0.5625 -2.21875q0.5625 -0.96875 1.515625 -1.515625q0.96875 -0.546875 2.203125 -0.546875q1.234375 0 2.203125 0.546875q0.96875 0.546875 1.515625 1.515625q0.5625 0.953125 0.5625 2.21875q0 1.25 -0.5625 2.21875q-0.546875 0.953125 -1.53125 1.515625q-0.96875 0.546875 -2.1875 0.546875zm0 -1.0q0.90625 0 1.609375 -0.40625q0.703125 -0.421875 1.109375 -1.15625q0.40625 -0.75 0.40625 -1.71875q0 -1.0 -0.40625 -1.734375q-0.40625 -0.734375 -1.109375 -1.140625q-0.703125 -0.40625 -1.59375 -0.40625q-0.90625 0 -1.609375 0.40625q-0.703125 0.40625 -1.125 1.140625q-0.40625 0.734375 -0.40625 1.734375q0 0.96875 0.40625 1.71875q0.421875 0.734375 1.125 1.15625q0.703125 0.40625 1.59375 0.40625zm17.094482 -7.5625q1.03125 0 1.78125 0.390625q0.765625 0.390625 1.1875 1.203125q0.421875 0.796875 0.421875 2.015625l0 4.875l-1.125 0l0 -4.765625q0 -1.328125 -0.640625 -2.0q-0.625 -0.6875 -1.78125 -0.6875q-0.859375 0 -1.5 0.359375q-0.625 0.359375 -0.96875 1.046875q-0.34375 0.671875 -0.34375 1.625l0 4.421875l-1.140625 0l0 -4.765625q0 -1.328125 -0.640625 -2.0q-0.640625 -0.6875 -1.796875 -0.6875q-0.84375 0 -1.484375 0.359375q-0.640625 0.359375 -0.984375 1.046875q-0.34375 0.671875 -0.34375 1.625l0 4.421875l-1.140625 0l0 -8.40625l1.09375 0l0 2.28125l-0.171875 -0.40625q0.375 -0.90625 1.234375 -1.421875q0.859375 -0.53125 2.03125 -0.53125q1.21875 0 2.078125 0.625q0.875 0.609375 1.125 1.84375l-0.4375 -0.171875q0.359375 -1.03125 1.296875 -1.65625q0.9375 -0.640625 2.25 -0.640625zm16.976013 0q1.03125 0 1.78125 0.390625q0.765625 0.390625 1.1875 1.203125q0.421875 0.796875 0.421875 2.015625l0 4.875l-1.125 0l0 -4.765625q0 -1.328125 -0.640625 -2.0q-0.625 -0.6875 -1.78125 -0.6875q-0.859375 0 -1.5 0.359375q-0.625 0.359375 -0.96875 1.046875q-0.34375 0.671875 -0.34375 1.625l0 4.421875l-1.140625 0l0 -4.765625q0 -1.328125 -0.640625 -2.0q-0.640625 -0.6875 -1.796875 -0.6875q-0.84375 0 -1.484375 0.359375q-0.640625 0.359375 -0.984375 1.046875q-0.34375 0.671875 -0.34375 1.625l0 4.421875l-1.140625 0l0 -8.40625l1.09375 0l0 2.28125l-0.171875 -0.40625q0.375 -0.90625 1.234375 -1.421875q0.859375 -0.53125 2.03125 -0.53125q1.21875 0 2.078125 0.625q0.875 0.609375 1.125 1.84375l-0.4375 -0.171875q0.359375 -1.03125 1.296875 -1.65625q0.9375 -0.640625 2.25 -0.640625zm6.476074 8.484375l0 -8.40625l1.140625 0l0 8.40625l-1.140625 0zm0.578125 -10.25q-0.34375 0 -0.59375 -0.234375q-0.234375 -0.25 -0.234375 -0.59375q0 -0.328125 0.234375 -0.5625q0.25 -0.234375 0.59375 -0.234375q0.359375 0 0.59375 0.234375q0.234375 0.21875 0.234375 0.546875q0 0.359375 -0.234375 0.609375q-0.21875 0.234375 -0.59375 0.234375zm6.382141 10.328125q-1.171875 0 -1.8125 -0.640625q-0.640625 -0.640625 -0.640625 -1.8125l0 -7.875l1.125 0l0 7.8125q0 0.734375 0.375 1.140625q0.375 0.40625 1.09375 0.40625q0.75 0 1.234375 -0.4375l0.40625 0.8125q-0.328125 0.3125 -0.8125 0.453125q-0.46875 0.140625 -0.96875 0.140625zm-3.96875 -7.53125l0 -0.953125l5.203125 0l0 0.953125l-5.203125 0zm7.9647217 10.5625l-1.09375 0q0.953125 -1.65625 1.390625 -3.5q0.453125 -1.84375 0.453125 -4.0q0 -2.140625 -0.453125 -3.984375q-0.4375 -1.84375 -1.390625 -3.5l1.09375 0q0.90625 1.421875 1.375 3.359375q0.484375 1.921875 0.484375 4.125q0 2.21875 -0.484375 4.125q-0.46875 1.90625 -1.375 3.375z" fill-rule="nonzero"/><path fill="#000000" fill-opacity="0.0" d="m610.2152 115.79002l176.56696 0l0 38.771652l-176.56696 0z" fill-rule="evenodd"/><path fill="#000000" d="m624.37146 140.22815q-1.3125 0 -2.3125 -0.546875q-0.984375 -0.5625 -1.546875 -1.515625q-0.5625 -0.96875 -0.5625 -2.21875q0 -1.25 0.53125 -2.203125q0.546875 -0.96875 1.484375 -1.515625q0.9375 -0.5625 2.09375 -0.5625q1.1875 0 2.109375 0.546875q0.921875 0.53125 1.4375 1.5q0.53125 0.96875 0.53125 2.234375q0 0.078125 -0.015625 0.171875q0 0.078125 0 0.171875l-7.3125 0l0 -0.84375l6.703125 0l-0.4375 0.328125q0 -0.90625 -0.390625 -1.609375q-0.390625 -0.71875 -1.0625 -1.109375q-0.671875 -0.40625 -1.5625 -0.40625q-0.859375 0 -1.546875 0.40625q-0.6875 0.390625 -1.078125 1.109375q-0.375 0.71875 -0.375 1.640625l0 0.1875q0 0.953125 0.421875 1.6875q0.421875 0.71875 1.171875 1.140625q0.765625 0.40625 1.75 0.40625q0.765625 0 1.421875 -0.265625q0.671875 -0.28125 1.15625 -0.84375l0.640625 0.734375q-0.5625 0.671875 -1.40625 1.03125q-0.84375 0.34375 -1.84375 0.34375zm4.564636 -0.078125l3.5625 -4.609375l-0.015625 0.5625l-3.375 -4.359375l1.28125 0l2.765625 3.609375l-0.484375 -0.015625l2.765625 -3.59375l1.25 0l-3.40625 4.40625l0.015625 -0.609375l3.578125 4.609375l-1.296875 0l-2.921875 -3.84375l0.453125 0.0625l-2.890625 3.78125l-1.28125 0zm14.169006 0.078125q-1.09375 0 -1.96875 -0.5q-0.875 -0.5 -1.40625 -1.453125q-0.515625 -0.953125 -0.515625 -2.328125q0 -1.375 0.515625 -2.328125q0.515625 -0.953125 1.390625 -1.453125q0.875 -0.5 1.984375 -0.5q1.203125 0 2.15625 0.546875q0.953125 0.53125 1.484375 1.5q0.546875 0.96875 0.546875 2.234375q0 1.28125 -0.546875 2.234375q-0.53125 0.953125 -1.484375 1.5q-0.953125 0.546875 -2.15625 0.546875zm-4.34375 3.03125l0 -11.515625l1.09375 0l0 2.53125l-0.109375 1.6875l0.15625 1.6875l0 5.609375l-1.140625 0zm4.265625 -4.03125q0.890625 0 1.59375 -0.40625q0.703125 -0.421875 1.109375 -1.15625q0.421875 -0.75 0.421875 -1.71875q0 -0.984375 -0.421875 -1.71875q-0.40625 -0.734375 -1.109375 -1.140625q-0.703125 -0.421875 -1.59375 -0.421875q-0.90625 0 -1.625 0.421875q-0.703125 0.40625 -1.109375 1.140625q-0.40625 0.734375 -0.40625 1.71875q0 0.96875 0.40625 1.71875q0.40625 0.734375 1.109375 1.15625q0.71875 0.40625 1.625 0.40625zm10.160522 1.0q-1.3125 0 -2.3125 -0.546875q-0.984375 -0.5625 -1.546875 -1.515625q-0.5625 -0.96875 -0.5625 -2.21875q0 -1.25 0.53125 -2.203125q0.546875 -0.96875 1.484375 -1.515625q0.9375 -0.5625 2.09375 -0.5625q1.1875 0 2.109375 0.546875q0.921875 0.53125 1.4375 1.5q0.53125 0.96875 0.53125 2.234375q0 0.078125 -0.015625 0.171875q0 0.078125 0 0.171875l-7.3125 0l0 -0.84375l6.703125 0l-0.4375 0.328125q0 -0.90625 -0.390625 -1.609375q-0.390625 -0.71875 -1.0625 -1.109375q-0.671875 -0.40625 -1.5625 -0.40625q-0.859375 0 -1.546875 0.40625q-0.6875 0.390625 -1.078125 1.109375q-0.375 0.71875 -0.375 1.640625l0 0.1875q0 0.953125 0.421875 1.6875q0.421875 0.71875 1.171875 1.140625q0.765625 0.40625 1.75 0.40625q0.765625 0 1.421875 -0.265625q0.671875 -0.28125 1.15625 -0.84375l0.640625 0.734375q-0.5625 0.671875 -1.40625 1.03125q-0.84375 0.34375 -1.84375 0.34375zm6.0859375 -0.078125l0 -8.40625l1.09375 0l0 2.296875l-0.109375 -0.40625q0.34375 -0.953125 1.171875 -1.453125q0.84375 -0.515625 2.078125 -0.515625l0 1.109375q-0.0625 0 -0.140625 0q-0.0625 -0.015625 -0.125 -0.015625q-1.328125 0 -2.078125 0.8125q-0.75 0.796875 -0.75 2.296875l0 4.28125l-1.140625 0zm6.287964 0l0 -8.40625l1.140625 0l0 8.40625l-1.140625 0zm0.578125 -10.25q-0.34375 0 -0.59375 -0.234375q-0.234375 -0.25 -0.234375 -0.59375q0 -0.328125 0.234375 -0.5625q0.25 -0.234375 0.59375 -0.234375q0.359375 0 0.59375 0.234375q0.234375 0.21875 0.234375 0.546875q0 0.359375 -0.234375 0.609375q-0.21875 0.234375 -0.59375 0.234375zm14.225891 1.765625q1.03125 0 1.78125 0.390625q0.765625 0.390625 1.1875 1.203125q0.421875 0.796875 0.421875 2.015625l0 4.875l-1.125 0l0 -4.765625q0 -1.328125 -0.640625 -2.0q-0.625 -0.6875 -1.78125 -0.6875q-0.859375 0 -1.5 0.359375q-0.625 0.359375 -0.96875 1.046875q-0.34375 0.671875 -0.34375 1.625l0 4.421875l-1.140625 0l0 -4.765625q0 -1.328125 -0.640625 -2.0q-0.640625 -0.6875 -1.796875 -0.6875q-0.84375 0 -1.484375 0.359375q-0.640625 0.359375 -0.984375 1.046875q-0.34375 0.671875 -0.34375 1.625l0 4.421875l-1.140625 0l0 -8.40625l1.09375 0l0 2.28125l-0.171875 -0.40625q0.375 -0.90625 1.234375 -1.421875q0.859375 -0.53125 2.03125 -0.53125q1.21875 0 2.078125 0.625q0.875 0.609375 1.125 1.84375l-0.4375 -0.171875q0.359375 -1.03125 1.296875 -1.65625q0.9375 -0.640625 2.25 -0.640625zm10.054199 8.5625q-1.3125 0 -2.3125 -0.546875q-0.984375 -0.5625 -1.546875 -1.515625q-0.5625 -0.96875 -0.5625 -2.21875q0 -1.25 0.53125 -2.203125q0.546875 -0.96875 1.484375 -1.515625q0.9375 -0.5625 2.09375 -0.5625q1.1875 0 2.109375 0.546875q0.921875 0.53125 1.4375 1.5q0.53125 0.96875 0.53125 2.234375q0 0.078125 -0.015625 0.171875q0 0.078125 0 0.171875l-7.3125 0l0 -0.84375l6.703125 0l-0.4375 0.328125q0 -0.90625 -0.390625 -1.609375q-0.390625 -0.71875 -1.0625 -1.109375q-0.671875 -0.40625 -1.5625 -0.40625q-0.859375 0 -1.546875 0.40625q-0.6875 0.390625 -1.078125 1.109375q-0.375 0.71875 -0.375 1.640625l0 0.1875q0 0.953125 0.421875 1.6875q0.421875 0.71875 1.171875 1.140625q0.765625 0.40625 1.75 0.40625q0.765625 0 1.421875 -0.265625q0.671875 -0.28125 1.15625 -0.84375l0.640625 0.734375q-0.5625 0.671875 -1.40625 1.03125q-0.84375 0.34375 -1.84375 0.34375zm10.382751 -8.5625q1.015625 0 1.796875 0.390625q0.78125 0.390625 1.21875 1.203125q0.4375 0.796875 0.4375 2.015625l0 4.875l-1.140625 0l0 -4.765625q0 -1.328125 -0.671875 -2.0q-0.65625 -0.6875 -1.859375 -0.6875q-0.890625 0 -1.5625 0.359375q-0.65625 0.359375 -1.015625 1.046875q-0.359375 0.671875 -0.359375 1.625l0 4.421875l-1.140625 0l0 -8.40625l1.09375 0l0 2.3125l-0.171875 -0.4375q0.390625 -0.90625 1.265625 -1.421875q0.890625 -0.53125 2.109375 -0.53125zm9.175415 8.5625q-1.171875 0 -1.8125 -0.640625q-0.640625 -0.640625 -0.640625 -1.8125l0 -7.875l1.125 0l0 7.8125q0 0.734375 0.375 1.140625q0.375 0.40625 1.09375 0.40625q0.75 0 1.234375 -0.4375l0.40625 0.8125q-0.328125 0.3125 -0.8125 0.453125q-0.46875 0.140625 -0.96875 0.140625zm-3.96875 -7.53125l0 -0.953125l5.203125 0l0 0.953125l-5.203125 0z" fill-rule="nonzero"/><path fill="#cfe2f3" d="m11.56168 203.44357l0 0c0 -8.349503 6.768608 -15.118118 15.118111 -15.118118l0 0c4.009571 0 7.8549232 1.592804 10.690117 4.427994c2.8351974 2.835205 4.427994 6.680542 4.427994 10.6901245l0 0c0 8.349503 -6.768608 15.118103 -15.118111 15.118103l0 0c-8.349503 0 -15.118111 -6.7686005 -15.118111 -15.118103z" fill-rule="evenodd"/><path fill="#cfe2f3" d="m49.95538 159.06299l0 0c0 -8.349503 6.768608 -15.118103 15.118114 -15.118103l0 0c4.0095673 0 7.8549194 1.5927887 10.690117 4.427994c2.8351974 2.8351898 4.427994 6.680542 4.427994 10.690109l0 0c0 8.349503 -6.7686157 15.118118 -15.118111 15.118118l0 0c-8.349506 0 -15.118114 -6.7686157 -15.118114 -15.118118z" fill-rule="evenodd"/><path fill="#cfe2f3" d="m106.18635 159.06299l0 0c0 -8.349503 6.7686157 -15.118103 15.118111 -15.118103l0 0c4.009575 0 7.8549194 1.5927887 10.6901245 4.427994c2.8351898 2.8351898 4.427994 6.680542 4.427994 10.690109l0 0c0 8.349503 -6.7686157 15.118118 -15.118118 15.118118l0 0c-8.349495 0 -15.118111 -6.7686157 -15.118111 -15.118118z" fill-rule="evenodd"/><path fill="#ff9900" d="m159.08398 124.55905l0 0c0 -8.349495 6.7686157 -15.118103 15.118118 -15.118103l0 0c4.0095673 0 7.8549194 1.5927963 10.690109 4.427986c2.835205 2.8351974 4.427994 6.6805496 4.427994 10.690117l0 0c0 8.349503 -6.7686005 15.118118 -15.118103 15.118118l0 0c-8.349503 0 -15.118118 -6.7686157 -15.118118 -15.118118z" fill-rule="evenodd"/><path fill="#ff9900" d="m159.08398 84.57743l0 0c0 -8.349503 6.7686157 -15.118111 15.118118 -15.118111l0 0c4.0095673 0 7.8549194 1.5927963 10.690109 4.427986c2.835205 2.8351974 4.427994 6.6805496 4.427994 10.6901245l0 0c0 8.349503 -6.7686005 15.118111 -15.118103 15.118111l0 0c-8.349503 0 -15.118118 -6.768608 -15.118118 -15.118111z" fill-rule="evenodd"/><path fill="#ff9900" d="m159.08398 44.595802l0 0c0 -8.349503 6.7686157 -15.118113 15.118118 -15.118113l0 0c4.0095673 0 7.8549194 1.5927963 10.690109 4.427992c2.835205 2.8351974 4.427994 6.680546 4.427994 10.690121l0 0c0 8.349499 -6.7686005 15.118107 -15.118103 15.118107l0 0c-8.349503 0 -15.118118 -6.768608 -15.118118 -15.118107z" fill-rule="evenodd"/><path fill="#ff9900" d="m212.979 63.677166l0 0c0 -8.349503 6.7686005 -15.118111 15.118103 -15.118111l0 0c4.0095825 0 7.8549347 1.5927963 10.6901245 4.42799c2.8351898 2.8351974 4.427994 6.6805496 4.427994 10.690121l0 0c0 8.349499 -6.7686157 15.118107 -15.118118 15.118107l0 0c-8.349503 0 -15.118103 -6.768608 -15.118103 -15.118107z" fill-rule="evenodd"/><path fill="#ff9900" d="m212.979 21.976377l0 0c0 -8.349502 6.7686005 -15.11811 15.118103 -15.11811l0 0c4.0095825 0 7.8549347 1.5927963 10.6901245 4.427992c2.8351898 2.8351955 4.427994 6.6805468 4.427994 10.690118l0 0c0 8.349503 -6.7686157 15.118113 -15.118118 15.118113l0 0c-8.349503 0 -15.118103 -6.76861 -15.118103 -15.118113z" fill-rule="evenodd"/><path fill="#cfe2f3" d="m212.50131 159.06299l0 0c0 -8.349503 6.7686157 -15.118103 15.118103 -15.118103l0 0c4.0095825 0 7.8549347 1.5927887 10.6901245 4.427994c2.8351898 2.8351898 4.427994 6.680542 4.427994 10.690109l0 0c0 8.349503 -6.7686157 15.118118 -15.118118 15.118118l0 0c-8.349487 0 -15.118103 -6.7686157 -15.118103 -15.118118z" fill-rule="evenodd"/><path fill="#cfe2f3" d="m268.98163 159.06299l0 0c0 -8.349503 6.7686157 -15.118103 15.118103 -15.118103l0 0c4.0095825 0 7.8549194 1.5927887 10.6901245 4.427994c2.835205 2.8351898 4.4279785 6.680542 4.4279785 10.690109l0 0c0 8.349503 -6.768585 15.118118 -15.118103 15.118118l0 0c-8.349487 0 -15.118103 -6.7686157 -15.118103 -15.118118z" fill-rule="evenodd"/><path fill="#ff9900" d="m312.27036 124.55905l0 0c0 -8.349495 6.768585 -15.118103 15.118103 -15.118103l0 0c4.009552 0 7.8549194 1.5927963 10.6901245 4.427986c2.8351746 2.8351974 4.4279785 6.6805496 4.4279785 10.690117l0 0c0 8.349503 -6.7686157 15.118118 -15.118103 15.118118l0 0c-8.349518 0 -15.118103 -6.7686157 -15.118103 -15.118118z" fill-rule="evenodd"/><path fill="#ff9900" d="m312.27036 84.57743l0 0c0 -8.349503 6.768585 -15.118111 15.118103 -15.118111l0 0c4.009552 0 7.8549194 1.5927963 10.6901245 4.427986c2.8351746 2.8351974 4.4279785 6.6805496 4.4279785 10.6901245l0 0c0 8.349503 -6.7686157 15.118111 -15.118103 15.118111l0 0c-8.349518 0 -15.118103 -6.768608 -15.118103 -15.118111z" fill-rule="evenodd"/><path fill="#ff9900" d="m312.27036 44.595802l0 0c0 -8.349503 6.768585 -15.118113 15.118103 -15.118113l0 0c4.009552 0 7.8549194 1.5927963 10.6901245 4.427992c2.8351746 2.8351974 4.4279785 6.680546 4.4279785 10.690121l0 0c0 8.349499 -6.7686157 15.118107 -15.118103 15.118107l0 0c-8.349518 0 -15.118103 -6.768608 -15.118103 -15.118107z" fill-rule="evenodd"/><path fill="#ff9900" d="m366.16534 102.3937l0 0c0 -8.349503 6.7686157 -15.118111 15.118134 -15.118111l0 0c4.009552 0 7.8549194 1.5927963 10.690094 4.427994c2.835205 2.8351974 4.428009 6.6805496 4.428009 10.690117l0 0c0 8.349503 -6.7686157 15.118111 -15.118103 15.118111l0 0c-8.349518 0 -15.118134 -6.768608 -15.118134 -15.118111z" fill-rule="evenodd"/><path fill="#ff9900" d="m366.16534 54.341206l0 0c0 -8.349499 6.7686157 -15.118107 15.118134 -15.118107l0 0c4.009552 0 7.8549194 1.5927963 10.690094 4.42799c2.835205 2.8351974 4.428009 6.680546 4.428009 10.690117l0 0c0 8.349503 -6.7686157 15.118114 -15.118103 15.118114l0 0c-8.349518 0 -15.118134 -6.768612 -15.118134 -15.118114z" fill-rule="evenodd"/><path fill="#cfe2f3" d="m409.0 159.06299l0 0c0 -8.349503 6.7686157 -15.118103 15.118103 -15.118103l0 0c4.0095825 0 7.8549194 1.5927887 10.6901245 4.427994c2.835205 2.8351898 4.4279785 6.680542 4.4279785 10.690109l0 0c0 8.349503 -6.768585 15.118118 -15.118103 15.118118l0 0c-8.349487 0 -15.118103 -6.7686157 -15.118103 -15.118118z" fill-rule="evenodd"/><path fill="#cfe2f3" d="m468.063 203.44357l0 0c0 -8.349503 6.7686157 -15.118118 15.118103 -15.118118l0 0c4.0095825 0 7.8549194 1.592804 10.6901245 4.427994c2.835205 2.835205 4.428009 6.680542 4.428009 10.6901245l0 0c0 8.349503 -6.7686157 15.118103 -15.118134 15.118103l0 0c-8.349487 0 -15.118103 -6.7686005 -15.118103 -15.118103z" fill-rule="evenodd"/><path fill="#000000" fill-opacity="0.0" d="m41.7979 203.44357l426.2677 0" fill-rule="evenodd"/><path stroke="#000000" stroke-width="1.0" stroke-linejoin="round" stroke-linecap="butt" d="m41.7979 203.44357l420.2677 0" fill-rule="evenodd"/><path fill="#000000" stroke="#000000" stroke-width="1.0" stroke-linecap="butt" d="m462.0656 205.0953l4.5381165 -1.6517334l-4.5381165 -1.6517334z" fill-rule="evenodd"/><path fill="#000000" fill-opacity="0.0" d="m434.80823 169.75311l37.66928 22.992126" fill-rule="evenodd"/><path stroke="#000000" stroke-width="1.0" stroke-linejoin="round" stroke-linecap="butt" d="m434.80823 169.75311l32.547913 19.86621" fill-rule="evenodd"/><path fill="#000000" stroke="#000000" stroke-width="1.0" stroke-linecap="butt" d="m466.4956 191.02917l4.7341003 0.95443726l-3.013031 -3.7741547z" fill-rule="evenodd"/><path fill="#000000" fill-opacity="0.0" d="m37.369907 192.75345l17.007874 -22.992126" fill-rule="evenodd"/><path stroke="#000000" stroke-width="1.0" stroke-linejoin="round" stroke-linecap="butt" d="m37.36991 192.75345l13.439667 -18.168427" fill-rule="evenodd"/><path fill="#000000" stroke="#000000" stroke-width="1.0" stroke-linecap="butt" d="m52.137486 175.56729l1.370903 -4.6306763l-4.0267143 2.6661072z" fill-rule="evenodd"/><path fill="#000000" fill-opacity="0.0" d="m80.191605 159.06299l25.984245 0" fill-rule="evenodd"/><path stroke="#000000" stroke-width="1.0" stroke-linejoin="round" stroke-linecap="butt" d="m80.191605 159.06299l19.984245 0" fill-rule="evenodd"/><path fill="#000000" stroke="#000000" stroke-width="1.0" stroke-linecap="butt" d="m100.17585 160.71472l4.538101 -1.6517334l-4.538101 -1.6517334z" fill-rule="evenodd"/><path fill="#000000" fill-opacity="0.0" d="m136.40683 159.06299l76.09448 0" fill-rule="evenodd"/><path stroke="#000000" stroke-width="1.0" stroke-linejoin="round" stroke-linecap="butt" d="m136.40683 159.06299l70.09448 0" fill-rule="evenodd"/><path fill="#000000" stroke="#000000" stroke-width="1.0" stroke-linecap="butt" d="m206.50131 160.71472l4.538101 -1.6517334l-4.538101 -1.6517334z" fill-rule="evenodd"/><path fill="#000000" fill-opacity="0.0" d="m242.73753 159.06299l26.236221 0" fill-rule="evenodd"/><path stroke="#000000" stroke-width="1.0" stroke-linejoin="round" stroke-linecap="butt" d="m242.73753 159.06299l20.236221 0" fill-rule="evenodd"/><path fill="#000000" stroke="#000000" stroke-width="1.0" stroke-linecap="butt" d="m262.97375 160.71472l4.538086 -1.6517334l-4.538086 -1.6517334z" fill-rule="evenodd"/><path fill="#000000" fill-opacity="0.0" d="m299.21783 159.06299l109.79529 0" fill-rule="evenodd"/><path stroke="#000000" stroke-width="1.0" stroke-linejoin="round" stroke-linecap="butt" d="m299.21783 159.06299l103.79529 0" fill-rule="evenodd"/><path fill="#000000" stroke="#000000" stroke-width="1.0" stroke-linecap="butt" d="m403.01312 160.71472l4.538086 -1.6517334l-4.538086 -1.6517334z" fill-rule="evenodd"/><path fill="#000000" fill-opacity="0.0" d="m121.30446 143.94489l37.795273 -19.370079" fill-rule="evenodd"/><path stroke="#000000" stroke-width="1.0" stroke-linejoin="round" stroke-linecap="butt" d="m121.30446 143.94489l32.45569 -16.633537" fill-rule="evenodd"/><path fill="#000000" stroke="#000000" stroke-width="1.0" stroke-linecap="butt" d="m154.51347 128.78128l3.285263 -3.5397186l-4.791931 0.5998535z" fill-rule="evenodd"/><path fill="#000000" fill-opacity="0.0" d="m121.30446 143.94489l42.204727 -48.692917" fill-rule="evenodd"/><path stroke="#000000" stroke-width="1.0" stroke-linejoin="round" stroke-linecap="butt" d="m121.30446 143.94489l38.274918 -44.15898" fill-rule="evenodd"/><path fill="#000000" stroke="#000000" stroke-width="1.0" stroke-linecap="butt" d="m160.82753 100.867744l1.7241516 -4.511078l-4.2204437 2.347412z" fill-rule="evenodd"/><path fill="#000000" fill-opacity="0.0" d="m121.30446 143.94489l42.204727 -88.66142" fill-rule="evenodd"/><path stroke="#000000" stroke-width="1.0" stroke-linejoin="round" stroke-linecap="butt" d="m121.30446 143.94489l39.62587 -83.243904" fill-rule="evenodd"/><path fill="#000000" stroke="#000000" stroke-width="1.0" stroke-linecap="butt" d="m162.4217 61.41091l0.45913696 -4.8074646l-3.4418945 3.3876076z" fill-rule="evenodd"/><path fill="#000000" fill-opacity="0.0" d="m189.3202 44.595802l23.65355 19.086613" fill-rule="evenodd"/><path stroke="#000000" stroke-width="1.0" stroke-linejoin="round" stroke-linecap="butt" d="m189.3202 44.595802l18.984146 15.318764" fill-rule="evenodd"/><path fill="#000000" stroke="#000000" stroke-width="1.0" stroke-linecap="butt" d="m207.2671 61.199997l4.5689545 1.5643806l-2.494461 -4.1352463z" fill-rule="evenodd"/><path fill="#000000" fill-opacity="0.0" d="m189.3202 44.595802l23.65355 -22.614176" fill-rule="evenodd"/><path stroke="#000000" stroke-width="1.0" stroke-linejoin="round" stroke-linecap="butt" d="m189.3202 44.595802l19.31668 -18.467888" fill-rule="evenodd"/><path fill="#000000" stroke="#000000" stroke-width="1.0" stroke-linecap="butt" d="m209.77832 27.3218l2.1387634 -4.3299294l-4.4216156 1.9421558z" fill-rule="evenodd"/><path fill="#000000" fill-opacity="0.0" d="m284.09973 143.94489l28.157501 -19.370079" fill-rule="evenodd"/><path stroke="#000000" stroke-width="1.0" stroke-linejoin="round" stroke-linecap="butt" d="m284.09973 143.94489l23.214203 -15.969505" fill-rule="evenodd"/><path fill="#000000" stroke="#000000" stroke-width="1.0" stroke-linecap="butt" d="m308.2501 129.33621l2.8027039 -3.9328537l-4.674988 1.2111969z" fill-rule="evenodd"/><path fill="#000000" fill-opacity="0.0" d="m284.09973 143.94489l28.157501 -59.37008" fill-rule="evenodd"/><path stroke="#000000" stroke-width="1.0" stroke-linejoin="round" stroke-linecap="butt" d="m284.09973 143.94489l25.586365 -53.948883" fill-rule="evenodd"/><path fill="#000000" stroke="#000000" stroke-width="1.0" stroke-linecap="butt" d="m311.1785 90.7038l0.4522705 -4.808113l-3.4370728 3.392517z" fill-rule="evenodd"/><path fill="#000000" fill-opacity="0.0" d="m284.09973 143.94489l28.157501 -99.338585" fill-rule="evenodd"/><path stroke="#000000" stroke-width="1.0" stroke-linejoin="round" stroke-linecap="butt" d="m284.09973 143.94489l26.52124 -93.565994" fill-rule="evenodd"/><path fill="#000000" stroke="#000000" stroke-width="1.0" stroke-linecap="butt" d="m312.2101 50.82932l-0.3515625 -4.8165283l-2.8266907 3.9156532z" fill-rule="evenodd"/><path fill="#000000" fill-opacity="0.0" d="m342.50656 84.57743l28.094482 -19.55906" fill-rule="evenodd"/><path stroke="#000000" stroke-width="1.0" stroke-linejoin="round" stroke-linecap="butt" d="m342.50656 84.57743l23.170288 -16.13089" fill-rule="evenodd"/><path fill="#000000" stroke="#000000" stroke-width="1.0" stroke-linecap="butt" d="m366.6206 69.80212l2.7806702 -3.948471l-4.668152 1.23732z" fill-rule="evenodd"/><path fill="#000000" fill-opacity="0.0" d="m342.50656 84.57743l23.653534 17.826767" fill-rule="evenodd"/><path stroke="#000000" stroke-width="1.0" stroke-linejoin="round" stroke-linecap="butt" d="m342.50656 84.57743l18.861969 14.215546" fill-rule="evenodd"/><path fill="#000000" stroke="#000000" stroke-width="1.0" stroke-linecap="butt" d="m360.37442 100.112045l4.618225 1.4122772l-2.6299744 -4.0504074z" fill-rule="evenodd"/><path fill="#ff9900" d="m450.30972 124.55905l0 0c0 -8.349495 6.768585 -15.118103 15.118103 -15.118103l0 0c4.0095825 0 7.8549194 1.5927963 10.6901245 4.427986c2.8351746 2.8351974 4.4279785 6.6805496 4.4279785 10.690117l0 0c0 8.349503 -6.7686157 15.118118 -15.118103 15.118118l0 0c-8.349518 0 -15.118103 -6.7686157 -15.118103 -15.118118z" fill-rule="evenodd"/><path fill="#ff9900" d="m450.30972 84.57743l0 0c0 -8.349503 6.768585 -15.118111 15.118103 -15.118111l0 0c4.0095825 0 7.8549194 1.5927963 10.6901245 4.427986c2.8351746 2.8351974 4.4279785 6.6805496 4.4279785 10.6901245l0 0c0 8.349503 -6.7686157 15.118111 -15.118103 15.118111l0 0c-8.349518 0 -15.118103 -6.768608 -15.118103 -15.118111z" fill-rule="evenodd"/><path fill="#ff9900" d="m450.30972 44.595802l0 0c0 -8.349503 6.768585 -15.118113 15.118103 -15.118113l0 0c4.0095825 0 7.8549194 1.5927963 10.6901245 4.427992c2.8351746 2.8351974 4.4279785 6.680546 4.4279785 10.690121l0 0c0 8.349499 -6.7686157 15.118107 -15.118103 15.118107l0 0c-8.349518 0 -15.118103 -6.768608 -15.118103 -15.118107z" fill-rule="evenodd"/><path fill="#000000" fill-opacity="0.0" d="m424.1181 143.94489l26.204742 -19.370079" fill-rule="evenodd"/><path stroke="#000000" stroke-width="1.0" stroke-linejoin="round" stroke-linecap="butt" d="m424.1181 143.94489l21.379791 -15.803574" fill-rule="evenodd"/><path fill="#000000" stroke="#000000" stroke-width="1.0" stroke-linecap="butt" d="m446.4797 129.46956l2.6675415 -4.025772l-4.6311646 1.369278z" fill-rule="evenodd"/><path fill="#000000" fill-opacity="0.0" d="m424.1181 143.94489l26.204742 -59.37008" fill-rule="evenodd"/><path stroke="#000000" stroke-width="1.0" stroke-linejoin="round" stroke-linecap="butt" d="m424.1181 143.94489l23.781952 -53.88099" fill-rule="evenodd"/><path fill="#000000" stroke="#000000" stroke-width="1.0" stroke-linecap="butt" d="m449.41113 90.73086l0.32138062 -4.818634l-3.3435364 3.4847107z" fill-rule="evenodd"/><path fill="#000000" fill-opacity="0.0" d="m424.1181 143.94489l26.204742 -99.338585" fill-rule="evenodd"/><path stroke="#000000" stroke-width="1.0" stroke-linejoin="round" stroke-linecap="butt" d="m424.1181 143.94489l24.674347 -93.53705" fill-rule="evenodd"/><path fill="#000000" stroke="#000000" stroke-width="1.0" stroke-linecap="butt" d="m450.38953 50.829144l-0.4395752 -4.8092957l-2.7546082 3.96669z" fill-rule="evenodd"/><path fill="#cfe2f3" d="m532.5748 203.44357l0 0c0 -8.349503 6.7685547 -15.118118 15.118103 -15.118118l0 0c4.0095825 0 7.8549194 1.592804 10.6901245 4.427994c2.835144 2.835205 4.4279785 6.680542 4.4279785 10.6901245l0 0c0 8.349503 -6.7686157 15.118103 -15.118103 15.118103l0 0c-8.349548 0 -15.118103 -6.7686005 -15.118103 -15.118103z" fill-rule="evenodd"/><path fill="#000000" fill-opacity="0.0" d="m498.3071 203.44357l34.26773 0" fill-rule="evenodd"/><path stroke="#000000" stroke-width="1.0" stroke-linejoin="round" stroke-linecap="butt" d="m498.3071 203.44357l28.26773 0" fill-rule="evenodd"/><path fill="#000000" stroke="#000000" stroke-width="1.0" stroke-linecap="butt" d="m526.5748 205.0953l4.538086 -1.6517334l-4.538086 -1.6517334z" fill-rule="evenodd"/></g></svg>