<svg version="1.1" viewBox="0.0 0.0 740.8372703412074 185.66929133858267" fill="none" stroke="none" stroke-linecap="square" stroke-miterlimit="10" xmlns:xlink="http://www.w3.org/1999/xlink" xmlns="http://www.w3.org/2000/svg"><clipPath id="p.0"><path d="m0 0l740.8373 0l0 185.6693l-740.8373 0l0 -185.6693z" clip-rule="nonzero"/></clipPath><g clip-path="url(#p.0)"><path fill="#000000" fill-opacity="0.0" d="m0 0l740.8373 0l0 185.6693l-740.8373 0z" fill-rule="evenodd"/><path fill="#cfe2f3" d="m445.16797 63.062992l0 0c0 -8.349503 6.7686157 -15.118111 15.118134 -15.118111l0 0c4.009552 0 7.8549194 1.5927963 10.690094 4.427994c2.835205 2.8351936 4.428009 6.680546 4.428009 10.690117l0 0c0 8.349499 -6.7686157 15.118107 -15.118103 15.118107l0 0c-8.349518 0 -15.118134 -6.768608 -15.118134 -15.118107z" fill-rule="evenodd"/><path fill="#000000" fill-opacity="0.0" d="m474.2152 43.677166l176.56696 0l0 38.771656l-176.56696 0z" fill-rule="evenodd"/><path fill="#000000" d="m488.29333 68.11529q-1.25 0 -2.234375 -0.546875q-0.984375 -0.5625 -1.546875 -1.515625q-0.5625 -0.96875 -0.5625 -2.2187462q0 -1.265625 0.5625 -2.21875q0.5625 -0.96875 1.546875 -1.515625q0.984375 -0.546875 2.234375 -0.546875q1.0625 0 1.921875 0.421875q0.875 0.421875 1.375 1.25l-0.859375 0.578125q-0.421875 -0.640625 -1.0625 -0.9375q-0.640625 -0.3125 -1.390625 -0.3125q-0.90625 0 -1.625 0.40625q-0.71875 0.40625 -1.140625 1.140625q-0.40625 0.734375 -0.40625 1.734375q0 0.9843712 0.40625 1.7187462q0.421875 0.734375 1.140625 1.15625q0.71875 0.40625 1.625 0.40625q0.75 0 1.390625 -0.296875q0.640625 -0.3125 1.0625 -0.9375l0.859375 0.578125q-0.5 0.8125 -1.375 1.234375q-0.859375 0.421875 -1.921875 0.421875zm8.801514 0q-1.21875 0 -2.1875 -0.546875q-0.96875 -0.5625 -1.53125 -1.515625q-0.5625 -0.96875 -0.5625 -2.2187462q0 -1.265625 0.5625 -2.21875q0.5625 -0.96875 1.515625 -1.515625q0.96875 -0.546875 2.203125 -0.546875q1.234375 0 2.203125 0.546875q0.96875 0.546875 1.515625 1.515625q0.5625 0.953125 0.5625 2.21875q0 1.2499962 -0.5625 2.2187462q-0.546875 0.953125 -1.53125 1.515625q-0.96875 0.546875 -2.1875 0.546875zm0 -1.0q0.90625 0 1.609375 -0.40625q0.703125 -0.421875 1.109375 -1.15625q0.40625 -0.75 0.40625 -1.7187462q0 -1.0 -0.40625 -1.734375q-0.40625 -0.734375 -1.109375 -1.140625q-0.703125 -0.40625 -1.59375 -0.40625q-0.90625 0 -1.609375 0.40625q-0.703125 0.40625 -1.125 1.140625q-0.40625 0.734375 -0.40625 1.734375q0 0.9687462 0.40625 1.7187462q0.421875 0.734375 1.125 1.15625q0.703125 0.40625 1.59375 0.40625zm9.938263 1.0q-1.1875 0 -2.140625 -0.546875q-0.953125 -0.546875 -1.5 -1.5q-0.546875 -0.96875 -0.546875 -2.2343712q0 -1.28125 0.546875 -2.234375q0.546875 -0.96875 1.5 -1.5q0.953125 -0.546875 2.140625 -0.546875q1.109375 0 1.984375 0.5q0.875 0.5 1.390625 1.453125q0.515625 0.953125 0.515625 2.328125q0 1.3593712 -0.515625 2.3281212q-0.5 0.953125 -1.375 1.453125q-0.875 0.5 -2.0 0.5zm0.09375 -1.0q0.890625 0 1.59375 -0.40625q0.71875 -0.421875 1.125 -1.15625q0.40625 -0.75 0.40625 -1.7187462q0 -1.0 -0.40625 -1.734375q-0.40625 -0.734375 -1.125 -1.140625q-0.703125 -0.40625 -1.59375 -0.40625q-0.890625 0 -1.59375 0.40625q-0.703125 0.40625 -1.125 1.140625q-0.40625 0.734375 -0.40625 1.734375q0 0.9687462 0.40625 1.7187462q0.421875 0.734375 1.125 1.15625q0.703125 0.40625 1.59375 0.40625zm3.15625 0.921875l0 -2.53125l0.109375 -1.6874962l-0.15625 -1.703125l0 -5.953125l1.140625 0l0 11.874996l-1.09375 0zm7.832428 0.078125q-1.3125 0 -2.3125 -0.546875q-0.984375 -0.5625 -1.546875 -1.515625q-0.5625 -0.96875 -0.5625 -2.2187462q0 -1.25 0.53125 -2.203125q0.546875 -0.96875 1.484375 -1.515625q0.9375 -0.5625 2.09375 -0.5625q1.1875 0 2.109375 0.546875q0.921875 0.53125 1.4375 1.5q0.53125 0.96875 0.53125 2.234375q0 0.078125 -0.015625 0.17187119q0 0.078125 0 0.171875l-7.3125 0l0 -0.8437462l6.703125 0l-0.4375 0.328125q0 -0.90625 -0.390625 -1.609375q-0.390625 -0.71875 -1.0625 -1.109375q-0.671875 -0.40625 -1.5625 -0.40625q-0.859375 0 -1.546875 0.40625q-0.6875 0.390625 -1.078125 1.109375q-0.375 0.71875 -0.375 1.640625l0 0.1875q0 0.9531212 0.421875 1.6874962q0.421875 0.71875 1.171875 1.140625q0.765625 0.40625 1.75 0.40625q0.765625 0 1.421875 -0.265625q0.671875 -0.28125 1.15625 -0.84375l0.640625 0.734375q-0.5625 0.671875 -1.40625 1.03125q-0.84375 0.34375 -1.84375 0.34375zm12.215393 3.03125q-0.875 -1.46875 -1.375 -3.375q-0.484375 -1.90625 -0.484375 -4.124996q0 -2.203125 0.484375 -4.125q0.5 -1.9375 1.375 -3.359375l1.09375 0q-0.953125 1.65625 -1.390625 3.5q-0.4375 1.84375 -0.4375 3.984375q0 2.1562462 0.4375 3.9999962q0.4375 1.84375 1.390625 3.5l-1.09375 0zm6.920227 0.078125q-1.15625 0 -2.21875 -0.34375q-1.046875 -0.328125 -1.703125 -0.953125l0.578125 -0.859375q0.59375 0.515625 1.453125 0.828125q0.875 0.3125 1.859375 0.3125q1.59375 0 2.34375 -0.75q0.75 -0.734375 0.75 -2.296875l0 -2.09375l0.171875 -1.4531212l-0.125 -1.4375l0 -2.546875l1.09375 0l0 7.374996q0 2.1875 -1.0625 3.203125q-1.0625 1.015625 -3.140625 1.015625zm-0.21875 -3.5q-1.1875 0 -2.15625 -0.515625q-0.953125 -0.53125 -1.515625 -1.453125q-0.546875 -0.9375 -0.546875 -2.1406212q0 -1.1875 0.546875 -2.109375q0.5625 -0.921875 1.515625 -1.4375q0.96875 -0.515625 2.15625 -0.515625q1.125 0 2.015625 0.46875q0.90625 0.46875 1.421875 1.375q0.53125 0.90625 0.53125 2.21875q0 1.3124962 -0.53125 2.2343712q-0.515625 0.90625 -1.421875 1.390625q-0.890625 0.484375 -2.015625 0.484375zm0.125 -1.015625q0.921875 0 1.640625 -0.390625q0.71875 -0.390625 1.125 -1.078125q0.421875 -0.703125 0.421875 -1.6249962q0 -0.90625 -0.421875 -1.59375q-0.40625 -0.6875 -1.125 -1.078125q-0.71875 -0.390625 -1.640625 -0.390625q-0.921875 0 -1.65625 0.390625q-0.71875 0.390625 -1.125 1.078125q-0.40625 0.6875 -0.40625 1.59375q0 0.9218712 0.40625 1.6249962q0.40625 0.6875 1.125 1.078125q0.734375 0.390625 1.65625 0.390625zm7.460022 1.328125l0 -8.406246l1.140625 0l0 8.406246l-1.140625 0zm0.578125 -10.249996q-0.34375 0 -0.59375 -0.234375q-0.234375 -0.25 -0.234375 -0.59375q0 -0.328125 0.234375 -0.5625q0.25 -0.234375 0.59375 -0.234375q0.359375 0 0.59375 0.234375q0.234375 0.21875 0.234375 0.546875q0 0.359375 -0.234375 0.609375q-0.21875 0.234375 -0.59375 0.234375zm6.382141 10.328121q-1.171875 0 -1.8125 -0.640625q-0.640625 -0.640625 -0.640625 -1.8125l0 -7.874996l1.125 0l0 7.812496q0 0.734375 0.375 1.140625q0.375 0.40625 1.09375 0.40625q0.75 0 1.234375 -0.4375l0.40625 0.8125q-0.328125 0.3125 -0.8125 0.453125q-0.46875 0.140625 -0.96875 0.140625zm-3.96875 -7.531246l0 -0.953125l5.203125 0l0 0.953125l-5.203125 0zm15.500549 7.531246q-1.25 0 -2.234375 -0.546875q-0.984375 -0.5625 -1.546875 -1.515625q-0.5625 -0.96875 -0.5625 -2.2187462q0 -1.265625 0.5625 -2.21875q0.5625 -0.96875 1.546875 -1.515625q0.984375 -0.546875 2.234375 -0.546875q1.0625 0 1.921875 0.421875q0.875 0.421875 1.375 1.25l-0.859375 0.578125q-0.421875 -0.640625 -1.0625 -0.9375q-0.640625 -0.3125 -1.390625 -0.3125q-0.90625 0 -1.625 0.40625q-0.71875 0.40625 -1.140625 1.140625q-0.40625 0.734375 -0.40625 1.734375q0 0.9843712 0.40625 1.7187462q0.421875 0.734375 1.140625 1.15625q0.71875 0.40625 1.625 0.40625q0.75 0 1.390625 -0.296875q0.640625 -0.3125 1.0625 -0.9375l0.859375 0.578125q-0.5 0.8125 -1.375 1.234375q-0.859375 0.421875 -1.921875 0.421875zm8.801514 0q-1.21875 0 -2.1875 -0.546875q-0.96875 -0.5625 -1.53125 -1.515625q-0.5625 -0.96875 -0.5625 -2.2187462q0 -1.265625 0.5625 -2.21875q0.5625 -0.96875 1.515625 -1.515625q0.96875 -0.546875 2.203125 -0.546875q1.234375 0 2.203125 0.546875q0.96875 0.546875 1.515625 1.515625q0.5625 0.953125 0.5625 2.21875q0 1.2499962 -0.5625 2.2187462q-0.546875 0.953125 -1.53125 1.515625q-0.96875 0.546875 -2.1875 0.546875zm0 -1.0q0.90625 0 1.609375 -0.40625q0.703125 -0.421875 1.109375 -1.15625q0.40625 -0.75 0.40625 -1.7187462q0 -1.0 -0.40625 -1.734375q-0.40625 -0.734375 -1.109375 -1.140625q-0.703125 -0.40625 -1.59375 -0.40625q-0.90625 0 -1.609375 0.40625q-0.703125 0.40625 -1.125 1.140625q-0.40625 0.734375 -0.40625 1.734375q0 0.9687462 0.40625 1.7187462q0.421875 0.734375 1.125 1.15625q0.703125 0.40625 1.59375 0.40625zm17.094482 -7.562496q1.03125 0 1.78125 0.390625q0.765625 0.390625 1.1875 1.203125q0.421875 0.796875 0.421875 2.015625l0 4.874996l-1.125 0l0 -4.765621q0 -1.328125 -0.640625 -2.0q-0.625 -0.6875 -1.78125 -0.6875q-0.859375 0 -1.5 0.359375q-0.625 0.359375 -0.96875 1.046875q-0.34375 0.671875 -0.34375 1.625l0 4.421871l-1.140625 0l0 -4.765621q0 -1.328125 -0.640625 -2.0q-0.640625 -0.6875 -1.796875 -0.6875q-0.84375 0 -1.484375 0.359375q-0.640625 0.359375 -0.984375 1.046875q-0.34375 0.671875 -0.34375 1.625l0 4.421871l-1.140625 0l0 -8.406246l1.09375 0l0 2.28125l-0.171875 -0.40625q0.375 -0.90625 1.234375 -1.421875q0.859375 -0.53125 2.03125 -0.53125q1.21875 0 2.078125 0.625q0.875 0.609375 1.125 1.84375l-0.4375 -0.171875q0.359375 -1.03125 1.296875 -1.65625q0.9375 -0.640625 2.25 -0.640625zm16.976013 0q1.03125 0 1.78125 0.390625q0.765625 0.390625 1.1875 1.203125q0.421875 0.796875 0.421875 2.015625l0 4.874996l-1.125 0l0 -4.765621q0 -1.328125 -0.640625 -2.0q-0.625 -0.6875 -1.78125 -0.6875q-0.859375 0 -1.5 0.359375q-0.625 0.359375 -0.96875 1.046875q-0.34375 0.671875 -0.34375 1.625l0 4.421871l-1.140625 0l0 -4.765621q0 -1.328125 -0.640625 -2.0q-0.640625 -0.6875 -1.796875 -0.6875q-0.84375 0 -1.484375 0.359375q-0.640625 0.359375 -0.984375 1.046875q-0.34375 0.671875 -0.34375 1.625l0 4.421871l-1.140625 0l0 -8.406246l1.09375 0l0 2.28125l-0.171875 -0.40625q0.375 -0.90625 1.234375 -1.421875q0.859375 -0.53125 2.03125 -0.53125q1.21875 0 2.078125 0.625q0.875 0.609375 1.125 1.84375l-0.4375 -0.171875q0.359375 -1.03125 1.296875 -1.65625q0.9375 -0.640625 2.25 -0.640625zm6.476074 8.484371l0 -8.406246l1.140625 0l0 8.406246l-1.140625 0zm0.578125 -10.249996q-0.34375 0 -0.59375 -0.234375q-0.234375 -0.25 -0.234375 -0.59375q0 -0.328125 0.234375 -0.5625q0.25 -0.234375 0.59375 -0.234375q0.359375 0 0.59375 0.234375q0.234375 0.21875 0.234375 0.546875q0 0.359375 -0.234375 0.609375q-0.21875 0.234375 -0.59375 0.234375zm6.382141 10.328121q-1.171875 0 -1.8125 -0.640625q-0.640625 -0.640625 -0.640625 -1.8125l0 -7.874996l1.125 0l0 7.812496q0 0.734375 0.375 1.140625q0.375 0.40625 1.09375 0.40625q0.75 0 1.234375 -0.4375l0.40625 0.8125q-0.328125 0.3125 -0.8125 0.453125q-0.46875 0.140625 -0.96875 0.140625zm-3.96875 -7.531246l0 -0.953125l5.203125 0l0 0.953125l-5.203125 0zm7.9647217 10.562496l-1.09375 0q0.953125 -1.65625 1.390625 -3.5q0.453125 -1.84375 0.453125 -3.9999962q0 -2.140625 -0.453125 -3.984375q-0.4375 -1.84375 -1.390625 -3.5l1.09375 0q0.90625 1.421875 1.375 3.359375q0.484375 1.921875 0.484375 4.125q0 2.2187462 -0.484375 4.124996q-0.46875 1.90625 -1.375 3.375z" fill-rule="nonzero"/><path fill="#cfe2f3" d="m11.56168 139.44357l0 0c0 -8.349503 6.768608 -15.118111 15.118111 -15.118111l0 0c4.009571 0 7.8549232 1.5927963 10.690117 4.427986c2.8351974 2.835205 4.427994 6.680542 4.427994 10.6901245l0 0c0 8.349503 -6.768608 15.118103 -15.118111 15.118103l0 0c-8.349503 0 -15.118111 -6.7686005 -15.118111 -15.118103z" fill-rule="evenodd"/><path fill="#cfe2f3" d="m49.95538 95.062996l0 0c0 -8.349503 6.768608 -15.118111 15.118114 -15.118111l0 0c4.0095673 0 7.8549194 1.5927963 10.690117 4.427986c2.8351974 2.8351974 4.427994 6.6805496 4.427994 10.6901245l0 0c0 8.349495 -6.7686157 15.118103 -15.118111 15.118103l0 0c-8.349506 0 -15.118114 -6.768608 -15.118114 -15.118103z" fill-rule="evenodd"/><path fill="#cfe2f3" d="m113.28434 95.062996l0 0c0 -8.349503 6.768608 -15.118111 15.118111 -15.118111l0 0c4.0095673 0 7.8549194 1.5927963 10.6901245 4.427986c2.8351898 2.8351974 4.4279785 6.6805496 4.4279785 10.6901245l0 0c0 8.349495 -6.7686005 15.118103 -15.118103 15.118103l0 0c-8.349503 0 -15.118111 -6.768608 -15.118111 -15.118103z" fill-rule="evenodd"/><path fill="#cfe2f3" d="m176.6133 95.062996l0 0c0 -8.349503 6.7686157 -15.118111 15.118118 -15.118111l0 0c4.0095673 0 7.8549194 1.5927963 10.690109 4.427986c2.835205 2.8351974 4.427994 6.6805496 4.427994 10.6901245l0 0c0 8.349495 -6.7686005 15.118103 -15.118103 15.118103l0 0c-8.349503 0 -15.118118 -6.768608 -15.118118 -15.118103z" fill-rule="evenodd"/><path fill="#cfe2f3" d="m239.94226 95.062996l0 0c0 -8.349503 6.7686005 -15.118111 15.118103 -15.118111l0 0c4.0095825 0 7.8549194 1.5927963 10.6901245 4.427986c2.835205 2.8351974 4.4279785 6.6805496 4.4279785 10.6901245l0 0c0 8.349495 -6.768585 15.118103 -15.118103 15.118103l0 0c-8.349503 0 -15.118103 -6.768608 -15.118103 -15.118103z" fill-rule="evenodd"/><path fill="#cfe2f3" d="m288.06824 139.44357l0 0c0 -8.349503 6.7686157 -15.118111 15.118103 -15.118111l0 0c4.0095825 0 7.8549194 1.5927963 10.6901245 4.427986c2.835205 2.835205 4.428009 6.680542 4.428009 10.6901245l0 0c0 8.349503 -6.7686157 15.118103 -15.118134 15.118103l0 0c-8.349487 0 -15.118103 -6.7686005 -15.118103 -15.118103z" fill-rule="evenodd"/><path fill="#000000" fill-opacity="0.0" d="m41.7979 139.44357l30.393703 0" fill-rule="evenodd"/><path stroke="#000000" stroke-width="1.0" stroke-linejoin="round" stroke-linecap="butt" d="m41.7979 139.44357l24.393703 0" fill-rule="evenodd"/><path fill="#000000" stroke="#000000" stroke-width="1.0" stroke-linecap="butt" d="m66.191605 141.0953l4.5380936 -1.6517334l-4.5380936 -1.6517334z" fill-rule="evenodd"/><path fill="#000000" fill-opacity="0.0" d="m265.7505 105.75311l26.740143 22.992126" fill-rule="evenodd"/><path stroke="#000000" stroke-width="1.0" stroke-linejoin="round" stroke-linecap="butt" d="m265.7505 105.753105l22.190674 19.080322" fill-rule="evenodd"/><path fill="#000000" stroke="#000000" stroke-width="1.0" stroke-linecap="butt" d="m286.8643 126.085846l4.5178833 1.7062759l-2.3641357 -4.211113z" fill-rule="evenodd"/><path fill="#000000" fill-opacity="0.0" d="m37.369907 128.75345l17.007874 -22.992126" fill-rule="evenodd"/><path stroke="#000000" stroke-width="1.0" stroke-linejoin="round" stroke-linecap="butt" d="m37.36991 128.75345l13.439667 -18.168434" fill-rule="evenodd"/><path fill="#000000" stroke="#000000" stroke-width="1.0" stroke-linecap="butt" d="m52.137486 111.5673l1.370903 -4.6306763l-4.0267143 2.6660995z" fill-rule="evenodd"/><path fill="#000000" fill-opacity="0.0" d="m80.191605 95.062996l33.102356 0" fill-rule="evenodd"/><path stroke="#000000" stroke-width="1.0" stroke-linejoin="round" stroke-linecap="butt" d="m80.191605 95.062996l27.102356 0" fill-rule="evenodd"/><path fill="#000000" stroke="#000000" stroke-width="1.0" stroke-linecap="butt" d="m107.29396 96.71472l4.538101 -1.6517258l-4.538101 -1.6517334z" fill-rule="evenodd"/><path fill="#000000" fill-opacity="0.0" d="m143.52055 95.062996l33.10237 0" fill-rule="evenodd"/><path stroke="#000000" stroke-width="1.0" stroke-linejoin="round" stroke-linecap="butt" d="m143.52055 95.062996l27.102371 0" fill-rule="evenodd"/><path fill="#000000" stroke="#000000" stroke-width="1.0" stroke-linecap="butt" d="m170.62292 96.71472l4.538101 -1.6517258l-4.538101 -1.6517334z" fill-rule="evenodd"/><path fill="#000000" fill-opacity="0.0" d="m206.84952 95.062996l33.102356 0" fill-rule="evenodd"/><path stroke="#000000" stroke-width="1.0" stroke-linejoin="round" stroke-linecap="butt" d="m206.84952 95.062996l27.102356 0" fill-rule="evenodd"/><path fill="#000000" stroke="#000000" stroke-width="1.0" stroke-linecap="butt" d="m233.95187 96.71472l4.538101 -1.6517258l-4.538101 -1.6517334z" fill-rule="evenodd"/><path fill="#cfe2f3" d="m89.95538 43.564304l0 0c0 -8.349503 6.768608 -15.118111 15.118111 -15.118111l0 0c4.0095673 0 7.8549194 1.5927963 10.690117 4.427994c2.8351974 2.8351936 4.427994 6.680546 4.427994 10.690117l0 0c0 8.349503 -6.7686157 15.118111 -15.118111 15.118111l0 0c-8.349503 0 -15.118111 -6.768608 -15.118111 -15.118111z" fill-rule="evenodd"/><path fill="#cfe2f3" d="m160.1181 43.564304l0 0c0 -8.349503 6.7686157 -15.118111 15.118118 -15.118111l0 0c4.0095673 0 7.8549194 1.5927963 10.6901245 4.427994c2.8351898 2.8351936 4.4279785 6.680546 4.4279785 10.690117l0 0c0 8.349503 -6.7686005 15.118111 -15.118103 15.118111l0 0c-8.349503 0 -15.118118 -6.768608 -15.118118 -15.118111z" fill-rule="evenodd"/><path fill="#cfe2f3" d="m230.28084 43.564304l0 0c0 -8.349503 6.7686157 -15.118111 15.118118 -15.118111l0 0c4.0095673 0 7.8549194 1.5927963 10.6901245 4.427994c2.8351746 2.8351936 4.4279785 6.680546 4.4279785 10.690117l0 0c0 8.349503 -6.7686005 15.118111 -15.118103 15.118111l0 0c-8.349503 0 -15.118118 -6.768608 -15.118118 -15.118111z" fill-rule="evenodd"/><path fill="#cfe2f3" d="m350.40158 139.44357l0 0c0 -8.349503 6.7686157 -15.118111 15.118103 -15.118111l0 0c4.0095825 0 7.8549194 1.5927963 10.6901245 4.427986c2.835205 2.835205 4.4279785 6.680542 4.4279785 10.6901245l0 0c0 8.349503 -6.768585 15.118103 -15.118103 15.118103l0 0c-8.349487 0 -15.118103 -6.7686005 -15.118103 -15.118103z" fill-rule="evenodd"/><path fill="#cfe2f3" d="m300.44357 43.564304l0 0c0 -8.349503 6.7686157 -15.118111 15.118103 -15.118111l0 0c4.0095825 0 7.8549194 1.5927963 10.6901245 4.427994c2.835205 2.8351936 4.4279785 6.680546 4.4279785 10.690117l0 0c0 8.349503 -6.768585 15.118111 -15.118103 15.118111l0 0c-8.349487 0 -15.118103 -6.768608 -15.118103 -15.118111z" fill-rule="evenodd"/><path fill="#000000" fill-opacity="0.0" d="m120.191605 43.564304l39.93701 0" fill-rule="evenodd"/><path stroke="#000000" stroke-width="1.0" stroke-linejoin="round" stroke-linecap="butt" d="m120.191605 43.564304l33.93701 0" fill-rule="evenodd"/><path fill="#000000" stroke="#000000" stroke-width="1.0" stroke-linecap="butt" d="m154.12862 45.216038l4.538086 -1.6517334l-4.538086 -1.6517334z" fill-rule="evenodd"/><path fill="#000000" fill-opacity="0.0" d="m190.35432 43.564304l39.93701 0" fill-rule="evenodd"/><path stroke="#000000" stroke-width="1.0" stroke-linejoin="round" stroke-linecap="butt" d="m190.35432 43.564304l33.93701 0" fill-rule="evenodd"/><path fill="#000000" stroke="#000000" stroke-width="1.0" stroke-linecap="butt" d="m224.29134 45.216038l4.538101 -1.6517334l-4.538101 -1.6517334z" fill-rule="evenodd"/><path fill="#000000" fill-opacity="0.0" d="m260.51706 43.564304l39.93701 0" fill-rule="evenodd"/><path stroke="#000000" stroke-width="1.0" stroke-linejoin="round" stroke-linecap="butt" d="m260.51706 43.564304l33.93701 0" fill-rule="evenodd"/><path fill="#000000" stroke="#000000" stroke-width="1.0" stroke-linecap="butt" d="m294.45407 45.216038l4.538086 -1.6517334l-4.538086 -1.6517334z" fill-rule="evenodd"/><path fill="#000000" fill-opacity="0.0" d="m318.30447 139.44357l32.094482 0" fill-rule="evenodd"/><path stroke="#000000" stroke-width="1.0" stroke-linejoin="round" stroke-linecap="butt" d="m318.30447 139.44357l26.094482 0" fill-rule="evenodd"/><path fill="#000000" stroke="#000000" stroke-width="1.0" stroke-linecap="butt" d="m344.39896 141.0953l4.538086 -1.6517334l-4.538086 -1.6517334z" fill-rule="evenodd"/><path fill="#000000" fill-opacity="0.0" d="m326.2518 54.25442l39.275574 70.078735" fill-rule="evenodd"/><path stroke="#000000" stroke-width="1.0" stroke-linejoin="round" stroke-linecap="butt" d="m326.2518 54.254425l36.342194 64.844696" fill-rule="evenodd"/><path fill="#000000" stroke="#000000" stroke-width="1.0" stroke-linecap="butt" d="m361.1531 119.90666l3.6595764 3.1512222l-0.77783203 -4.7662964z" fill-rule="evenodd"/><path fill="#cfe2f3" d="m72.191605 139.44357l0 0c0 -8.349503 6.768608 -15.118111 15.118103 -15.118111l0 0c4.009575 0 7.854927 1.5927963 10.6901245 4.427986c2.8351898 2.835205 4.427986 6.680542 4.427986 10.6901245l0 0c0 8.349503 -6.768608 15.118103 -15.118111 15.118103l0 0c-8.349495 0 -15.118103 -6.7686005 -15.118103 -15.118103z" fill-rule="evenodd"/><path fill="#000000" fill-opacity="0.0" d="m102.42782 139.44357l185.63779 0" fill-rule="evenodd"/><path stroke="#000000" stroke-width="1.0" stroke-linejoin="round" stroke-linecap="butt" d="m102.42782 139.44357l179.63779 0" fill-rule="evenodd"/><path fill="#000000" stroke="#000000" stroke-width="1.0" stroke-linecap="butt" d="m282.0656 141.0953l4.5381165 -1.6517334l-4.5381165 -1.6517334z" fill-rule="evenodd"/><path fill="#000000" fill-opacity="0.0" d="m87.30971 124.32546l17.763786 -65.6378" fill-rule="evenodd"/><path stroke="#000000" stroke-width="1.0" stroke-linejoin="round" stroke-linecap="butt" d="m87.30971 124.32546l16.196373 -59.846146" fill-rule="evenodd"/><path fill="#000000" stroke="#000000" stroke-width="1.0" stroke-linecap="butt" d="m105.10046 64.910805l-0.40886688 -4.812004l-2.779892 3.9490204z" fill-rule="evenodd"/><path fill="#cfe2f3" d="m412.7349 139.44357l0 0c0 -8.349503 6.7686157 -15.118111 15.118134 -15.118111l0 0c4.009552 0 7.8549194 1.5927963 10.6901245 4.427986c2.8351746 2.835205 4.4279785 6.680542 4.4279785 10.6901245l0 0c0 8.349503 -6.7686157 15.118103 -15.118103 15.118103l0 0c-8.349518 0 -15.118134 -6.7686005 -15.118134 -15.118103z" fill-rule="evenodd"/><path fill="#cfe2f3" d="m475.06824 139.44357l0 0c0 -8.349503 6.7686157 -15.118111 15.118103 -15.118111l0 0c4.0095825 0 7.8549194 1.5927963 10.6901245 4.427986c2.835205 2.835205 4.428009 6.680542 4.428009 10.6901245l0 0c0 8.349503 -6.7686157 15.118103 -15.118134 15.118103l0 0c-8.349487 0 -15.118103 -6.7686005 -15.118103 -15.118103z" fill-rule="evenodd"/><path fill="#000000" fill-opacity="0.0" d="m380.6378 139.44357l32.094482 0" fill-rule="evenodd"/><path stroke="#000000" stroke-width="1.0" stroke-linejoin="round" stroke-linecap="butt" d="m380.6378 139.44357l26.094482 0" fill-rule="evenodd"/><path fill="#000000" stroke="#000000" stroke-width="1.0" stroke-linecap="butt" d="m406.73227 141.0953l4.5381165 -1.6517334l-4.5381165 -1.6517334z" fill-rule="evenodd"/><path fill="#000000" fill-opacity="0.0" d="m442.97113 139.44357l32.094482 0" fill-rule="evenodd"/><path stroke="#000000" stroke-width="1.0" stroke-linejoin="round" stroke-linecap="butt" d="m442.97113 139.44357l26.094482 0" fill-rule="evenodd"/><path fill="#000000" stroke="#000000" stroke-width="1.0" stroke-linecap="butt" d="m469.0656 141.0953l4.5381165 -1.6517334l-4.5381165 -1.6517334z" fill-rule="evenodd"/></g></svg>