<svg version="1.1" viewBox="0.0 0.0 351.3884514435696 474.5459317585302" fill="none" stroke="none" stroke-linecap="square" stroke-miterlimit="10" xmlns:xlink="http://www.w3.org/1999/xlink" xmlns="http://www.w3.org/2000/svg"><clipPath id="p.0"><path d="m0 0l351.38846 0l0 474.54593l-351.38846 0l0 -474.54593z" clip-rule="nonzero"/></clipPath><g clip-path="url(#p.0)"><path fill="#000000" fill-opacity="0.0" d="m0 0l351.38846 0l0 474.54593l-351.38846 0z" fill-rule="evenodd"/><path fill="#d9ead3" d="m15.233596 22.010572l0 0c0 -3.3296947 2.6992502 -6.028945 6.028945 -6.028945l310.05234 0c1.5989685 0 3.1324768 0.63519 4.2631226 1.7658377c1.1306458 1.1306458 1.7658386 2.6641312 1.7658386 4.2631073l0 30.146833c0 3.3296967 -2.6992493 6.028946 -6.028961 6.028946l-310.05234 0c-3.3296947 0 -6.028945 -2.6992493 -6.028945 -6.028946z" fill-rule="evenodd"/><path fill="#000000" d="m74.62909 44.003986l0 -13.0625l5.3125 0q2.09375 0 3.671875 0.828125q1.578125 0.828125 2.453125 2.3125q0.875 1.46875 0.875 3.390625q0 1.921875 -0.875 3.40625q-0.875 1.46875 -2.453125 2.296875q-1.578125 0.828125 -3.671875 0.828125l-5.3125 0zm1.375 -1.1875l3.875 0q1.734375 0 3.0 -0.6875q1.28125 -0.6875 1.984375 -1.890625q0.71875 -1.203125 0.71875 -2.765625q0 -1.578125 -0.71875 -2.765625q-0.703125 -1.203125 -1.984375 -1.875q-1.265625 -0.6875 -3.0 -0.6875l-3.875 0l0 10.671875zm17.753815 1.28125q-1.421875 0 -2.546875 -0.640625q-1.125 -0.640625 -1.78125 -1.765625q-0.65625 -1.140625 -0.65625 -2.59375q0 -1.46875 0.65625 -2.59375q0.65625 -1.125 1.765625 -1.75q1.125 -0.640625 2.5625 -0.640625q1.453125 0 2.578125 0.640625q1.125 0.625 1.765625 1.75q0.65625 1.125 0.65625 2.59375q0 1.453125 -0.65625 2.59375q-0.640625 1.125 -1.78125 1.765625q-1.125 0.640625 -2.5625 0.640625zm0 -1.171875q1.0625 0 1.875 -0.46875q0.828125 -0.484375 1.296875 -1.34375q0.484375 -0.875 0.484375 -2.015625q0 -1.15625 -0.484375 -2.015625q-0.46875 -0.859375 -1.296875 -1.328125q-0.8125 -0.484375 -1.859375 -0.484375q-1.046875 0 -1.875 0.484375q-0.8125 0.46875 -1.296875 1.328125q-0.484375 0.859375 -0.484375 2.015625q0 1.140625 0.484375 2.015625q0.484375 0.859375 1.296875 1.34375q0.828125 0.46875 1.859375 0.46875zm9.417465 1.078125l-3.6875 -9.796875l1.265625 0l3.359375 9.09375l-0.578125 0l3.453125 -9.09375l1.125 0l3.421875 9.09375l-0.578125 0l3.40625 -9.09375l1.21875 0l-3.71875 9.796875l-1.25 0l-3.28125 -8.546875l0.390625 0l-3.296875 8.546875l-1.25 0zm19.39885 -9.890625q1.203125 0 2.09375 0.46875q0.90625 0.453125 1.421875 1.390625q0.515625 0.921875 0.515625 2.34375l0 5.6875l-1.328125 0l0 -5.5625q0 -1.546875 -0.78125 -2.328125q-0.765625 -0.796875 -2.15625 -0.796875q-1.046875 0 -1.828125 0.421875q-0.765625 0.40625 -1.1875 1.203125q-0.421875 0.796875 -0.421875 1.90625l0 5.15625l-1.328125 0l0 -9.796875l1.265625 0l0 2.6875l-0.203125 -0.5q0.46875 -1.0625 1.484375 -1.671875q1.03125 -0.609375 2.453125 -0.609375zm7.6116333 9.890625l0 -13.84375l1.328125 0l0 13.84375l-1.328125 0zm9.018539 0.09375q-1.421875 0 -2.546875 -0.640625q-1.125 -0.640625 -1.78125 -1.765625q-0.65625 -1.140625 -0.65625 -2.59375q0 -1.46875 0.65625 -2.59375q0.65625 -1.125 1.765625 -1.75q1.125 -0.640625 2.5625 -0.640625q1.453125 0 2.578125 0.640625q1.125 0.625 1.765625 1.75q0.65625 1.125 0.65625 2.59375q0 1.453125 -0.65625 2.59375q-0.640625 1.125 -1.78125 1.765625q-1.125 0.640625 -2.5625 0.640625zm0 -1.171875q1.0625 0 1.875 -0.46875q0.828125 -0.484375 1.296875 -1.34375q0.484375 -0.875 0.484375 -2.015625q0 -1.15625 -0.484375 -2.015625q-0.46875 -0.859375 -1.296875 -1.328125q-0.8125 -0.484375 -1.859375 -0.484375q-1.046875 0 -1.875 0.484375q-0.8125 0.46875 -1.296875 1.328125q-0.484375 0.859375 -0.484375 2.015625q0 1.140625 0.484375 2.015625q0.484375 0.859375 1.296875 1.34375q0.828125 0.46875 1.859375 0.46875zm13.782089 1.078125l0 -2.171875l-0.0625 -0.34375l0 -3.625q0 -1.25 -0.703125 -1.921875q-0.6875 -0.671875 -2.0625 -0.671875q-0.953125 0 -1.8125 0.328125q-0.859375 0.3125 -1.453125 0.828125l-0.609375 -0.984375q0.75 -0.640625 1.796875 -0.984375q1.046875 -0.34375 2.203125 -0.34375q1.90625 0 2.9375 0.953125q1.03125 0.9375 1.03125 2.859375l0 6.078125l-1.265625 0zm-3.375 0.09375q-1.109375 0 -1.921875 -0.359375q-0.796875 -0.375 -1.234375 -1.015625q-0.421875 -0.640625 -0.421875 -1.484375q0 -0.765625 0.359375 -1.390625q0.359375 -0.625 1.1875 -1.0q0.84375 -0.390625 2.234375 -0.390625l3.375 0l0 1.0l-3.34375 0q-1.40625 0 -1.96875 0.5q-0.546875 0.5 -0.546875 1.25q0 0.84375 0.65625 1.34375q0.65625 0.5 1.828125 0.5q1.125 0 1.9375 -0.515625q0.8125 -0.515625 1.171875 -1.484375l0.3125 0.921875q-0.375 0.96875 -1.3125 1.546875q-0.921875 0.578125 -2.3125 0.578125zm12.147827 0q-1.40625 0 -2.515625 -0.625q-1.109375 -0.640625 -1.75 -1.765625q-0.625 -1.140625 -0.625 -2.609375q0 -1.5 0.625 -2.609375q0.640625 -1.125 1.75 -1.75q1.109375 -0.625 2.515625 -0.625q1.28125 0 2.296875 0.578125q1.015625 0.578125 1.625 1.6875q0.609375 1.109375 0.609375 2.71875q0 1.578125 -0.609375 2.703125q-0.59375 1.125 -1.609375 1.71875q-1.015625 0.578125 -2.3125 0.578125zm0.09375 -1.171875q1.046875 0 1.875 -0.46875q0.828125 -0.484375 1.296875 -1.34375q0.484375 -0.875 0.484375 -2.015625q0 -1.15625 -0.484375 -2.015625q-0.46875 -0.859375 -1.296875 -1.328125q-0.828125 -0.484375 -1.875 -0.484375q-1.03125 0 -1.859375 0.484375q-0.8125 0.46875 -1.296875 1.328125q-0.484375 0.859375 -0.484375 2.015625q0 1.140625 0.484375 2.015625q0.484375 0.859375 1.296875 1.34375q0.828125 0.46875 1.859375 0.46875zm3.6875 1.078125l0 -2.953125l0.125 -1.96875l-0.171875 -1.984375l0 -6.9375l1.3125 0l0 13.84375l-1.265625 0zm12.943115 0.09375q-1.375 0 -2.125 -0.75q-0.734375 -0.75 -0.734375 -2.109375l0 -9.1875l1.3125 0l0 9.125q0 0.84375 0.4375 1.3125q0.4375 0.46875 1.265625 0.46875q0.875 0 1.453125 -0.5l0.46875 0.953125q-0.390625 0.34375 -0.953125 0.515625q-0.546875 0.171875 -1.125 0.171875zm-4.625 -8.78125l0 -1.109375l6.0625 0l0 1.109375l-6.0625 0zm14.105682 -1.203125q1.203125 0 2.09375 0.46875q0.90625 0.453125 1.421875 1.390625q0.515625 0.921875 0.515625 2.34375l0 5.6875l-1.328125 0l0 -5.5625q0 -1.546875 -0.78125 -2.328125q-0.765625 -0.796875 -2.15625 -0.796875q-1.046875 0 -1.828125 0.421875q-0.765625 0.40625 -1.1875 1.203125q-0.421875 0.796875 -0.421875 1.90625l0 5.15625l-1.328125 0l0 -13.84375l1.328125 0l0 6.734375l-0.265625 -0.5q0.46875 -1.0625 1.484375 -1.671875q1.03125 -0.609375 2.453125 -0.609375zm11.767883 9.984375q-1.515625 0 -2.671875 -0.640625q-1.15625 -0.640625 -1.8125 -1.765625q-0.65625 -1.140625 -0.65625 -2.59375q0 -1.453125 0.625 -2.5625q0.625 -1.125 1.71875 -1.765625q1.09375 -0.65625 2.453125 -0.65625q1.375 0 2.4375 0.625q1.078125 0.625 1.6875 1.765625q0.625 1.125 0.625 2.59375q0 0.09375 -0.015625 0.203125q0 0.09375 0 0.203125l-8.53125 0l0 -0.984375l7.828125 0l-0.53125 0.390625q0 -1.0625 -0.453125 -1.890625q-0.453125 -0.828125 -1.25 -1.296875q-0.78125 -0.46875 -1.796875 -0.46875q-1.015625 0 -1.8125 0.46875q-0.796875 0.46875 -1.25 1.3125q-0.453125 0.828125 -0.453125 1.90625l0 0.21875q0 1.109375 0.5 1.96875q0.5 0.84375 1.375 1.328125q0.890625 0.46875 2.03125 0.46875q0.890625 0 1.65625 -0.3125q0.78125 -0.328125 1.34375 -0.984375l0.75 0.859375q-0.65625 0.78125 -1.640625 1.203125q-0.96875 0.40625 -2.15625 0.40625zm15.906311 0q-1.40625 0 -2.515625 -0.625q-1.109375 -0.640625 -1.75 -1.765625q-0.625 -1.140625 -0.625 -2.609375q0 -1.5 0.625 -2.609375q0.640625 -1.125 1.75 -1.75q1.109375 -0.625 2.515625 -0.625q1.28125 0 2.296875 0.578125q1.015625 0.578125 1.625 1.6875q0.609375 1.109375 0.609375 2.71875q0 1.578125 -0.609375 2.703125q-0.59375 1.125 -1.609375 1.71875q-1.015625 0.578125 -2.3125 0.578125zm0.09375 -1.171875q1.046875 0 1.875 -0.46875q0.828125 -0.484375 1.296875 -1.34375q0.484375 -0.875 0.484375 -2.015625q0 -1.15625 -0.484375 -2.015625q-0.46875 -0.859375 -1.296875 -1.328125q-0.828125 -0.484375 -1.875 -0.484375q-1.03125 0 -1.859375 0.484375q-0.8125 0.46875 -1.296875 1.328125q-0.484375 0.859375 -0.484375 2.015625q0 1.140625 0.484375 2.015625q0.484375 0.859375 1.296875 1.34375q0.828125 0.46875 1.859375 0.46875zm3.6875 1.078125l0 -2.953125l0.125 -1.96875l-0.171875 -1.984375l0 -6.9375l1.3125 0l0 13.84375l-1.265625 0zm11.102081 0l0 -2.171875l-0.0625 -0.34375l0 -3.625q0 -1.25 -0.703125 -1.921875q-0.6875 -0.671875 -2.0625 -0.671875q-0.953125 0 -1.8125 0.328125q-0.859375 0.3125 -1.453125 0.828125l-0.609375 -0.984375q0.75 -0.640625 1.796875 -0.984375q1.046875 -0.34375 2.203125 -0.34375q1.90625 0 2.9375 0.953125q1.03125 0.9375 1.03125 2.859375l0 6.078125l-1.265625 0zm-3.375 0.09375q-1.109375 0 -1.921875 -0.359375q-0.796875 -0.375 -1.234375 -1.015625q-0.421875 -0.640625 -0.421875 -1.484375q0 -0.765625 0.359375 -1.390625q0.359375 -0.625 1.1875 -1.0q0.84375 -0.390625 2.234375 -0.390625l3.375 0l0 1.0l-3.34375 0q-1.40625 0 -1.96875 0.5q-0.546875 0.5 -0.546875 1.25q0 0.84375 0.65625 1.34375q0.65625 0.5 1.828125 0.5q1.125 0 1.9375 -0.515625q0.8125 -0.515625 1.171875 -1.484375l0.3125 0.921875q-0.375 0.96875 -1.3125 1.546875q-0.921875 0.578125 -2.3125 0.578125zm11.335297 0q-1.375 0 -2.125 -0.75q-0.734375 -0.75 -0.734375 -2.109375l0 -9.1875l1.3125 0l0 9.125q0 0.84375 0.4375 1.3125q0.4375 0.46875 1.265625 0.46875q0.875 0 1.453125 -0.5l0.46875 0.953125q-0.390625 0.34375 -0.953125 0.515625q-0.546875 0.171875 -1.125 0.171875zm-4.625 -8.78125l0 -1.109375l6.0625 0l0 1.109375l-6.0625 0zm15.246307 8.6875l0 -2.171875l-0.0625 -0.34375l0 -3.625q0 -1.25 -0.703125 -1.921875q-0.6875 -0.671875 -2.0625 -0.671875q-0.953125 0 -1.8125 0.328125q-0.859375 0.3125 -1.453125 0.828125l-0.609375 -0.984375q0.75 -0.640625 1.796875 -0.984375q1.046875 -0.34375 2.203125 -0.34375q1.90625 0 2.9375 0.953125q1.03125 0.9375 1.03125 2.859375l0 6.078125l-1.265625 0zm-3.375 0.09375q-1.109375 0 -1.921875 -0.359375q-0.796875 -0.375 -1.234375 -1.015625q-0.421875 -0.640625 -0.421875 -1.484375q0 -0.765625 0.359375 -1.390625q0.359375 -0.625 1.1875 -1.0q0.84375 -0.390625 2.234375 -0.390625l3.375 0l0 1.0l-3.34375 0q-1.40625 0 -1.96875 0.5q-0.546875 0.5 -0.546875 1.25q0 0.84375 0.65625 1.34375q0.65625 0.5 1.828125 0.5q1.125 0 1.9375 -0.515625q0.8125 -0.515625 1.171875 -1.484375l0.3125 0.921875q-0.375 0.96875 -1.3125 1.546875q-0.921875 0.578125 -2.3125 0.578125zm10.882202 0q-1.21875 0 -2.3125 -0.34375q-1.078125 -0.34375 -1.6875 -0.875l0.59375 -1.046875q0.59375 0.453125 1.53125 0.78125q0.9375 0.328125 1.96875 0.328125q1.390625 0 2.0 -0.4375q0.625 -0.4375 0.625 -1.171875q0 -0.53125 -0.34375 -0.84375q-0.34375 -0.3125 -0.90625 -0.46875q-0.5625 -0.15625 -1.25 -0.265625q-0.6875 -0.109375 -1.375 -0.265625q-0.671875 -0.15625 -1.234375 -0.4375q-0.5625 -0.296875 -0.90625 -0.796875q-0.34375 -0.5 -0.34375 -1.34375q0 -0.796875 0.4375 -1.421875q0.453125 -0.640625 1.3125 -1.0q0.875 -0.375 2.125 -0.375q0.953125 0 1.90625 0.25q0.953125 0.25 1.5625 0.671875l-0.578125 1.0625q-0.65625 -0.453125 -1.40625 -0.640625q-0.734375 -0.203125 -1.484375 -0.203125q-1.328125 0 -1.953125 0.46875q-0.625 0.453125 -0.625 1.15625q0 0.5625 0.34375 0.875q0.34375 0.3125 0.90625 0.5q0.578125 0.171875 1.25 0.28125q0.6875 0.109375 1.375 0.28125q0.6875 0.15625 1.25 0.421875q0.5625 0.265625 0.90625 0.765625q0.359375 0.5 0.359375 1.296875q0 0.859375 -0.484375 1.484375q-0.46875 0.625 -1.375 0.96875q-0.90625 0.34375 -2.1875 0.34375zm10.619873 0q-1.515625 0 -2.671875 -0.640625q-1.15625 -0.640625 -1.8125 -1.765625q-0.65625 -1.140625 -0.65625 -2.59375q0 -1.453125 0.625 -2.5625q0.625 -1.125 1.71875 -1.765625q1.09375 -0.65625 2.453125 -0.65625q1.375 0 2.4375 0.625q1.078125 0.625 1.6875 1.765625q0.625 1.125 0.625 2.59375q0 0.09375 -0.015625 0.203125q0 0.09375 0 0.203125l-8.53125 0l0 -0.984375l7.828125 0l-0.53125 0.390625q0 -1.0625 -0.453125 -1.890625q-0.453125 -0.828125 -1.25 -1.296875q-0.78125 -0.46875 -1.796875 -0.46875q-1.015625 0 -1.8125 0.46875q-0.796875 0.46875 -1.25 1.3125q-0.453125 0.828125 -0.453125 1.90625l0 0.21875q0 1.109375 0.5 1.96875q0.5 0.84375 1.375 1.328125q0.890625 0.46875 2.03125 0.46875q0.890625 0 1.65625 -0.3125q0.78125 -0.328125 1.34375 -0.984375l0.75 0.859375q-0.65625 0.78125 -1.640625 1.203125q-0.96875 0.40625 -2.15625 0.40625zm10.205872 0q-1.375 0 -2.125 -0.75q-0.734375 -0.75 -0.734375 -2.109375l0 -9.1875l1.3125 0l0 9.125q0 0.84375 0.4375 1.3125q0.4375 0.46875 1.265625 0.46875q0.875 0 1.453125 -0.5l0.46875 0.953125q-0.390625 0.34375 -0.953125 0.515625q-0.546875 0.171875 -1.125 0.171875zm-4.625 -8.78125l0 -1.109375l6.0625 0l0 1.109375l-6.0625 0z" fill-rule="nonzero"/><path fill="#d9ead3" d="m15.233596 139.34915l0 0c0 -3.3296967 2.6992502 -6.028946 6.028945 -6.028946l310.05234 0c1.5989685 0 3.1324768 0.6351929 4.2631226 1.7658386c1.1306458 1.1306458 1.7658386 2.6641388 1.7658386 4.2631073l0 30.146835c0 3.3296967 -2.6992493 6.028946 -6.028961 6.028946l-310.05234 0c-3.3296947 0 -6.028945 -2.6992493 -6.028945 -6.028946z" fill-rule="evenodd"/><path fill="#000000" d="m75.823265 161.34258l0 -13.0625l4.890625 0q1.65625 0 2.84375 0.53125q1.203125 0.53125 1.84375 1.53125q0.640625 1.0 0.640625 2.421875q0 1.375 -0.640625 2.375q-0.640625 1.0 -1.84375 1.546875q-1.1875 0.53125 -2.84375 0.53125l-4.125 0l0.609375 -0.65625l0 4.78125l-1.375 0zm1.375 -4.671875l-0.609375 -0.65625l4.09375 0q1.953125 0 2.96875 -0.84375q1.015625 -0.859375 1.015625 -2.40625q0 -1.578125 -1.015625 -2.421875q-1.015625 -0.859375 -2.96875 -0.859375l-4.09375 0l0.609375 -0.65625l0 7.84375zm11.309601 4.671875l0 -9.796875l1.265625 0l0 2.671875l-0.125 -0.46875q0.40625 -1.125 1.375 -1.703125q0.96875 -0.59375 2.40625 -0.59375l0 1.296875q-0.0625 0 -0.140625 -0.015625q-0.078125 -0.015625 -0.15625 -0.015625q-1.546875 0 -2.421875 0.953125q-0.875 0.9375 -0.875 2.671875l0 5.0l-1.328125 0zm11.394745 0.09375q-1.515625 0 -2.671875 -0.640625q-1.15625 -0.640625 -1.8125 -1.765625q-0.65625 -1.140625 -0.65625 -2.59375q0 -1.453125 0.625 -2.5625q0.625 -1.125 1.71875 -1.765625q1.09375 -0.65625 2.453125 -0.65625q1.375 0 2.4375 0.625q1.078125 0.625 1.6875 1.765625q0.625 1.125 0.625 2.59375q0 0.09375 -0.015625 0.203125q0 0.09375 0 0.203125l-8.53125 0l0 -0.984375l7.828125 0l-0.53125 0.390625q0 -1.0625 -0.453125 -1.890625q-0.453125 -0.828125 -1.25 -1.296875q-0.78125 -0.46875 -1.796875 -0.46875q-1.015625 0 -1.8125 0.46875q-0.796875 0.46875 -1.25 1.3125q-0.453125 0.828125 -0.453125 1.90625l0 0.21875q0 1.109375 0.5 1.96875q0.5 0.84375 1.375 1.328125q0.890625 0.46875 2.03125 0.46875q0.890625 0 1.65625 -0.3125q0.78125 -0.328125 1.34375 -0.984375l0.75 0.859375q-0.65625 0.78125 -1.640625 1.203125q-0.96875 0.40625 -2.15625 0.40625zm12.174622 0q-1.265625 0 -2.296875 -0.578125q-1.03125 -0.59375 -1.640625 -1.703125q-0.59375 -1.109375 -0.59375 -2.71875q0 -1.609375 0.59375 -2.71875q0.59375 -1.109375 1.609375 -1.6875q1.03125 -0.578125 2.328125 -0.578125q1.390625 0 2.5 0.625q1.109375 0.625 1.75 1.765625q0.640625 1.125 0.640625 2.59375q0 1.484375 -0.640625 2.609375q-0.640625 1.125 -1.75 1.765625q-1.109375 0.625 -2.5 0.625zm-5.0625 3.53125l0 -13.421875l1.265625 0l0 2.953125l-0.125 1.953125l0.1875 1.984375l0 6.53125l-1.328125 0zm4.96875 -4.703125q1.046875 0 1.859375 -0.46875q0.828125 -0.484375 1.3125 -1.34375q0.484375 -0.875 0.484375 -2.015625q0 -1.140625 -0.484375 -2.0q-0.484375 -0.859375 -1.3125 -1.34375q-0.8125 -0.484375 -1.859375 -0.484375q-1.046875 0 -1.875 0.484375q-0.828125 0.484375 -1.3125 1.34375q-0.46875 0.859375 -0.46875 2.0q0 1.140625 0.46875 2.015625q0.484375 0.859375 1.3125 1.34375q0.828125 0.46875 1.875 0.46875zm13.764816 1.078125l0 -2.171875l-0.0625 -0.34375l0 -3.625q0 -1.25 -0.703125 -1.921875q-0.6875 -0.671875 -2.0625 -0.671875q-0.953125 0 -1.8125 0.328125q-0.859375 0.3125 -1.453125 0.828125l-0.609375 -0.984375q0.75 -0.640625 1.796875 -0.984375q1.046875 -0.34375 2.203125 -0.34375q1.90625 0 2.9375 0.953125q1.03125 0.9375 1.03125 2.859375l0 6.078125l-1.265625 0zm-3.375 0.09375q-1.109375 0 -1.921875 -0.359375q-0.796875 -0.375 -1.234375 -1.015625q-0.421875 -0.640625 -0.421875 -1.484375q0 -0.765625 0.359375 -1.390625q0.359375 -0.625 1.1875 -1.0q0.84375 -0.390625 2.234375 -0.390625l3.375 0l0 1.0l-3.34375 0q-1.40625 0 -1.96875 0.5q-0.546875 0.5 -0.546875 1.25q0 0.84375 0.65625 1.34375q0.65625 0.5 1.828125 0.5q1.125 0 1.9375 -0.515625q0.8125 -0.515625 1.171875 -1.484375l0.3125 0.921875q-0.375 0.96875 -1.3125 1.546875q-0.921875 0.578125 -2.3125 0.578125zm8.2415695 -0.09375l0 -9.796875l1.265625 0l0 2.671875l-0.125 -0.46875q0.40625 -1.125 1.375 -1.703125q0.96875 -0.59375 2.40625 -0.59375l0 1.296875q-0.0625 0 -0.140625 -0.015625q-0.078125 -0.015625 -0.15625 -0.015625q-1.546875 0 -2.421875 0.953125q-0.875 0.9375 -0.875 2.671875l0 5.0l-1.328125 0zm11.394745 0.09375q-1.515625 0 -2.671875 -0.640625q-1.15625 -0.640625 -1.8125 -1.765625q-0.65625 -1.140625 -0.65625 -2.59375q0 -1.453125 0.625 -2.5625q0.625 -1.125 1.71875 -1.765625q1.09375 -0.65625 2.453125 -0.65625q1.375 0 2.4375 0.625q1.078125 0.625 1.6875 1.765625q0.625 1.125 0.625 2.59375q0 0.09375 -0.015625 0.203125q0 0.09375 0 0.203125l-8.53125 0l0 -0.984375l7.828125 0l-0.53125 0.390625q0 -1.0625 -0.453125 -1.890625q-0.453125 -0.828125 -1.25 -1.296875q-0.78125 -0.46875 -1.796875 -0.46875q-1.015625 0 -1.8125 0.46875q-0.796875 0.46875 -1.25 1.3125q-0.453125 0.828125 -0.453125 1.90625l0 0.21875q0 1.109375 0.5 1.96875q0.5 0.84375 1.375 1.328125q0.890625 0.46875 2.03125 0.46875q0.890625 0 1.65625 -0.3125q0.78125 -0.328125 1.34375 -0.984375l0.75 0.859375q-0.65625 0.78125 -1.640625 1.203125q-0.96875 0.40625 -2.15625 0.40625zm15.906311 0q-1.40625 0 -2.515625 -0.625q-1.109375 -0.640625 -1.75 -1.765625q-0.625 -1.140625 -0.625 -2.609375q0 -1.5 0.625 -2.609375q0.640625 -1.125 1.75 -1.75q1.109375 -0.625 2.515625 -0.625q1.28125 0 2.296875 0.578125q1.015625 0.578125 1.625 1.6875q0.609375 1.109375 0.609375 2.71875q0 1.578125 -0.609375 2.703125q-0.59375 1.125 -1.609375 1.71875q-1.015625 0.578125 -2.3125 0.578125zm0.09375 -1.171875q1.046875 0 1.875 -0.46875q0.828125 -0.484375 1.296875 -1.34375q0.484375 -0.875 0.484375 -2.015625q0 -1.15625 -0.484375 -2.015625q-0.46875 -0.859375 -1.296875 -1.328125q-0.828125 -0.484375 -1.875 -0.484375q-1.03125 0 -1.859375 0.484375q-0.8125 0.46875 -1.296875 1.328125q-0.484375 0.859375 -0.484375 2.015625q0 1.140625 0.484375 2.015625q0.484375 0.859375 1.296875 1.34375q0.828125 0.46875 1.859375 0.46875zm3.6875 1.078125l0 -2.953125l0.125 -1.96875l-0.171875 -1.984375l0 -6.9375l1.3125 0l0 13.84375l-1.265625 0zm11.102066 0l0 -2.171875l-0.0625 -0.34375l0 -3.625q0 -1.25 -0.703125 -1.921875q-0.6875 -0.671875 -2.0625 -0.671875q-0.953125 0 -1.8125 0.328125q-0.859375 0.3125 -1.453125 0.828125l-0.609375 -0.984375q0.75 -0.640625 1.796875 -0.984375q1.046875 -0.34375 2.203125 -0.34375q1.90625 0 2.9375 0.953125q1.03125 0.9375 1.03125 2.859375l0 6.078125l-1.265625 0zm-3.375 0.09375q-1.109375 0 -1.921875 -0.359375q-0.796875 -0.375 -1.234375 -1.015625q-0.421875 -0.640625 -0.421875 -1.484375q0 -0.765625 0.359375 -1.390625q0.359375 -0.625 1.1875 -1.0q0.84375 -0.390625 2.234375 -0.390625l3.375 0l0 1.0l-3.34375 0q-1.40625 0 -1.96875 0.5q-0.546875 0.5 -0.546875 1.25q0 0.84375 0.65625 1.34375q0.65625 0.5 1.828125 0.5q1.125 0 1.9375 -0.515625q0.8125 -0.515625 1.171875 -1.484375l0.3125 0.921875q-0.375 0.96875 -1.3125 1.546875q-0.921875 0.578125 -2.3125 0.578125zm11.335312 0q-1.375 0 -2.125 -0.75q-0.734375 -0.75 -0.734375 -2.109375l0 -9.1875l1.3125 0l0 9.125q0 0.84375 0.4375 1.3125q0.4375 0.46875 1.265625 0.46875q0.875 0 1.453125 -0.5l0.46875 0.953125q-0.390625 0.34375 -0.953125 0.515625q-0.546875 0.171875 -1.125 0.171875zm-4.625 -8.78125l0 -1.109375l6.0625 0l0 1.109375l-6.0625 0zm15.246307 8.6875l0 -2.171875l-0.0625 -0.34375l0 -3.625q0 -1.25 -0.703125 -1.921875q-0.6875 -0.671875 -2.0625 -0.671875q-0.953125 0 -1.8125 0.328125q-0.859375 0.3125 -1.453125 0.828125l-0.609375 -0.984375q0.75 -0.640625 1.796875 -0.984375q1.046875 -0.34375 2.203125 -0.34375q1.90625 0 2.9375 0.953125q1.03125 0.9375 1.03125 2.859375l0 6.078125l-1.265625 0zm-3.375 0.09375q-1.109375 0 -1.921875 -0.359375q-0.796875 -0.375 -1.234375 -1.015625q-0.421875 -0.640625 -0.421875 -1.484375q0 -0.765625 0.359375 -1.390625q0.359375 -0.625 1.1875 -1.0q0.84375 -0.390625 2.234375 -0.390625l3.375 0l0 1.0l-3.34375 0q-1.40625 0 -1.96875 0.5q-0.546875 0.5 -0.546875 1.25q0 0.84375 0.65625 1.34375q0.65625 0.5 1.828125 0.5q1.125 0 1.9375 -0.515625q0.8125 -0.515625 1.171875 -1.484375l0.3125 0.921875q-0.375 0.96875 -1.3125 1.546875q-0.921875 0.578125 -2.3125 0.578125zm10.882187 0q-1.21875 0 -2.3125 -0.34375q-1.078125 -0.34375 -1.6875 -0.875l0.59375 -1.046875q0.59375 0.453125 1.53125 0.78125q0.9375 0.328125 1.96875 0.328125q1.390625 0 2.0 -0.4375q0.625 -0.4375 0.625 -1.171875q0 -0.53125 -0.34375 -0.84375q-0.34375 -0.3125 -0.90625 -0.46875q-0.5625 -0.15625 -1.25 -0.265625q-0.6875 -0.109375 -1.375 -0.265625q-0.671875 -0.15625 -1.234375 -0.4375q-0.5625 -0.296875 -0.90625 -0.796875q-0.34375 -0.5 -0.34375 -1.34375q0 -0.796875 0.4375 -1.421875q0.453125 -0.640625 1.3125 -1.0q0.875 -0.375 2.125 -0.375q0.953125 0 1.90625 0.25q0.953125 0.25 1.5625 0.671875l-0.578125 1.0625q-0.65625 -0.453125 -1.40625 -0.640625q-0.734375 -0.203125 -1.484375 -0.203125q-1.328125 0 -1.953125 0.46875q-0.625 0.453125 -0.625 1.15625q0 0.5625 0.34375 0.875q0.34375 0.3125 0.90625 0.5q0.578125 0.171875 1.25 0.28125q0.6875 0.109375 1.375 0.28125q0.6875 0.15625 1.25 0.421875q0.5625 0.265625 0.90625 0.765625q0.359375 0.5 0.359375 1.296875q0 0.859375 -0.484375 1.484375q-0.46875 0.625 -1.375 0.96875q-0.90625 0.34375 -2.1875 0.34375zm10.619873 0q-1.515625 0 -2.671875 -0.640625q-1.15625 -0.640625 -1.8125 -1.765625q-0.65625 -1.140625 -0.65625 -2.59375q0 -1.453125 0.625 -2.5625q0.625 -1.125 1.71875 -1.765625q1.09375 -0.65625 2.453125 -0.65625q1.375 0 2.4375 0.625q1.078125 0.625 1.6875 1.765625q0.625 1.125 0.625 2.59375q0 0.09375 -0.015625 0.203125q0 0.09375 0 0.203125l-8.53125 0l0 -0.984375l7.828125 0l-0.53125 0.390625q0 -1.0625 -0.453125 -1.890625q-0.453125 -0.828125 -1.25 -1.296875q-0.78125 -0.46875 -1.796875 -0.46875q-1.015625 0 -1.8125 0.46875q-0.796875 0.46875 -1.25 1.3125q-0.453125 0.828125 -0.453125 1.90625l0 0.21875q0 1.109375 0.5 1.96875q0.5 0.84375 1.375 1.328125q0.890625 0.46875 2.03125 0.46875q0.890625 0 1.65625 -0.3125q0.78125 -0.328125 1.34375 -0.984375l0.75 0.859375q-0.65625 0.78125 -1.640625 1.203125q-0.96875 0.40625 -2.15625 0.40625zm10.205872 0q-1.375 0 -2.125 -0.75q-0.734375 -0.75 -0.734375 -2.109375l0 -9.1875l1.3125 0l0 9.125q0 0.84375 0.4375 1.3125q0.4375 0.46875 1.265625 0.46875q0.875 0 1.453125 -0.5l0.46875 0.953125q-0.390625 0.34375 -0.953125 0.515625q-0.546875 0.171875 -1.125 0.171875zm-4.625 -8.78125l0 -1.109375l6.0625 0l0 1.109375l-6.0625 0zm16.259247 12.3125q-1.03125 -1.703125 -1.609375 -3.921875q-0.5625 -2.234375 -0.5625 -4.8125q0 -2.578125 0.5625 -4.828125q0.578125 -2.25 1.609375 -3.90625l1.265625 0q-1.109375 1.921875 -1.625 4.078125q-0.5 2.15625 -0.5 4.65625q0 2.5 0.5 4.65625q0.515625 2.15625 1.625 4.078125l-1.265625 0zm6.512909 -3.53125q-1.21875 0 -2.3125 -0.34375q-1.078125 -0.34375 -1.6875 -0.875l0.59375 -1.046875q0.59375 0.453125 1.53125 0.78125q0.9375 0.328125 1.96875 0.328125q1.390625 0 2.0 -0.4375q0.625 -0.4375 0.625 -1.171875q0 -0.53125 -0.34375 -0.84375q-0.34375 -0.3125 -0.90625 -0.46875q-0.5625 -0.15625 -1.25 -0.265625q-0.6875 -0.109375 -1.375 -0.265625q-0.671875 -0.15625 -1.234375 -0.4375q-0.5625 -0.296875 -0.90625 -0.796875q-0.34375 -0.5 -0.34375 -1.34375q0 -0.796875 0.4375 -1.421875q0.453125 -0.640625 1.3125 -1.0q0.875 -0.375 2.125 -0.375q0.953125 0 1.90625 0.25q0.953125 0.25 1.5625 0.671875l-0.578125 1.0625q-0.65625 -0.453125 -1.40625 -0.640625q-0.734375 -0.203125 -1.484375 -0.203125q-1.328125 0 -1.953125 0.46875q-0.625 0.453125 -0.625 1.15625q0 0.5625 0.34375 0.875q0.34375 0.3125 0.90625 0.5q0.578125 0.171875 1.25 0.28125q0.6875 0.109375 1.375 0.28125q0.6875 0.15625 1.25 0.421875q0.5625 0.265625 0.90625 0.765625q0.359375 0.5 0.359375 1.296875q0 0.859375 -0.484375 1.484375q-0.46875 0.625 -1.375 0.96875q-0.90625 0.34375 -2.1875 0.34375zm11.526123 0q-1.265625 0 -2.296875 -0.578125q-1.03125 -0.59375 -1.640625 -1.703125q-0.59375 -1.109375 -0.59375 -2.71875q0 -1.609375 0.59375 -2.71875q0.59375 -1.109375 1.609375 -1.6875q1.03125 -0.578125 2.328125 -0.578125q1.390625 0 2.5 0.625q1.109375 0.625 1.75 1.765625q0.640625 1.125 0.640625 2.59375q0 1.484375 -0.640625 2.609375q-0.640625 1.125 -1.75 1.765625q-1.109375 0.625 -2.5 0.625zm-5.0625 3.53125l0 -13.421875l1.265625 0l0 2.953125l-0.125 1.953125l0.1875 1.984375l0 6.53125l-1.328125 0zm4.96875 -4.703125q1.046875 0 1.859375 -0.46875q0.828125 -0.484375 1.3125 -1.34375q0.484375 -0.875 0.484375 -2.015625q0 -1.140625 -0.484375 -2.0q-0.484375 -0.859375 -1.3125 -1.34375q-0.8125 -0.484375 -1.859375 -0.484375q-1.046875 0 -1.875 0.484375q-0.828125 0.484375 -1.3125 1.34375q-0.46875 0.859375 -0.46875 2.0q0 1.140625 0.46875 2.015625q0.484375 0.859375 1.3125 1.34375q0.828125 0.46875 1.875 0.46875zm7.680191 1.078125l0 -13.84375l1.328125 0l0 13.84375l-1.328125 0zm5.018524 0l0 -9.796875l1.328125 0l0 9.796875l-1.328125 0zm0.671875 -11.953125q-0.40625 0 -0.6875 -0.28125q-0.28125 -0.28125 -0.28125 -0.671875q0 -0.390625 0.28125 -0.65625q0.28125 -0.28125 0.6875 -0.28125q0.40625 0 0.6875 0.265625q0.28125 0.25 0.28125 0.65625q0 0.40625 -0.265625 0.6875q-0.265625 0.28125 -0.703125 0.28125zm7.4404297 12.046875q-1.375 0 -2.125 -0.75q-0.734375 -0.75 -0.734375 -2.109375l0 -9.1875l1.3125 0l0 9.125q0 0.84375 0.4375 1.3125q0.4375 0.46875 1.265625 0.46875q0.875 0 1.453125 -0.5l0.46875 0.953125q-0.390625 0.34375 -0.953125 0.515625q-0.546875 0.171875 -1.125 0.171875zm-4.625 -8.78125l0 -1.109375l6.0625 0l0 1.109375l-6.0625 0zm9.277557 12.3125l-1.265625 0q1.109375 -1.921875 1.625 -4.078125q0.515625 -2.15625 0.515625 -4.65625q0 -2.5 -0.515625 -4.65625q-0.515625 -2.15625 -1.625 -4.078125l1.265625 0q1.0625 1.65625 1.625 3.90625q0.5625 2.25 0.5625 4.828125q0 2.578125 -0.5625 4.8125q-0.5625 2.21875 -1.625 3.921875z" fill-rule="nonzero"/><path fill="#d9ead3" d="m15.233596 256.69037l0 0c0 -3.3296967 2.6992502 -6.028946 6.028945 -6.028946l171.37518 0c1.5989685 0 3.1324615 0.6351776 4.2631073 1.7658386c1.1306458 1.1306458 1.7658386 2.6641235 1.7658386 4.2631073l0 30.14682c0 3.329712 -2.6992493 6.028961 -6.028946 6.028961l-171.37518 0l0 0c-3.3296947 0 -6.028945 -2.6992493 -6.028945 -6.028961z" fill-rule="evenodd"/><path fill="#000000" d="m88.77773 278.68378l0 -11.859375l-4.59375 0l0 -1.203125l10.5625 0l0 1.203125l-4.59375 0l0 11.859375l-1.375 0zm7.619232 0l0 -9.796875l1.265625 0l0 2.671875l-0.125 -0.46875q0.40625 -1.125 1.375 -1.703125q0.96875 -0.59375 2.40625 -0.59375l0 1.296875q-0.0625 0 -0.140625 -0.015625q-0.078125 -0.015625 -0.15625 -0.015625q-1.546875 0 -2.421875 0.953125q-0.875 0.9375 -0.875 2.671875l0 5.0l-1.328125 0zm12.744446 0l0 -2.171875l-0.0625 -0.34375l0 -3.625q0 -1.25 -0.703125 -1.921875q-0.6875 -0.671875 -2.0625 -0.671875q-0.953125 0 -1.8125 0.328125q-0.859375 0.3125 -1.453125 0.828125l-0.609375 -0.984375q0.75 -0.640625 1.796875 -0.984375q1.046875 -0.34375 2.203125 -0.34375q1.90625 0 2.9375 0.953125q1.03125 0.9375 1.03125 2.859375l0 6.078125l-1.265625 0zm-3.375 0.09375q-1.109375 0 -1.921875 -0.359375q-0.796875 -0.375 -1.234375 -1.015625q-0.421875 -0.640625 -0.421875 -1.484375q0 -0.765625 0.359375 -1.390625q0.359375 -0.625 1.1875 -1.0q0.84375 -0.390625 2.234375 -0.390625l3.375 0l0 1.0l-3.34375 0q-1.40625 0 -1.96875 0.5q-0.546875 0.5 -0.546875 1.25q0 0.84375 0.65625 1.34375q0.65625 0.5 1.828125 0.5q1.125 0 1.9375 -0.515625q0.8125 -0.515625 1.171875 -1.484375l0.3125 0.921875q-0.375 0.96875 -1.3125 1.546875q-0.921875 0.578125 -2.3125 0.578125zm8.241562 -0.09375l0 -9.796875l1.328125 0l0 9.796875l-1.328125 0zm0.671875 -11.953125q-0.40625 0 -0.6875 -0.28125q-0.28125 -0.28125 -0.28125 -0.671875q0 -0.390625 0.28125 -0.65625q0.28125 -0.28125 0.6875 -0.28125q0.40625 0 0.6875 0.265625q0.28125 0.25 0.28125 0.65625q0 0.40625 -0.265625 0.6875q-0.265625 0.28125 -0.703125 0.28125zm9.346664 2.0625q1.203125 0 2.09375 0.46875q0.90625 0.453125 1.421875 1.390625q0.5156326 0.921875 0.5156326 2.34375l0 5.6875l-1.3281326 0l0 -5.5625q0 -1.546875 -0.78125 -2.328125q-0.765625 -0.796875 -2.15625 -0.796875q-1.046875 0 -1.828125 0.421875q-0.765625 0.40625 -1.1875 1.203125q-0.421875 0.796875 -0.421875 1.90625l0 5.15625l-1.328125 0l0 -9.796875l1.265625 0l0 2.6875l-0.203125 -0.5q0.46875 -1.0625 1.484375 -1.671875q1.03125 -0.609375 2.453125 -0.609375z" fill-rule="nonzero"/><path fill="#d9ead3" d="m15.233596 374.02893l0 0c0 -3.3296814 2.6992502 -6.0289307 6.028945 -6.0289307l310.05234 0c1.5989685 0 3.1324768 0.6351929 4.2631226 1.7658386c1.1306458 1.1306458 1.7658386 2.6641235 1.7658386 4.263092l0 30.14685c0 3.3296814 -2.6992493 6.0289307 -6.028961 6.0289307l-310.05234 0c-3.3296947 0 -6.028945 -2.6992493 -6.028945 -6.0289307z" fill-rule="evenodd"/><path fill="#000000" d="m139.5747 388.80362l6.90625 0l0 1.171875l-6.90625 0l0 -1.171875zm0.140625 6.03125l7.859375 0l0 1.1875l-9.234375 0l0 -13.0625l8.953125 0l0 1.203125l-7.578125 0l0 10.671875zm13.135071 1.1875l-4.34375 -9.796875l1.390625 0l3.984375 9.09375l-0.65625 0l4.046875 -9.09375l1.3125 0l-4.359375 9.796875l-1.375 0zm13.438034 0l0 -2.171875l-0.0625 -0.34375l0 -3.625q0 -1.25 -0.703125 -1.921875q-0.6875 -0.671875 -2.0625 -0.671875q-0.953125 0 -1.8125 0.328125q-0.859375 0.3125 -1.453125 0.828125l-0.609375 -0.984375q0.75 -0.640625 1.796875 -0.984375q1.046875 -0.34375 2.203125 -0.34375q1.90625 0 2.9375 0.953125q1.03125 0.9375 1.03125 2.859375l0 6.078125l-1.265625 0zm-3.375 0.09375q-1.109375 0 -1.921875 -0.359375q-0.796875 -0.375 -1.234375 -1.015625q-0.421875 -0.640625 -0.421875 -1.484375q0 -0.765625 0.359375 -1.390625q0.359375 -0.625 1.1875 -1.0q0.84375 -0.390625 2.234375 -0.390625l3.375 0l0 1.0l-3.34375 0q-1.40625 0 -1.96875 0.5q-0.546875 0.5 -0.546875 1.25q0 0.84375 0.65625 1.34375q0.65625 0.5 1.828125 0.5q1.125 0 1.9375 -0.515625q0.8125 -0.515625 1.171875 -1.484375l0.3125 0.921875q-0.375 0.96875 -1.3125 1.546875q-0.921875 0.578125 -2.3125 0.578125zm8.241562 -0.09375l0 -13.84375l1.328125 0l0 13.84375l-1.328125 0zm9.065414 0.09375q-1.25 0 -2.1875 -0.46875q-0.921875 -0.46875 -1.4375 -1.390625q-0.515625 -0.9375 -0.515625 -2.34375l0 -5.6875l1.328125 0l0 5.546875q0 1.5625 0.765625 2.359375q0.78125 0.796875 2.1875 0.796875q1.015625 0 1.765625 -0.421875q0.765625 -0.421875 1.15625 -1.21875q0.40625 -0.8125 0.40625 -1.9375l0 -5.125l1.328125 0l0 9.796875l-1.265625 0l0 -2.6875l0.203125 0.484375q-0.46875 1.078125 -1.453125 1.6875q-0.96875 0.609375 -2.28125 0.609375zm14.630753 -0.09375l0 -2.171875l-0.0625 -0.34375l0 -3.625q0 -1.25 -0.703125 -1.921875q-0.6875 -0.671875 -2.0625 -0.671875q-0.953125 0 -1.8125 0.328125q-0.859375 0.3125 -1.453125 0.828125l-0.609375 -0.984375q0.75 -0.640625 1.796875 -0.984375q1.046875 -0.34375 2.203125 -0.34375q1.90625 0 2.9375 0.953125q1.03125 0.9375 1.03125 2.859375l0 6.078125l-1.265625 0zm-3.375 0.09375q-1.109375 0 -1.921875 -0.359375q-0.796875 -0.375 -1.234375 -1.015625q-0.421875 -0.640625 -0.421875 -1.484375q0 -0.765625 0.359375 -1.390625q0.359375 -0.625 1.1875 -1.0q0.84375 -0.390625 2.234375 -0.390625l3.375 0l0 1.0l-3.34375 0q-1.40625 0 -1.96875 0.5q-0.546875 0.5 -0.546875 1.25q0 0.84375 0.65625 1.34375q0.65625 0.5 1.828125 0.5q1.125 0 1.9375 -0.515625q0.8125 -0.515625 1.171875 -1.484375l0.3125 0.921875q-0.375 0.96875 -1.3125 1.546875q-0.921875 0.578125 -2.3125 0.578125zm11.335312 0q-1.375 0 -2.125 -0.75q-0.734375 -0.75 -0.734375 -2.109375l0 -9.1875l1.3125 0l0 9.125q0 0.84375 0.4375 1.3125q0.4375 0.46875 1.265625 0.46875q0.875 0 1.453125 -0.5l0.46875 0.953125q-0.390625 0.34375 -0.953125 0.515625q-0.546875 0.171875 -1.125 0.171875zm-4.625 -8.78125l0 -1.109375l6.0625 0l0 1.109375l-6.0625 0zm12.907272 8.78125q-1.515625 0 -2.671875 -0.640625q-1.15625 -0.640625 -1.8125 -1.765625q-0.65625 -1.140625 -0.65625 -2.59375q0 -1.453125 0.625 -2.5625q0.625 -1.125 1.71875 -1.765625q1.09375 -0.65625 2.453125 -0.65625q1.375 0 2.4375 0.625q1.078125 0.625 1.6875 1.765625q0.625 1.125 0.625 2.59375q0 0.09375 -0.015625 0.203125q0 0.09375 0 0.203125l-8.53125 0l0 -0.984375l7.828125 0l-0.53125 0.390625q0 -1.0625 -0.453125 -1.890625q-0.453125 -0.828125 -1.25 -1.296875q-0.78125 -0.46875 -1.796875 -0.46875q-1.015625 0 -1.8125 0.46875q-0.796875 0.46875 -1.25 1.3125q-0.453125 0.828125 -0.453125 1.90625l0 0.21875q0 1.109375 0.5 1.96875q0.5 0.84375 1.375 1.328125q0.890625 0.46875 2.03125 0.46875q0.890625 0 1.65625 -0.3125q0.78125 -0.328125 1.34375 -0.984375l0.75 0.859375q-0.65625 0.78125 -1.640625 1.203125q-0.96875 0.40625 -2.15625 0.40625z" fill-rule="nonzero"/><path fill="#cccccc" d="m96.808395 79.32809l158.96063 0l0 32.850388l-158.96063 0z" fill-rule="evenodd"/><path fill="#000000" d="m124.53196 101.89328l0 -12.125l4.5468826 0q1.546875 0 2.65625 0.5q1.109375 0.484375 1.703125 1.421875q0.59375 0.921875 0.59375 2.234375q0 1.28125 -0.59375 2.21875q-0.59375 0.921875 -1.703125 1.421875q-1.109375 0.484375 -2.65625 0.484375l-3.8281326 0l0.5625 -0.59375l0 4.4375l-1.28125 0zm8.296883 0l-3.125 -4.40625l1.390625 0l3.125 4.40625l-1.390625 0zm-7.0156326 -4.328125l-0.5625 -0.609375l3.7968826 0q1.8125 0 2.75 -0.796875q0.953125 -0.796875 0.953125 -2.234375q0 -1.453125 -0.953125 -2.25q-0.9375 -0.796875 -2.75 -0.796875l-3.7968826 0l0.5625 -0.609375l0 7.296875zm16.61338 4.328125l0 -2.015625l-0.0625 -0.328125l0 -3.359375q0 -1.15625 -0.65625 -1.78125q-0.640625 -0.625 -1.921875 -0.625q-0.875 0 -1.6875 0.296875q-0.796875 0.296875 -1.34375 0.78125l-0.546875 -0.921875q0.6875 -0.59375 1.65625 -0.90625q0.96875 -0.328125 2.046875 -0.328125q1.765625 0 2.71875 0.875q0.96875 0.875 0.96875 2.65625l0 5.65625l-1.171875 0zm-3.140625 0.09375q-1.03125 0 -1.78125 -0.34375q-0.75 -0.34375 -1.15625 -0.9375q-0.390625 -0.59375 -0.390625 -1.375q0 -0.71875 0.328125 -1.296875q0.34375 -0.578125 1.109375 -0.921875q0.78125 -0.359375 2.078125 -0.359375l3.140625 0l0 0.90625l-3.109375 0q-1.3125 0 -1.828125 0.46875q-0.5 0.46875 -0.5 1.171875q0 0.78125 0.59375 1.25q0.609375 0.453125 1.703125 0.453125q1.046875 0 1.796875 -0.46875q0.75 -0.484375 1.09375 -1.375l0.28125 0.84375q-0.34375 0.90625 -1.203125 1.453125q-0.859375 0.53125 -2.15625 0.53125zm9.331451 -0.09375l-3.421875 -9.09375l1.171875 0l3.125 8.4375l-0.53125 0l3.203125 -8.4375l1.046875 0l3.171875 8.4375l-0.53125 0l3.171875 -8.4375l1.125 0l-3.453125 9.09375l-1.15625 0l-3.046875 -7.9375l0.359375 0l-3.0625 7.9375l-1.171875 0zm21.552536 0.09375q-1.3125 0 -2.34375 -0.59375q-1.03125 -0.59375 -1.625 -1.640625q-0.578125 -1.046875 -0.578125 -2.421875q0 -1.375 0.578125 -2.40625q0.59375 -1.046875 1.625 -1.625q1.03125 -0.59375 2.34375 -0.59375q1.1875 0 2.125 0.546875q0.953125 0.53125 1.515625 1.5625q0.5625 1.03125 0.5625 2.515625q0 1.484375 -0.5625 2.53125q-0.546875 1.03125 -1.5 1.578125q-0.9375 0.546875 -2.140625 0.546875zm0.078125 -1.09375q0.96875 0 1.734375 -0.4375q0.78125 -0.453125 1.21875 -1.25q0.4375 -0.8125 0.4375 -1.875q0 -1.0625 -0.4375 -1.859375q-0.4375 -0.796875 -1.21875 -1.234375q-0.765625 -0.453125 -1.734375 -0.453125q-0.953125 0 -1.71875 0.453125q-0.75 0.4375 -1.203125 1.234375q-0.453125 0.796875 -0.453125 1.859375q0 1.0625 0.453125 1.875q0.453125 0.796875 1.203125 1.25q0.765625 0.4375 1.71875 0.4375zm3.4375 1.0l0 -2.734375l0.109375 -1.84375l-0.171875 -1.828125l0 -6.453125l1.234375 0l0 12.859375l-1.171875 0zm10.310898 0l0 -2.015625l-0.0625 -0.328125l0 -3.359375q0 -1.15625 -0.65625 -1.78125q-0.640625 -0.625 -1.921875 -0.625q-0.875 0 -1.6875 0.296875q-0.796875 0.296875 -1.34375 0.78125l-0.546875 -0.921875q0.6875 -0.59375 1.65625 -0.90625q0.96875 -0.328125 2.046875 -0.328125q1.765625 0 2.71875 0.875q0.96875 0.875 0.96875 2.65625l0 5.65625l-1.171875 0zm-3.140625 0.09375q-1.03125 0 -1.78125 -0.34375q-0.75 -0.34375 -1.15625 -0.9375q-0.390625 -0.59375 -0.390625 -1.375q0 -0.71875 0.328125 -1.296875q0.34375 -0.578125 1.109375 -0.921875q0.78125 -0.359375 2.078125 -0.359375l3.140625 0l0 0.90625l-3.109375 0q-1.3125 0 -1.828125 0.46875q-0.5 0.46875 -0.5 1.171875q0 0.78125 0.59375 1.25q0.609375 0.453125 1.703125 0.453125q1.046875 0 1.796875 -0.46875q0.75 -0.484375 1.09375 -1.375l0.28125 0.84375q-0.34375 0.90625 -1.203125 1.453125q-0.859375 0.53125 -2.15625 0.53125zm10.536041 0q-1.28125 0 -1.984375 -0.6875q-0.6875 -0.703125 -0.6875 -1.96875l0 -8.546875l1.234375 0l0 8.46875q0 0.796875 0.40625 1.234375q0.40625 0.4375 1.171875 0.4375q0.8125 0 1.34375 -0.46875l0.4375 0.890625q-0.359375 0.328125 -0.875 0.484375q-0.515625 0.15625 -1.046875 0.15625zm-4.296875 -8.171875l0 -1.015625l5.625 0l0 1.015625l-5.625 0zm14.1601715 8.078125l0 -2.015625l-0.0625 -0.328125l0 -3.359375q0 -1.15625 -0.65625 -1.78125q-0.640625 -0.625 -1.921875 -0.625q-0.875 0 -1.6875 0.296875q-0.796875 0.296875 -1.34375 0.78125l-0.546875 -0.921875q0.6875 -0.59375 1.65625 -0.90625q0.96875 -0.328125 2.046875 -0.328125q1.765625 0 2.71875 0.875q0.96875 0.875 0.96875 2.65625l0 5.65625l-1.171875 0zm-3.140625 0.09375q-1.03125 0 -1.78125 -0.34375q-0.75 -0.34375 -1.15625 -0.9375q-0.390625 -0.59375 -0.390625 -1.375q0 -0.71875 0.328125 -1.296875q0.34375 -0.578125 1.109375 -0.921875q0.78125 -0.359375 2.078125 -0.359375l3.140625 0l0 0.90625l-3.109375 0q-1.3125 0 -1.828125 0.46875q-0.5 0.46875 -0.5 1.171875q0 0.78125 0.59375 1.25q0.609375 0.453125 1.703125 0.453125q1.046875 0 1.796875 -0.46875q0.75 -0.484375 1.09375 -1.375l0.28125 0.84375q-0.34375 0.90625 -1.203125 1.453125q-0.859375 0.53125 -2.15625 0.53125zm10.098541 0q-1.125 0 -2.140625 -0.3125q-1.0 -0.328125 -1.5625 -0.828125l0.546875 -0.96875q0.5625 0.421875 1.421875 0.734375q0.875 0.296875 1.828125 0.296875q1.296875 0 1.859375 -0.40625q0.578125 -0.40625 0.578125 -1.09375q0 -0.5 -0.328125 -0.78125q-0.3125 -0.28125 -0.84375 -0.421875q-0.515625 -0.15625 -1.15625 -0.265625q-0.640625 -0.109375 -1.28125 -0.234375q-0.625 -0.140625 -1.140625 -0.40625q-0.515625 -0.28125 -0.84375 -0.75q-0.3125 -0.46875 -0.3125 -1.234375q0 -0.75 0.40625 -1.34375q0.421875 -0.59375 1.21875 -0.921875q0.8125 -0.34375 1.984375 -0.34375q0.875 0 1.75 0.234375q0.890625 0.234375 1.46875 0.625l-0.546875 0.984375q-0.59375 -0.421875 -1.296875 -0.59375q-0.6875 -0.1875 -1.375 -0.1875q-1.234375 0 -1.8125 0.421875q-0.578125 0.421875 -0.578125 1.078125q0 0.53125 0.3125 0.828125q0.328125 0.28125 0.84375 0.453125q0.53125 0.15625 1.15625 0.265625q0.640625 0.109375 1.265625 0.265625q0.640625 0.140625 1.171875 0.390625q0.53125 0.25 0.84375 0.71875q0.328125 0.453125 0.328125 1.1875q0 0.796875 -0.453125 1.390625q-0.4375 0.578125 -1.28125 0.90625q-0.828125 0.3125 -2.03125 0.3125zm9.877945 0q-1.421875 0 -2.5 -0.59375q-1.0625 -0.609375 -1.671875 -1.65625q-0.609375 -1.046875 -0.609375 -2.40625q0 -1.34375 0.578125 -2.375q0.578125 -1.046875 1.59375 -1.640625q1.015625 -0.609375 2.28125 -0.609375q1.28125 0 2.28125 0.59375q1.0 0.578125 1.5625 1.625q0.578125 1.046875 0.578125 2.40625q0 0.09375 -0.015625 0.1875q0 0.09375 0 0.203125l-7.921875 0l0 -0.921875l7.265625 0l-0.484375 0.359375q0 -0.984375 -0.4375 -1.75q-0.421875 -0.78125 -1.15625 -1.203125q-0.71875 -0.4375 -1.671875 -0.4375q-0.9375 0 -1.6875 0.4375q-0.734375 0.421875 -1.15625 1.203125q-0.40625 0.78125 -0.40625 1.78125l0 0.203125q0 1.03125 0.453125 1.828125q0.453125 0.78125 1.28125 1.234375q0.828125 0.4375 1.875 0.4375q0.84375 0 1.5625 -0.296875q0.71875 -0.296875 1.234375 -0.90625l0.6875 0.796875q-0.609375 0.734375 -1.515625 1.125q-0.90625 0.375 -2.0 0.375zm9.4817505 0q-1.28125 0 -1.984375 -0.6875q-0.6875 -0.703125 -0.6875 -1.96875l0 -8.546875l1.234375 0l0 8.46875q0 0.796875 0.40625 1.234375q0.40625 0.4375 1.171875 0.4375q0.8125 0 1.34375 -0.46875l0.4375 0.890625q-0.359375 0.328125 -0.875 0.484375q-0.515625 0.15625 -1.046875 0.15625zm-4.296875 -8.171875l0 -1.015625l5.625 0l0 1.015625l-5.625 0z" fill-rule="nonzero"/><path fill="#cccccc" d="m24.650919 196.66798l164.12598 0l0 32.850388l-164.12598 0z" fill-rule="evenodd"/><path fill="#000000" d="m38.7844 219.23317l0 -11.015625l-4.265625 0l0 -1.109375l9.8125 0l0 1.109375l-4.265625 0l0 11.015625l-1.28125 0zm7.0942535 0l0 -9.09375l1.171875 0l0 2.46875l-0.125 -0.421875q0.390625 -1.046875 1.28125 -1.59375q0.90625 -0.546875 2.25 -0.546875l0 1.203125q-0.078125 0 -0.15625 0q-0.0625 -0.015625 -0.125 -0.015625q-1.4375 0 -2.25 0.875q-0.8125 0.875 -0.8125 2.484375l0 4.640625l-1.234375 0zm11.83699 0l0 -2.015625l-0.0625 -0.328125l0 -3.359375q0 -1.15625 -0.65625 -1.78125q-0.640625 -0.625 -1.921875 -0.625q-0.875 0 -1.6875 0.296875q-0.796875 0.296875 -1.34375 0.78125l-0.546875 -0.921875q0.6875 -0.59375 1.65625 -0.90625q0.96875 -0.328125 2.046875 -0.328125q1.765625 0 2.71875 0.875q0.96875 0.875 0.96875 2.65625l0 5.65625l-1.171875 0zm-3.140625 0.09375q-1.03125 0 -1.78125 -0.34375q-0.75 -0.34375 -1.15625 -0.9375q-0.390625 -0.59375 -0.390625 -1.375q0 -0.71875 0.328125 -1.296875q0.34375 -0.578125 1.109375 -0.921875q0.78125 -0.359375 2.078125 -0.359375l3.140625 0l0 0.90625l-3.109375 0q-1.3125 0 -1.828125 0.46875q-0.5 0.46875 -0.5 1.171875q0 0.78125 0.59375 1.25q0.609375 0.453125 1.703125 0.453125q1.046875 0 1.796875 -0.46875q0.75 -0.484375 1.09375 -1.375l0.28125 0.84375q-0.34375 0.90625 -1.203125 1.453125q-0.859375 0.53125 -2.15625 0.53125zm7.6610413 -0.09375l0 -9.09375l1.234375 0l0 9.09375l-1.234375 0zm0.625 -11.109375q-0.390625 0 -0.65625 -0.25q-0.25 -0.265625 -0.25 -0.625q0 -0.375 0.25 -0.625q0.265625 -0.25 0.65625 -0.25q0.375 0 0.625 0.25q0.265625 0.234375 0.265625 0.59375q0 0.390625 -0.25 0.65625q-0.25 0.25 -0.640625 0.25zm8.676865 1.921875q1.109375 0 1.953125 0.4375q0.84375 0.421875 1.3125 1.28125q0.484375 0.859375 0.484375 2.1875l0 5.28125l-1.234375 0l0 -5.15625q0 -1.453125 -0.71875 -2.1875q-0.71875 -0.734375 -2.015625 -0.734375q-0.984375 0 -1.703125 0.390625q-0.71875 0.390625 -1.109375 1.125q-0.375 0.734375 -0.375 1.78125l0 4.78125l-1.234375 0l0 -9.09375l1.171875 0l0 2.484375l-0.1875 -0.453125q0.4375 -1.0 1.390625 -1.5625q0.953125 -0.5625 2.265625 -0.5625zm4.91687 10.921875l5.71875 -16.328125l1.125 0l-5.71875 16.328125l-1.125 0zm12.184265 -1.734375l-5.375 -12.125l1.390625 0l5.03125 11.421875l-0.765625 0l5.0625 -11.421875l1.296875 0l-5.375 12.125l-1.265625 0zm13.141617 0l0 -2.015625l-0.0625 -0.328125l0 -3.359375q0 -1.15625 -0.65625 -1.78125q-0.640625 -0.625 -1.921875 -0.625q-0.875 0 -1.6875 0.296875q-0.796875 0.296875 -1.34375 0.78125l-0.546875 -0.921875q0.6875 -0.59375 1.65625 -0.90625q0.96875 -0.328125 2.046875 -0.328125q1.765625 0 2.71875 0.875q0.96875 0.875 0.96875 2.65625l0 5.65625l-1.171875 0zm-3.140625 0.09375q-1.03125 0 -1.78125 -0.34375q-0.75 -0.34375 -1.15625 -0.9375q-0.390625 -0.59375 -0.390625 -1.375q0 -0.71875 0.328125 -1.296875q0.34375 -0.578125 1.109375 -0.921875q0.78125 -0.359375 2.078125 -0.359375l3.140625 0l0 0.90625l-3.109375 0q-1.3125 0 -1.828125 0.46875q-0.5 0.46875 -0.5 1.171875q0 0.78125 0.59375 1.25q0.609375 0.453125 1.703125 0.453125q1.046875 0 1.796875 -0.46875q0.75 -0.484375 1.09375 -1.375l0.28125 0.84375q-0.34375 0.90625 -1.203125 1.453125q-0.859375 0.53125 -2.15625 0.53125zm7.6610413 -0.09375l0 -12.859375l1.234375 0l0 12.859375l-1.234375 0zm12.826187 0.09375q-1.3125 0 -2.34375 -0.59375q-1.03125 -0.59375 -1.625 -1.640625q-0.578125 -1.046875 -0.578125 -2.421875q0 -1.375 0.578125 -2.40625q0.59375 -1.046875 1.625 -1.625q1.03125 -0.59375 2.34375 -0.59375q1.1875 0 2.125 0.546875q0.953125 0.53125 1.515625 1.5625q0.5625 1.03125 0.5625 2.515625q0 1.484375 -0.5625 2.53125q-0.546875 1.03125 -1.5 1.578125q-0.9375 0.546875 -2.140625 0.546875zm0.078125 -1.09375q0.96875 0 1.734375 -0.4375q0.78125 -0.453125 1.21875 -1.25q0.4375 -0.8125 0.4375 -1.875q0 -1.0625 -0.4375 -1.859375q-0.4375 -0.796875 -1.21875 -1.234375q-0.765625 -0.453125 -1.734375 -0.453125q-0.953125 0 -1.71875 0.453125q-0.75 0.4375 -1.203125 1.234375q-0.453125 0.796875 -0.453125 1.859375q0 1.0625 0.453125 1.875q0.453125 0.796875 1.203125 1.25q0.765625 0.4375 1.71875 0.4375zm3.4375 1.0l0 -2.734375l0.109375 -1.84375l-0.171875 -1.828125l0 -6.453125l1.234375 0l0 12.859375l-1.171875 0zm10.310905 0l0 -2.015625l-0.0625 -0.328125l0 -3.359375q0 -1.15625 -0.65625 -1.78125q-0.640625 -0.625 -1.921875 -0.625q-0.875 0 -1.6875 0.296875q-0.7968826 0.296875 -1.3437576 0.78125l-0.546875 -0.921875q0.6875 -0.59375 1.6562576 -0.90625q0.96875 -0.328125 2.046875 -0.328125q1.765625 0 2.71875 0.875q0.96875 0.875 0.96875 2.65625l0 5.65625l-1.171875 0zm-3.140625 0.09375q-1.03125 0 -1.78125 -0.34375q-0.7500076 -0.34375 -1.1562576 -0.9375q-0.390625 -0.59375 -0.390625 -1.375q0 -0.71875 0.328125 -1.296875q0.34375 -0.578125 1.109375 -0.921875q0.7812576 -0.359375 2.0781326 -0.359375l3.140625 0l0 0.90625l-3.109375 0q-1.3125 0 -1.828125 0.46875q-0.5000076 0.46875 -0.5000076 1.171875q0 0.78125 0.5937576 1.25q0.609375 0.453125 1.703125 0.453125q1.046875 0 1.796875 -0.46875q0.75 -0.484375 1.09375 -1.375l0.28125 0.84375q-0.34375 0.90625 -1.203125 1.453125q-0.859375 0.53125 -2.15625 0.53125zm10.536041 0q-1.28125 0 -1.984375 -0.6875q-0.6875 -0.703125 -0.6875 -1.96875l0 -8.546875l1.234375 0l0 8.46875q0 0.796875 0.40625 1.234375q0.40625 0.4375 1.171875 0.4375q0.8125 0 1.34375 -0.46875l0.4375 0.890625q-0.359375 0.328125 -0.875 0.484375q-0.515625 0.15625 -1.046875 0.15625zm-4.296875 -8.171875l0 -1.015625l5.625 0l0 1.015625l-5.625 0zm14.1601715 8.078125l0 -2.015625l-0.0625 -0.328125l0 -3.359375q0 -1.15625 -0.65625 -1.78125q-0.640625 -0.625 -1.921875 -0.625q-0.875 0 -1.6875 0.296875q-0.796875 0.296875 -1.34375 0.78125l-0.546875 -0.921875q0.6875 -0.59375 1.65625 -0.90625q0.96875 -0.328125 2.046875 -0.328125q1.765625 0 2.71875 0.875q0.96875 0.875 0.96875 2.65625l0 5.65625l-1.171875 0zm-3.140625 0.09375q-1.03125 0 -1.78125 -0.34375q-0.75 -0.34375 -1.15625 -0.9375q-0.390625 -0.59375 -0.390625 -1.375q0 -0.71875 0.328125 -1.296875q0.34375 -0.578125 1.109375 -0.921875q0.78125 -0.359375 2.078125 -0.359375l3.140625 0l0 0.90625l-3.109375 0q-1.3125 0 -1.828125 0.46875q-0.5 0.46875 -0.5 1.171875q0 0.78125 0.59375 1.25q0.609375 0.453125 1.703125 0.453125q1.046875 0 1.796875 -0.46875q0.75 -0.484375 1.09375 -1.375l0.28125 0.84375q-0.34375 0.90625 -1.203125 1.453125q-0.859375 0.53125 -2.15625 0.53125zm10.098541 0q-1.125 0 -2.140625 -0.3125q-1.0 -0.328125 -1.5625 -0.828125l0.546875 -0.96875q0.5625 0.421875 1.421875 0.734375q0.875 0.296875 1.828125 0.296875q1.296875 0 1.859375 -0.40625q0.578125 -0.40625 0.578125 -1.09375q0 -0.5 -0.328125 -0.78125q-0.3125 -0.28125 -0.84375 -0.421875q-0.515625 -0.15625 -1.15625 -0.265625q-0.640625 -0.109375 -1.28125 -0.234375q-0.625 -0.140625 -1.140625 -0.40625q-0.515625 -0.28125 -0.84375 -0.75q-0.3125 -0.46875 -0.3125 -1.234375q0 -0.75 0.40625 -1.34375q0.421875 -0.59375 1.21875 -0.921875q0.8125 -0.34375 1.984375 -0.34375q0.875 0 1.75 0.234375q0.890625 0.234375 1.46875 0.625l-0.546875 0.984375q-0.59375 -0.421875 -1.296875 -0.59375q-0.6875 -0.1875 -1.375 -0.1875q-1.234375 0 -1.8125 0.421875q-0.578125 0.421875 -0.578125 1.078125q0 0.53125 0.3125 0.828125q0.328125 0.28125 0.84375 0.453125q0.53125 0.15625 1.15625 0.265625q0.640625 0.109375 1.265625 0.265625q0.640625 0.140625 1.171875 0.390625q0.53125 0.25 0.84375 0.71875q0.328125 0.453125 0.328125 1.1875q0 0.796875 -0.453125 1.390625q-0.4375 0.578125 -1.28125 0.90625q-0.828125 0.3125 -2.03125 0.3125zm9.877945 0q-1.421875 0 -2.5 -0.59375q-1.0625 -0.609375 -1.671875 -1.65625q-0.609375 -1.046875 -0.609375 -2.40625q0 -1.34375 0.578125 -2.375q0.578125 -1.046875 1.59375 -1.640625q1.015625 -0.609375 2.28125 -0.609375q1.28125 0 2.28125 0.59375q1.0 0.578125 1.5625 1.625q0.578125 1.046875 0.578125 2.40625q0 0.09375 -0.015625 0.1875q0 0.09375 0 0.203125l-7.921875 0l0 -0.921875l7.265625 0l-0.484375 0.359375q0 -0.984375 -0.4375 -1.75q-0.421875 -0.78125 -1.15625 -1.203125q-0.71875 -0.4375 -1.671875 -0.4375q-0.9375 0 -1.6875 0.4375q-0.734375 0.421875 -1.15625 1.203125q-0.40625 0.78125 -0.40625 1.78125l0 0.203125q0 1.03125 0.453125 1.828125q0.453125 0.78125 1.28125 1.234375q0.828125 0.4375 1.875 0.4375q0.84375 0 1.5625 -0.296875q0.71875 -0.296875 1.234375 -0.90625l0.6875 0.796875q-0.609375 0.734375 -1.515625 1.125q-0.90625 0.375 -2.0 0.375zm9.4817505 0q-1.28125 0 -1.984375 -0.6875q-0.6875 -0.703125 -0.6875 -1.96875l0 -8.546875l1.234375 0l0 8.46875q0 0.796875 0.40625 1.234375q0.40625 0.4375 1.171875 0.4375q0.8125 0 1.34375 -0.46875l0.4375 0.890625q-0.359375 0.328125 -0.875 0.484375q-0.515625 0.15625 -1.046875 0.15625zm-4.296875 -8.171875l0 -1.015625l5.625 0l0 1.015625l-5.625 0z" fill-rule="nonzero"/><path fill="#cccccc" d="m203.44357 196.6693l124.409454 0l0 32.850388l-124.409454 0z" fill-rule="evenodd"/><path fill="#000000" d="m217.63728 219.23448l0 -11.015625l-4.265625 0l0 -1.109375l9.8125 0l0 1.109375l-4.265625 0l0 11.015625l-1.28125 0zm10.24295 0.09375q-1.421875 0 -2.5 -0.59375q-1.0625 -0.609375 -1.671875 -1.65625q-0.609375 -1.046875 -0.609375 -2.40625q0 -1.34375 0.578125 -2.375q0.578125 -1.046875 1.59375 -1.640625q1.015625 -0.609375 2.28125 -0.609375q1.28125 0 2.28125 0.59375q1.0 0.578125 1.5625 1.625q0.578125 1.046875 0.578125 2.40625q0 0.09375 -0.015625 0.1875q0 0.09375 0 0.203125l-7.921875 0l0 -0.921875l7.265625 0l-0.484375 0.359375q0 -0.984375 -0.4375 -1.75q-0.421875 -0.78125 -1.15625 -1.203125q-0.71875 -0.4375 -1.671875 -0.4375q-0.9375 0 -1.6875 0.4375q-0.734375 0.421875 -1.15625 1.203125q-0.40625 0.78125 -0.40625 1.78125l0 0.203125q0 1.03125 0.453125 1.828125q0.453125 0.78125 1.28125 1.234375q0.828125 0.4375 1.875 0.4375q0.84375 0 1.5625 -0.296875q0.71875 -0.296875 1.234375 -0.90625l0.6875 0.796875q-0.609375 0.734375 -1.515625 1.125q-0.90625 0.375 -2.0 0.375zm9.0442505 0q-1.125 0 -2.140625 -0.3125q-1.0 -0.328125 -1.5625 -0.828125l0.546875 -0.96875q0.5625 0.421875 1.421875 0.734375q0.875 0.296875 1.828125 0.296875q1.296875 0 1.859375 -0.40625q0.578125 -0.40625 0.578125 -1.09375q0 -0.5 -0.328125 -0.78125q-0.3125 -0.28125 -0.84375 -0.421875q-0.515625 -0.15625 -1.15625 -0.265625q-0.640625 -0.109375 -1.28125 -0.234375q-0.625 -0.140625 -1.140625 -0.40625q-0.515625 -0.28125 -0.84375 -0.75q-0.3125 -0.46875 -0.3125 -1.234375q0 -0.75 0.40625 -1.34375q0.421875 -0.59375 1.21875 -0.921875q0.8125 -0.34375 1.984375 -0.34375q0.875 0 1.75 0.234375q0.890625 0.234375 1.46875 0.625l-0.546875 0.984375q-0.59375 -0.421875 -1.296875 -0.59375q-0.6875 -0.1875 -1.375 -0.1875q-1.234375 0 -1.8125 0.421875q-0.578125 0.421875 -0.578125 1.078125q0 0.53125 0.3125 0.828125q0.328125 0.28125 0.84375 0.453125q0.53125 0.15625 1.15625 0.265625q0.640625 0.109375 1.265625 0.265625q0.640625 0.140625 1.171875 0.390625q0.53125 0.25 0.84375 0.71875q0.328125 0.453125 0.328125 1.1875q0 0.796875 -0.453125 1.390625q-0.4375 0.578125 -1.28125 0.90625q-0.828125 0.3125 -2.03125 0.3125zm8.89357 0q-1.28125 0 -1.984375 -0.6875q-0.6875 -0.703125 -0.6875 -1.96875l0 -8.546875l1.234375 0l0 8.46875q0 0.796875 0.40625 1.234375q0.40625 0.4375 1.171875 0.4375q0.8125 0 1.34375 -0.46875l0.4375 0.890625q-0.359375 0.328125 -0.875 0.484375q-0.515625 0.15625 -1.046875 0.15625zm-4.296875 -8.171875l0 -1.015625l5.625 0l0 1.015625l-5.625 0zm16.621979 8.171875q-1.3125 0 -2.3437347 -0.59375q-1.03125 -0.59375 -1.625 -1.640625q-0.578125 -1.046875 -0.578125 -2.421875q0 -1.375 0.578125 -2.40625q0.59375 -1.046875 1.625 -1.625q1.0312347 -0.59375 2.3437347 -0.59375q1.1875 0 2.125 0.546875q0.953125 0.53125 1.515625 1.5625q0.5625 1.03125 0.5625 2.515625q0 1.484375 -0.5625 2.53125q-0.546875 1.03125 -1.5 1.578125q-0.9375 0.546875 -2.140625 0.546875zm0.078125 -1.09375q0.96875 0 1.734375 -0.4375q0.78125 -0.453125 1.21875 -1.25q0.4375 -0.8125 0.4375 -1.875q0 -1.0625 -0.4375 -1.859375q-0.4375 -0.796875 -1.21875 -1.234375q-0.765625 -0.453125 -1.734375 -0.453125q-0.953125 0 -1.71875 0.453125q-0.74998474 0.4375 -1.2031097 1.234375q-0.453125 0.796875 -0.453125 1.859375q0 1.0625 0.453125 1.875q0.453125 0.796875 1.2031097 1.25q0.765625 0.4375 1.71875 0.4375zm3.4375 1.0l0 -2.734375l0.109375 -1.84375l-0.171875 -1.828125l0 -6.453125l1.234375 0l0 12.859375l-1.171875 0zm10.310913 0l0 -2.015625l-0.0625 -0.328125l0 -3.359375q0 -1.15625 -0.65625 -1.78125q-0.640625 -0.625 -1.921875 -0.625q-0.875 0 -1.6875 0.296875q-0.796875 0.296875 -1.34375 0.78125l-0.546875 -0.921875q0.6875 -0.59375 1.65625 -0.90625q0.96875 -0.328125 2.046875 -0.328125q1.765625 0 2.71875 0.875q0.96875 0.875 0.96875 2.65625l0 5.65625l-1.171875 0zm-3.140625 0.09375q-1.03125 0 -1.78125 -0.34375q-0.75 -0.34375 -1.15625 -0.9375q-0.390625 -0.59375 -0.390625 -1.375q0 -0.71875 0.328125 -1.296875q0.34375 -0.578125 1.109375 -0.921875q0.78125 -0.359375 2.078125 -0.359375l3.140625 0l0 0.90625l-3.109375 0q-1.3125 0 -1.828125 0.46875q-0.5 0.46875 -0.5 1.171875q0 0.78125 0.59375 1.25q0.609375 0.453125 1.703125 0.453125q1.046875 0 1.796875 -0.46875q0.75 -0.484375 1.09375 -1.375l0.28125 0.84375q-0.34375 0.90625 -1.203125 1.453125q-0.859375 0.53125 -2.15625 0.53125zm10.536041 0q-1.28125 0 -1.984375 -0.6875q-0.6875 -0.703125 -0.6875 -1.96875l0 -8.546875l1.234375 0l0 8.46875q0 0.796875 0.40625 1.234375q0.40625 0.4375 1.171875 0.4375q0.8125 0 1.34375 -0.46875l0.4375 0.890625q-0.359375 0.328125 -0.875 0.484375q-0.515625 0.15625 -1.046875 0.15625zm-4.296875 -8.171875l0 -1.015625l5.625 0l0 1.015625l-5.625 0zm14.160156 8.078125l0 -2.015625l-0.0625 -0.328125l0 -3.359375q0 -1.15625 -0.65625 -1.78125q-0.640625 -0.625 -1.921875 -0.625q-0.875 0 -1.6875 0.296875q-0.796875 0.296875 -1.34375 0.78125l-0.546875 -0.921875q0.6875 -0.59375 1.65625 -0.90625q0.96875 -0.328125 2.046875 -0.328125q1.765625 0 2.71875 0.875q0.96875 0.875 0.96875 2.65625l0 5.65625l-1.171875 0zm-3.140625 0.09375q-1.03125 0 -1.78125 -0.34375q-0.75 -0.34375 -1.15625 -0.9375q-0.390625 -0.59375 -0.390625 -1.375q0 -0.71875 0.328125 -1.296875q0.34375 -0.578125 1.109375 -0.921875q0.78125 -0.359375 2.078125 -0.359375l3.140625 0l0 0.90625l-3.109375 0q-1.3125 0 -1.828125 0.46875q-0.5 0.46875 -0.5 1.171875q0 0.78125 0.59375 1.25q0.609375 0.453125 1.703125 0.453125q1.046875 0 1.796875 -0.46875q0.75 -0.484375 1.09375 -1.375l0.28125 0.84375q-0.34375 0.90625 -1.203125 1.453125q-0.859375 0.53125 -2.15625 0.53125zm10.098541 0q-1.125 0 -2.140625 -0.3125q-1.0 -0.328125 -1.5625 -0.828125l0.546875 -0.96875q0.5625 0.421875 1.421875 0.734375q0.875 0.296875 1.828125 0.296875q1.296875 0 1.859375 -0.40625q0.578125 -0.40625 0.578125 -1.09375q0 -0.5 -0.328125 -0.78125q-0.3125 -0.28125 -0.84375 -0.421875q-0.515625 -0.15625 -1.15625 -0.265625q-0.640625 -0.109375 -1.28125 -0.234375q-0.625 -0.140625 -1.140625 -0.40625q-0.515625 -0.28125 -0.84375 -0.75q-0.3125 -0.46875 -0.3125 -1.234375q0 -0.75 0.40625 -1.34375q0.421875 -0.59375 1.21875 -0.921875q0.8125 -0.34375 1.984375 -0.34375q0.875 0 1.75 0.234375q0.890625 0.234375 1.46875 0.625l-0.546875 0.984375q-0.59375 -0.421875 -1.296875 -0.59375q-0.6875 -0.1875 -1.375 -0.1875q-1.234375 0 -1.8125 0.421875q-0.578125 0.421875 -0.578125 1.078125q0 0.53125 0.3125 0.828125q0.328125 0.28125 0.84375 0.453125q0.53125 0.15625 1.15625 0.265625q0.640625 0.109375 1.265625 0.265625q0.640625 0.140625 1.171875 0.390625q0.53125 0.25 0.84375 0.71875q0.328125 0.453125 0.328125 1.1875q0 0.796875 -0.453125 1.390625q-0.4375 0.578125 -1.28125 0.90625q-0.828125 0.3125 -2.03125 0.3125zm9.87796 0q-1.421875 0 -2.5 -0.59375q-1.0625 -0.609375 -1.671875 -1.65625q-0.609375 -1.046875 -0.609375 -2.40625q0 -1.34375 0.578125 -2.375q0.578125 -1.046875 1.59375 -1.640625q1.015625 -0.609375 2.28125 -0.609375q1.28125 0 2.28125 0.59375q1.0 0.578125 1.5625 1.625q0.578125 1.046875 0.578125 2.40625q0 0.09375 -0.015625 0.1875q0 0.09375 0 0.203125l-7.921875 0l0 -0.921875l7.265625 0l-0.484375 0.359375q0 -0.984375 -0.4375 -1.75q-0.421875 -0.78125 -1.15625 -1.203125q-0.71875 -0.4375 -1.671875 -0.4375q-0.9375 0 -1.6875 0.4375q-0.734375 0.421875 -1.15625 1.203125q-0.40625 0.78125 -0.40625 1.78125l0 0.203125q0 1.03125 0.453125 1.828125q0.453125 0.78125 1.28125 1.234375q0.828125 0.4375 1.875 0.4375q0.84375 0 1.5625 -0.296875q0.71875 -0.296875 1.234375 -0.90625l0.6875 0.796875q-0.609375 0.734375 -1.515625 1.125q-0.90625 0.375 -2.0 0.375zm9.4817505 0q-1.28125 0 -1.984375 -0.6875q-0.6875 -0.703125 -0.6875 -1.96875l0 -8.546875l1.234375 0l0 8.46875q0 0.796875 0.40625 1.234375q0.40625 0.4375 1.171875 0.4375q0.8125 0 1.34375 -0.46875l0.4375 0.890625q-0.359375 0.328125 -0.875 0.484375q-0.515625 0.15625 -1.046875 0.15625zm-4.296875 -8.171875l0 -1.015625l5.625 0l0 1.015625l-5.625 0z" fill-rule="nonzero"/><path fill="#cccccc" d="m42.72966 314.00787l127.968506 0l0 32.850403l-127.968506 0z" fill-rule="evenodd"/><path fill="#000000" d="m81.538315 336.57306l0 -12.125l1.0625 0l5.546875 9.453125l-0.5625 0l5.5 -9.453125l1.0625 0l0 12.125l-1.234375 0l0 -10.203125l0.296875 0l-5.0625 8.65625l-0.609375 0l-5.09375 -8.65625l0.328125 0l0 10.203125l-1.234375 0zm20.001389 0.09375q-1.3125 0 -2.359375 -0.59375q-1.046875 -0.609375 -1.65625 -1.65625q-0.609375 -1.046875 -0.609375 -2.40625q0 -1.359375 0.609375 -2.390625q0.609375 -1.046875 1.640625 -1.640625q1.046875 -0.59375 2.375 -0.59375q1.359375 0 2.40625 0.59375q1.046875 0.59375 1.640625 1.640625q0.59375 1.03125 0.59375 2.390625q0 1.359375 -0.59375 2.40625q-0.59375 1.046875 -1.65625 1.65625q-1.046875 0.59375 -2.390625 0.59375zm0 -1.09375q0.984375 0 1.75 -0.4375q0.765625 -0.453125 1.203125 -1.25q0.4375 -0.8125 0.4375 -1.875q0 -1.0625 -0.4375 -1.859375q-0.4375 -0.796875 -1.203125 -1.234375q-0.765625 -0.453125 -1.734375 -0.453125q-0.96875 0 -1.734375 0.453125q-0.75 0.4375 -1.203125 1.234375q-0.453125 0.796875 -0.453125 1.859375q0 1.0625 0.453125 1.875q0.453125 0.796875 1.203125 1.25q0.765625 0.4375 1.71875 0.4375zm10.786545 1.09375q-1.3125 0 -2.34375 -0.59375q-1.03125 -0.59375 -1.625 -1.640625q-0.578125 -1.046875 -0.578125 -2.421875q0 -1.375 0.578125 -2.40625q0.59375 -1.046875 1.625 -1.625q1.03125 -0.59375 2.34375 -0.59375q1.1875 0 2.125 0.546875q0.953125 0.53125 1.515625 1.5625q0.5625 1.03125 0.5625 2.515625q0 1.484375 -0.5625 2.53125q-0.546875 1.03125 -1.5 1.578125q-0.9375 0.546875 -2.140625 0.546875zm0.078125 -1.09375q0.96875 0 1.734375 -0.4375q0.78125 -0.453125 1.21875 -1.25q0.4375 -0.8125 0.4375 -1.875q0 -1.0625 -0.4375 -1.859375q-0.4375 -0.796875 -1.21875 -1.234375q-0.765625 -0.453125 -1.734375 -0.453125q-0.953125 0 -1.71875 0.453125q-0.75 0.4375 -1.203125 1.234375q-0.453125 0.796875 -0.453125 1.859375q0 1.0625 0.453125 1.875q0.453125 0.796875 1.203125 1.25q0.765625 0.4375 1.71875 0.4375zm3.4375 1.0l0 -2.734375l0.109375 -1.84375l-0.171875 -1.828125l0 -6.453125l1.234375 0l0 12.859375l-1.171875 0zm8.467148 0.09375q-1.421875 0 -2.5 -0.59375q-1.0625 -0.609375 -1.671875 -1.65625q-0.609375 -1.046875 -0.609375 -2.40625q0 -1.34375 0.578125 -2.375q0.578125 -1.046875 1.59375 -1.640625q1.015625 -0.609375 2.28125 -0.609375q1.28125 0 2.28125 0.59375q1.0 0.578125 1.5625 1.625q0.578125 1.046875 0.578125 2.40625q0 0.09375 -0.015625 0.1875q0 0.09375 0 0.203125l-7.921875 0l0 -0.921875l7.265625 0l-0.484375 0.359375q0 -0.984375 -0.4375 -1.75q-0.421875 -0.78125 -1.15625 -1.203125q-0.71875 -0.4375 -1.671875 -0.4375q-0.9375 0 -1.6875 0.4375q-0.734375 0.421875 -1.15625 1.203125q-0.40625 0.78125 -0.40625 1.78125l0 0.203125q0 1.03125 0.453125 1.828125q0.453125 0.78125 1.28125 1.234375q0.828125 0.4375 1.875 0.4375q0.84375 0 1.5625 -0.296875q0.71875 -0.296875 1.234375 -0.90625l0.6875 0.796875q-0.609375 0.734375 -1.515625 1.125q-0.90625 0.375 -2.0 0.375zm6.6067505 -0.09375l0 -12.859375l1.234375 0l0 12.859375l-1.234375 0z" fill-rule="nonzero"/><path fill="#cccccc" d="m108.43044 425.85565l135.71655 0l0 32.850372l-135.71655 0z" fill-rule="evenodd"/><path fill="#000000" d="m146.39127 448.42084l0 -12.125l1.0625 0l5.546875 9.453125l-0.5625 0l5.5 -9.453125l1.0625 0l0 12.125l-1.234375 0l0 -10.203125l0.296875 0l-5.0625 8.65625l-0.609375 0l-5.09375 -8.65625l0.328125 0l0 10.203125l-1.234375 0zm20.157639 0.09375q-1.421875 0 -2.5 -0.59375q-1.0625 -0.609375 -1.671875 -1.65625q-0.609375 -1.046875 -0.609375 -2.40625q0 -1.34375 0.578125 -2.375q0.578125 -1.046875 1.59375 -1.640625q1.015625 -0.609375 2.28125 -0.609375q1.28125 0 2.28125 0.59375q1.0 0.578125 1.5625 1.625q0.578125 1.046875 0.578125 2.40625q0 0.09375 -0.015625 0.1875q0 0.09375 0 0.203125l-7.921875 0l0 -0.921875l7.265625 0l-0.484375 0.359375q0 -0.984375 -0.4375 -1.75q-0.421875 -0.78125 -1.15625 -1.203125q-0.71875 -0.4375 -1.671875 -0.4375q-0.9375 0 -1.6875 0.4375q-0.734375 0.421875 -1.15625 1.203125q-0.40625 0.78125 -0.40625 1.78125l0 0.203125q0 1.03125 0.453125 1.828125q0.453125 0.78125 1.28125 1.234375q0.828125 0.4375 1.875 0.4375q0.84375 0 1.5625 -0.296875q0.71875 -0.296875 1.234375 -0.90625l0.6875 0.796875q-0.609375 0.734375 -1.515625 1.125q-0.90625 0.375 -2.0 0.375zm9.4817505 0q-1.28125 0 -1.984375 -0.6875q-0.6875 -0.703125 -0.6875 -1.96875l0 -8.546875l1.234375 0l0 8.46875q0 0.796875 0.40625 1.234375q0.40625 0.4375 1.171875 0.4375q0.8125 0 1.34375 -0.46875l0.4375 0.890625q-0.359375 0.328125 -0.875 0.484375q-0.515625 0.15625 -1.046875 0.15625zm-4.296875 -8.171875l0 -1.015625l5.625 0l0 1.015625l-5.625 0zm8.4570465 8.078125l0 -9.09375l1.171875 0l0 2.46875l-0.125 -0.421875q0.390625 -1.046875 1.28125 -1.59375q0.90625 -0.546875 2.25 -0.546875l0 1.203125q-0.078125 0 -0.15625 0q-0.0625 -0.015625 -0.125 -0.015625q-1.4375 0 -2.25 0.875q-0.8125 0.875 -0.8125 2.484375l0 4.640625l-1.234375 0zm6.80986 0l0 -9.09375l1.234375 0l0 9.09375l-1.234375 0zm0.625 -11.109375q-0.390625 0 -0.65625 -0.25q-0.25 -0.265625 -0.25 -0.625q0 -0.375 0.25 -0.625q0.265625 -0.25 0.65625 -0.25q0.375 0 0.625 0.25q0.265625 0.234375 0.265625 0.59375q0 0.390625 -0.25 0.65625q-0.25 0.25 -0.640625 0.25zm7.8174896 11.203125q-1.359375 0 -2.421875 -0.59375q-1.0625 -0.609375 -1.671875 -1.65625q-0.609375 -1.046875 -0.609375 -2.40625q0 -1.359375 0.609375 -2.390625q0.609375 -1.046875 1.671875 -1.640625q1.0625 -0.59375 2.421875 -0.59375q1.15625 0 2.09375 0.453125q0.9375 0.453125 1.46875 1.359375l-0.921875 0.609375q-0.46875 -0.6875 -1.15625 -1.015625q-0.6875 -0.328125 -1.515625 -0.328125q-0.96875 0 -1.75 0.453125q-0.765625 0.4375 -1.21875 1.234375q-0.453125 0.796875 -0.453125 1.859375q0 1.078125 0.453125 1.875q0.453125 0.796875 1.21875 1.25q0.78125 0.4375 1.75 0.4375q0.828125 0 1.515625 -0.328125q0.6875 -0.328125 1.15625 -1.015625l0.921875 0.625q-0.53125 0.890625 -1.46875 1.359375q-0.9375 0.453125 -2.09375 0.453125zm8.411926 0q-1.125 0 -2.140625 -0.3125q-1.0 -0.328125 -1.5625 -0.828125l0.546875 -0.96875q0.5625 0.421875 1.421875 0.734375q0.875 0.296875 1.828125 0.296875q1.296875 0 1.859375 -0.40625q0.578125 -0.40625 0.578125 -1.09375q0 -0.5 -0.328125 -0.78125q-0.3125 -0.28125 -0.84375 -0.421875q-0.515625 -0.15625 -1.15625 -0.265625q-0.640625 -0.109375 -1.28125 -0.234375q-0.625 -0.140625 -1.140625 -0.40625q-0.515625 -0.28125 -0.84375 -0.75q-0.3125 -0.46875 -0.3125 -1.234375q0 -0.75 0.40625 -1.34375q0.421875 -0.59375 1.21875 -0.921875q0.8125 -0.34375 1.984375 -0.34375q0.875 0 1.75 0.234375q0.890625 0.234375 1.46875 0.625l-0.546875 0.984375q-0.59375 -0.421875 -1.296875 -0.59375q-0.6875 -0.1875 -1.375 -0.1875q-1.234375 0 -1.8125 0.421875q-0.578125 0.421875 -0.578125 1.078125q0 0.53125 0.3125 0.828125q0.328125 0.28125 0.84375 0.453125q0.53125 0.15625 1.15625 0.265625q0.640625 0.109375 1.265625 0.265625q0.640625 0.140625 1.171875 0.390625q0.53125 0.25 0.84375 0.71875q0.328125 0.453125 0.328125 1.1875q0 0.796875 -0.453125 1.390625q-0.4375 0.578125 -1.28125 0.90625q-0.828125 0.3125 -2.03125 0.3125z" fill-rule="nonzero"/><path fill="#000000" fill-opacity="0.0" d="m176.28871 58.18635l0 21.133862" fill-rule="evenodd"/><path stroke="#000000" stroke-width="1.0" stroke-linejoin="round" stroke-linecap="butt" d="m176.28871 58.18635l0 15.133862" fill-rule="evenodd"/><path fill="#000000" stroke="#000000" stroke-width="1.0" stroke-linecap="butt" d="m174.63698 73.32021l1.6517334 4.5380936l1.6517334 -4.5380936z" fill-rule="evenodd"/><path fill="#000000" fill-opacity="0.0" d="m176.28871 112.178474l0 21.133858" fill-rule="evenodd"/><path stroke="#000000" stroke-width="1.0" stroke-linejoin="round" stroke-linecap="butt" d="m176.28871 112.178474l0 15.133858" fill-rule="evenodd"/><path fill="#000000" stroke="#000000" stroke-width="1.0" stroke-linecap="butt" d="m174.63698 127.31234l1.6517334 4.5380936l1.6517334 -4.5380936z" fill-rule="evenodd"/><path fill="#000000" fill-opacity="0.0" d="m106.74541 176.00656l-0.03149414 20.661423" fill-rule="evenodd"/><path stroke="#000000" stroke-width="1.0" stroke-linejoin="round" stroke-linecap="butt" d="m106.74541 176.00656l-0.022354126 14.661423" fill-rule="evenodd"/><path fill="#000000" stroke="#000000" stroke-width="1.0" stroke-linecap="butt" d="m105.07133 190.66547l1.6448135 4.540619l1.6586456 -4.5355835z" fill-rule="evenodd"/><path fill="#000000" fill-opacity="0.0" d="m265.4908 176.25984l0.1574707 20.409454" fill-rule="evenodd"/><path stroke="#000000" stroke-width="1.0" stroke-linejoin="round" stroke-linecap="butt" d="m265.4908 176.25984l0.11117554 14.409637" fill-rule="evenodd"/><path fill="#000000" stroke="#000000" stroke-width="1.0" stroke-linecap="butt" d="m263.95032 190.68222l1.6867065 4.5252075l1.6166687 -4.550705z" fill-rule="evenodd"/><path fill="#000000" fill-opacity="0.0" d="m106.71391 229.51837l0.25196838 21.133865" fill-rule="evenodd"/><path stroke="#000000" stroke-width="1.0" stroke-linejoin="round" stroke-linecap="butt" d="m106.71391 229.51837l0.18043518 15.134293" fill-rule="evenodd"/><path fill="#000000" stroke="#000000" stroke-width="1.0" stroke-linecap="butt" d="m105.24274 244.67235l1.7057114 4.5180817l1.5975189 -4.5574646z" fill-rule="evenodd"/><path fill="#000000" fill-opacity="0.0" d="m106.950134 292.86615l-0.22047424 21.13385" fill-rule="evenodd"/><path stroke="#000000" stroke-width="1.0" stroke-linejoin="round" stroke-linecap="butt" d="m106.950134 292.86615l-0.15788269 15.134186" fill-rule="evenodd"/><path fill="#000000" stroke="#000000" stroke-width="1.0" stroke-linecap="butt" d="m105.14061 307.9831l1.6043015 4.555084l1.6989822 -4.52063z" fill-rule="evenodd"/><path fill="#000000" fill-opacity="0.0" d="m106.71391 346.85828l-0.1889801 20.15747" fill-rule="evenodd"/><path stroke="#000000" stroke-width="1.0" stroke-linejoin="round" stroke-linecap="butt" d="m106.71391 346.85828l-0.1327362 14.157715" fill-rule="evenodd"/><path fill="#000000" stroke="#000000" stroke-width="1.0" stroke-linecap="butt" d="m104.92952 361.00052l1.6091232 4.553406l1.6941986 -4.5224304z" fill-rule="evenodd"/><path fill="#000000" fill-opacity="0.0" d="m265.6483 229.51968l0.2204895 138.36221" fill-rule="evenodd"/><path stroke="#000000" stroke-width="1.0" stroke-linejoin="round" stroke-linecap="butt" d="m265.6483 229.51968l0.2109375 132.36221" fill-rule="evenodd"/><path fill="#000000" stroke="#000000" stroke-width="1.0" stroke-linecap="butt" d="m264.2075 361.88452l1.6589355 4.5354614l1.6445007 -4.5407104z" fill-rule="evenodd"/><path fill="#000000" fill-opacity="0.0" d="m176.28871 410.2047l0 15.653564" fill-rule="evenodd"/><path stroke="#000000" stroke-width="1.0" stroke-linejoin="round" stroke-linecap="butt" d="m176.28871 410.2047l0 9.653564" fill-rule="evenodd"/><path fill="#000000" stroke="#000000" stroke-width="1.0" stroke-linecap="butt" d="m174.63698 419.85828l1.6517334 4.538086l1.6517334 -4.538086z" fill-rule="evenodd"/></g></svg>